<svg height="375" viewBox="0 0 375 375" width="375" xmlns="http://www.w3.org/2000/svg"><g fill="none" fill-rule="evenodd" transform="translate(51.20401 42)"><path d="m86.6115394 104c3.8492721 0 5.2310568.436136 6.6345224 1.186718 1.4805499.791806 2.642494 1.95375 3.4343007 3.4343.7505817 1.403466 1.1867177 2.785251 1.1867177 6.634523v109.488918c0 3.849272-.436136 5.231057-1.1867177 6.634523-.7918067 1.48055-1.9537508 2.642494-3.4343007 3.4343-1.4034656.750582-2.7852503 1.186718-6.6345224 1.186718h-39.5600085c-3.8492722 0-5.2310568-.436136-6.6345225-1.186718-1.4805498-.791806-2.642494-1.95375-3.4343007-3.4343-.7505816-1.403466-1.1867176-2.785251-1.1867176-6.634523v-109.488918c0-3.849272.436136-5.231057 1.1867176-6.634523.7918067-1.48055 1.9537509-2.642494 3.4343007-3.4343 1.4034657-.750582 2.7852503-1.186718 6.6345225-1.186718z" fill="#fff" stroke="#ab7bbc" stroke-width="2"/><path d="m172.051531-1h39.560008c3.849273 0 5.231057.43613598 6.634523 1.18671762 1.48055.79180671 2.642494 1.95375088 3.434301 3.43430071.750581 1.40346563 1.186717 2.78525029 1.186717 6.63452247v109.4889182c0 3.849272-.436136 5.231057-1.186717 6.634523-.791807 1.48055-1.953751 2.642494-3.434301 3.4343-1.403466.750582-2.78525 1.186718-6.634523 1.186718h-39.560008c-3.849272 0-5.231057-.436136-6.634523-1.186718-1.480549-.791806-2.642494-1.95375-3.4343-3.4343-.750582-1.403466-1.186718-2.785251-1.186718-6.634523v-109.4889182c0-3.84927218.436136-5.23105684 1.186718-6.63452247.791806-1.48054983 1.953751-2.642494 3.4343-3.43430071 1.403466-.75058164 2.785251-1.18671762 6.634523-1.18671762z" fill="#fff" stroke="#ab7bbc" stroke-width="2"/><path d="m182.611539 166c3.849273 0 5.231057.436136 6.634523 1.186718 1.48055.791806 2.642494 1.95375 3.434301 3.4343.750581 1.403466 1.186717 2.785251 1.186717 6.634523v109.488918c0 3.849272-.436136 5.231057-1.186717 6.634523-.791807 1.48055-1.953751 2.642494-3.434301 3.4343-1.403466.750582-2.78525 1.186718-6.634523 1.186718h-39.560008c-3.849272 0-5.231057-.436136-6.634523-1.186718-1.480549-.791806-2.642494-1.95375-3.4343-3.4343-.750582-1.403466-1.186718-2.785251-1.186718-6.634523v-109.488918c0-3.849272.436136-5.231057 1.186718-6.634523.791806-1.48055 1.953751-2.642494 3.4343-3.4343 1.403466-.750582 2.785251-1.186718 6.634523-1.186718z" fill="#fff" stroke="#ab7bbc" stroke-width="2"/><g fill="#b373d3" fill-rule="nonzero"><g transform="translate(44.305756 217.801758)"><path d="m0 4.02539062c0 .21533204.07910156.39550782.25927734.57128907l3.32226563 3.25634765c.13623047.13183594.29443359.19775391.48779297.19775391.38671875 0 .70751953-.31201172.70751953-.69873047 0-.1977539-.08349609-.37353516-.22851563-.51855469l-2.89599609-2.8125 2.89599609-2.80810547c.14501954-.140625.22851563-.32080078.22851563-.51416015 0-.38232422-.32080078-.69873047-.70751953-.69873047-.19335938 0-.3515625.06591797-.48779297.19775391l-3.32226563 3.25634765c-.18017578.17138672-.25488281.3515625-.25927734.57128906z"/><path d="m16.5761719 4.02539062c0-.21972656-.0791016-.39990234-.2592774-.57128906l-3.3222656-3.25634765c-.1318359-.13183594-.2944336-.19775391-.487793-.19775391-.3867187 0-.703125.31640625-.703125.69873047 0 .19335937.0791016.37353515.2241211.51416015l2.8959961 2.80810547-2.8959961 2.8125c-.1450195.14501953-.2241211.32080079-.2241211.51855469 0 .38671875.3164063.69873047.703125.69873047.1933594 0 .3559571-.06591797.487793-.19775391l3.3222656-3.25634765c.1845703-.17578125.2592774-.35595703.2592774-.57128907z"/></g><g transform="translate(169.305756 112.801758)"><path d="m0 4.02539062c0 .21533204.07910156.39550782.25927734.57128907l3.32226563 3.25634765c.13623047.13183594.29443359.19775391.48779297.19775391.38671875 0 .70751953-.31201172.70751953-.69873047 0-.1977539-.08349609-.37353516-.22851563-.51855469l-2.89599609-2.8125 2.89599609-2.80810547c.14501954-.140625.22851563-.32080078.22851563-.51416015 0-.38232422-.32080078-.69873047-.70751953-.69873047-.19335938 0-.3515625.06591797-.48779297.19775391l-3.32226563 3.25634765c-.18017578.17138672-.25488281.3515625-.25927734.57128906z"/><path d="m16.5761719 4.02539062c0-.21972656-.0791016-.39990234-.2592774-.57128906l-3.3222656-3.25634765c-.1318359-.13183594-.2944336-.19775391-.487793-.19775391-.3867187 0-.703125.31640625-.703125.69873047 0 .19335937.0791016.37353515.2241211.51416015l2.8959961 2.80810547-2.8959961 2.8125c-.1450195.14501953-.2241211.32080079-.2241211.51855469 0 .38671875.3164063.69873047.703125.69873047.1933594 0 .3559571-.06591797.487793-.19775391l3.3222656-3.25634765c.1845703-.17578125.2592774-.35595703.2592774-.57128907z"/></g><g transform="translate(140.305756 279.801758)"><path d="m0 4.02539062c0 .21533204.07910156.39550782.25927734.57128907l3.32226563 3.25634765c.13623047.13183594.29443359.19775391.48779297.19775391.38671875 0 .70751953-.31201172.70751953-.69873047 0-.1977539-.08349609-.37353516-.22851563-.51855469l-2.89599609-2.8125 2.89599609-2.80810547c.14501954-.140625.22851563-.32080078.22851563-.51416015 0-.38232422-.32080078-.69873047-.70751953-.69873047-.19335938 0-.3515625.06591797-.48779297.19775391l-3.32226563 3.25634765c-.18017578.17138672-.25488281.3515625-.25927734.57128906z"/><path d="m16.5761719 4.02539062c0-.21972656-.0791016-.39990234-.2592774-.57128906l-3.3222656-3.25634765c-.1318359-.13183594-.2944336-.19775391-.487793-.19775391-.3867187 0-.703125.31640625-.703125.69873047 0 .19335937.0791016.37353515.2241211.51416015l2.8959961 2.80810547-2.8959961 2.8125c-.1450195.14501953-.2241211.32080079-.2241211.51855469 0 .38671875.3164063.69873047.703125.69873047.1933594 0 .3559571-.06591797.487793-.19775391l3.3222656-3.25634765c.1845703-.17578125.2592774-.35595703.2592774-.57128907z"/></g><g><g transform="translate(41.813568 129.377441)"><path d="m2.68945312 6.70605469c.41748047 0 .66357422-.25488281.66357422-.68994141v-4.63623047h1.31396485c.35595703 0 .59765625-.20654297.59765625-.5493164 0-.34277344-.23730469-.54931641-.59765625-.54931641h-3.9506836c-.36474609 0-.60205078.20654297-.60205078.54931641 0 .34277343.24169922.5493164.60205078.5493164h1.30957032v4.63623047c0 .4350586.24609375.68994141.66357421.68994141z"/><path d="m6.48632812 6.71484375c.37792969 0 .64160157-.22851563.64160157-.66796875v-2.11376953c0-.61962891.35595703-1.04589844.96240234-1.04589844.58447266 0 .88330078.36914063.88330078.97558594v2.18408203c0 .43945312.26806641.66796875.64160157.66796875.37792968 0 .64160152-.22851563.64160152-.66796875v-2.45654297c0-1.08984375-.59765621-1.76660156-1.64355465-1.76660156-.71630859 0-1.23046875.33398437-1.48095703.92724609h-.02636719v-1.90722656c0-.41308594-.23291015-.65917969-.62841797-.65917969-.39550781 0-.6328125.24609375-.6328125.65917969v5.203125c0 .43945312.26806641.66796875.64160156.66796875z"/><path d="m11.737793 1.32714844c.3867187 0 .6855468-.2944336.6855468-.66357422 0-.37353516-.2988281-.66357422-.6855468-.66357422-.3867188 0-.6855469.29003906-.6855469.66357422 0 .36914062.2988281.66357422.6855469.66357422zm0 5.38769531c.3955078 0 .6416015-.25048828.6416015-.66796875v-3.55957031c0-.41748047-.2460937-.67236328-.6416015-.67236328-.3999024 0-.6416016.25488281-.6416016.67236328v3.55957031c0 .41748047.2416992.66796875.6416016.66796875z"/><path d="m15.1523438 6.72363281c1.2436523 0 2.0830078-.60644531 2.0830078-1.54248047 0-.703125-.413086-1.07226562-1.4150391-1.28320312l-.777832-.16699219c-.4702149-.10107422-.6547852-.26367187-.6547852-.50976562 0-.30322266.3032227-.50976563.7382813-.50976563.4614257 0 .7163086.21972656.9404296.5053711.1142579.13623046.2988282.1977539.4658204.1977539.3295898 0 .4921875-.18017578.4921875-.43945312 0-.06152344-.0131836-.12304688-.0307618-.18896485-.1538085-.53173828-.8701171-.97558593-1.8457031-.97558593-1.2216797 0-1.9995117.58007812-1.9995117 1.48095703 0 .69873047.4658203 1.16894531 1.3886719 1.36669921l.7910156.16699219c.4614258.10107422.6240234.23730469.6240234.4921875 0 .31201172-.3032226.5053711-.7690429.5053711-.487793 0-.7778321-.14941407-1.0283203-.47900391-.1757813-.19775391-.3515625-.29003906-.5581055-.29003906-.2988281 0-.5185547.1977539-.5185547.4921875 0 .0703125.0175781.15380859.0483398.23730468.2241211.55371094.9448243.94042969 2.025879.94042969z"/><path d="m20.3115234 1.32714844c.3867188 0 .6855469-.2944336.6855469-.66357422 0-.37353516-.2988281-.66357422-.6855469-.66357422-.3867187 0-.6855468.29003906-.6855468.66357422 0 .36914062.2988281.66357422.6855468.66357422zm0 5.38769531c.3955078 0 .6416016-.25048828.6416016-.66796875v-3.55957031c0-.41748047-.2460938-.67236328-.6416016-.67236328-.3999023 0-.6416015.25488281-.6416015.67236328v3.55957031c0 .41748047.2416992.66796875.6416015.66796875z"/><path d="m23.7260742 6.72363281c1.2436524 0 2.0830078-.60644531 2.0830078-1.54248047 0-.703125-.4130859-1.07226562-1.415039-1.28320312l-.7778321-.16699219c-.4702148-.10107422-.6547851-.26367187-.6547851-.50976562 0-.30322266.3032226-.50976563.7382812-.50976563.4614258 0 .7163086.21972656.9404297.5053711.1142578.13623046.2988281.1977539.4658203.1977539.3295899 0 .4921875-.18017578.4921875-.43945312 0-.06152344-.0131836-.12304688-.0307617-.18896485-.1538086-.53173828-.8701172-.97558593-1.8457031-.97558593-1.2216797 0-1.9995117.58007812-1.9995117 1.48095703 0 .69873047.4658203 1.16894531 1.3886718 1.36669921l.7910157.16699219c.4614257.10107422.6240234.23730469.6240234.4921875 0 .31201172-.3032227.5053711-.769043.5053711-.4877929 0-.777832-.14941407-1.0283203-.47900391-.1757812-.19775391-.3515625-.29003906-.5581054-.29003906-.2988282 0-.5185547.1977539-.5185547.4921875 0 .0703125.0175781.15380859.0483398.23730468.2241211.55371094.9448242.94042969 2.0258789.94042969z"/><path d="m29.6147461 6.69726562c.5888672 0 1.1777344-.29443359 1.4414062-.79541015h.0263672v.24169922c.0263672.37792969.2680664.57128906.6152344.57128906.3647461 0 .6240234-.21972656.6240234-.64599609v-2.6850586c0-.94921875-.7866211-1.57324218-1.9951171-1.57324218-.975586 0-1.7314454.34716796-1.9511719.90966796-.0439453.09667969-.065918.18896485-.065918.29003907 0 .29003906.2241211.4921875.5361328.4921875.206543 0 .3691407-.07910157.5097657-.23730469.2856445-.36914063.5229492-.49658203.9140624-.49658203.4833985 0 .7910157.25488281.7910157.69433593v.31201172l-1.1865235.0703125c-1.1777343.0703125-1.836914.56689454-1.836914 1.42382813 0 .84814453.6811523 1.42822265 1.5776367 1.42822265zm.421875-.92724609c-.4306641 0-.7207031-.21972656-.7207031-.57128906 0-.33398438.2724609-.54931641.7514648-.58447266l.9931641-.06152343v.34277343c0 .50976563-.4614258.87451172-1.0239258.87451172z"/><path d="m1.07226562 17.7148438c.37792969 0 .64160157-.2285157.64160157-.6679688v-5.1899414c0-.4394531-.26367188-.6723633-.64160157-.6723633-.37353515 0-.64160156.2329102-.64160156.6723633v5.1899414c0 .4394531.26806641.6679688.64160156.6679688z"/><path d="m3.24316406 12.3271484c.38671875 0 .68554688-.2944336.68554688-.6635742 0-.3735351-.29882813-.6635742-.68554688-.6635742s-.68554687.2900391-.68554687.6635742c0 .3691406.29882812.6635742.68554687.6635742zm0 5.3876954c.39550782 0 .64160156-.2504883.64160156-.6679688v-3.5595703c0-.4174805-.24609374-.6723633-.64160156-.6723633-.39990234 0-.64160156.2548828-.64160156.6723633v3.5595703c0 .4174805.24169922.6679688.64160156.6679688z"/><path d="m5.37890625 17.7148438c.37792969 0 .64160156-.2285157.64160156-.6679688v-2.1269531c0-.6108399.3647461-1.0327149.94042969-1.0327149s.86572266.3515625.86572266.9667969v2.1928711c0 .4394531.26367187.6679688.64160156.6679688.37353516 0 .64160156-.2285157.64160156-.6679688v-2.4609375c0-1.1030273-.58886719-1.762207-1.63476562-1.762207-.72509766 0-1.19970704.3208007-1.45019532.9052734h-.02636718v-.2636719c0-.4042968-.25488282-.6503906-.64160157-.6503906s-.6196289.2460938-.6196289.6459961v3.5859375c0 .4394531.2680664.6679688.64160156.6679688z"/><path d="m10.5952148 17.7148438c.3779297 0 .6416016-.2285157.6416016-.6679688v-.9536133l.4086914-.3779297 1.2084961 1.5996094c.2021484.3032227.355957.3999024.628418.3999024.3603515 0 .6108398-.2373047.6108398-.5800782 0-.1669922-.0395508-.28125-.1801758-.4702148l-1.3139648-1.6743164 1.199707-1.1337891c.1845703-.1713867.2416992-.2900391.2416992-.4833984 0-.3164063-.2416992-.5581055-.571289-.5581055-.1933594 0-.3383789.074707-.5097656.2548828l-1.7050782 1.7094727h-.0175781v-2.9223633c0-.4394531-.2636719-.6723633-.6416016-.6723633-.3735351 0-.64160152.2329102-.64160152.6723633v5.1899414c0 .4394531.26806642.6679688.64160152.6679688z"/><path d="m16.8881836 16.418457c0 .8305664.4350586 1.256836 1.2919922 1.256836h.0439453c.5405273 0 .909668-.1933594.909668-.5712891 0-.2988281-.1713868-.4306641-.487793-.4658203l-.0834961-.0087891c-.2768555-.0219726-.3911133-.1625976-.3911133-.496582v-2.2543945h.4526367c.3032227 0 .4921875-.1889649.4921875-.4833985s-.1889648-.4833984-.4921875-.4833984h-.4526367v-.5229492c0-.413086-.2416992-.6679688-.6416015-.6679688-.3999024 0-.6416016.2548828-.6416016.6679688v.5229492h-.2460938c-.3032226 0-.496582.1845703-.496582.4833984 0 .2988282.1933594.4833985.496582.4833985h.2460938z"/><path d="m21.8408203 17.7236328c1.4238281 0 2.3334961-.909668 2.3334961-2.4609375 0-1.5292969-.9228516-2.4521484-2.3334961-2.4521484s-2.3334961.9272461-2.3334961 2.4521484c0 1.546875.909668 2.4609375 2.3334961 2.4609375zm0-.9799805c-.6328125 0-1.0327148-.5317382-1.0327148-1.4765625 0-.9360351.4086914-1.4765625 1.0327148-1.4765625.6240235 0 1.0283203.5405274 1.0283203 1.4765625 0 .9448243-.3999023 1.4765625-1.0283203 1.4765625z"/><path d="m26.9560547 16.418457c0 .8305664.4350586 1.256836 1.2919922 1.256836h.0439453c.5405273 0 .909668-.1933594.909668-.5712891 0-.2988281-.1713868-.4306641-.487793-.4658203l-.0834961-.0087891c-.2768555-.0219726-.3911133-.1625976-.3911133-.496582v-2.2543945h.4526367c.3032227 0 .4921875-.1889649.4921875-.4833985s-.1889648-.4833984-.4921875-.4833984h-.4526367v-.5229492c0-.413086-.2416992-.6679688-.6416016-.6679688-.3999023 0-.6416015.2548828-.6416015.6679688v.5229492h-.2460938c-.3032226 0-.496582.1845703-.496582.4833984 0 .2988282.1933594.4833985.496582.4833985h.2460938z"/><path d="m30.4848633 17.7148438c.3779297 0 .6416015-.2285157.6416015-.6679688v-2.1137695c0-.6196289.3559571-1.0458985.9624024-1.0458985.5844726 0 .8833008.3691407.8833008.975586v2.184082c0 .4394531.2680664.6679688.6416015.6679688.3779297 0 .6416016-.2285157.6416016-.6679688v-2.456543c0-1.0898437-.5976563-1.7666015-1.6435547-1.7666015-.7163086 0-1.2304687.3339843-1.480957.9272461h-.0263672v-1.9072266c0-.4130859-.2329102-.6591797-.628418-.6591797s-.6328125.2460938-.6328125.6591797v5.203125c0 .4394531.2680664.6679688.6416016.6679688z"/><path d="m37.2392578 17.7236328c.909668 0 1.6391602-.3427734 1.9511719-.9228516.0571289-.1054687.0878906-.2109374.0878906-.3120117 0-.2944336-.2241211-.4702148-.5009765-.4702148-.1669922 0-.28125.0483398-.4174805.1889648-.347168.4086914-.6547852.5668946-1.125.5668946-.6503906 0-1.0722656-.4570313-1.0722656-1.1557618v-.0571289h2.6894531c.355957 0 .5581054-.2021484.5581054-.5581054 0-1.2788086-.8964843-2.1928711-2.2324218-2.1928711-1.3930664 0-2.2763672.9624023-2.2763672 2.4785156 0 1.5249023.8657226 2.4345703 2.3378906 2.4345703zm-1.0634766-2.9487305c.0439454-.6020507.4526368-1.0151367 1.0151368-1.0151367s.9580078.3999024.984375 1.0151367z"/><path d="m2.3203125 28.7236328c1.24365234 0 2.08300781-.6064453 2.08300781-1.5424805 0-.703125-.41308593-1.0722656-1.41503906-1.2832031l-.77783203-.1669922c-.47021484-.1010742-.65478516-.2636718-.65478516-.5097656 0-.3032226.30322266-.5097656.73828125-.5097656.46142578 0 .7163086.2197265.94042969.5053711.11425781.1362304.29882812.1977539.46582031.1977539.32958985 0 .4921875-.1801758.4921875-.4394531 0-.0615235-.01318359-.1230469-.03076172-.1889649-.15380859-.5317383-.87011718-.9755859-1.84570312-.9755859-1.22167969 0-1.99951172.5800781-1.99951172 1.480957 0 .6987305.46582031 1.1689453 1.38867187 1.3666992l.79101563.1669922c.46142578.1010742.62402344.2373047.62402344.4921875 0 .3120117-.30322266.5053711-.76904297.5053711-.48779297 0-.77783203-.1494141-1.02832031-.4790039-.17578125-.1977539-.3515625-.2900391-.55810547-.2900391-.29882813 0-.51855469.1977539-.51855469.4921875 0 .0703125.01757813.1538086.04833984.2373047.2241211.553711.94482422.9404297 2.02587891.9404297z"/><path d="m7.20263672 28.7236328c.90966797 0 1.63916016-.3427734 1.95117187-.9228516.05712891-.1054687.08789063-.2109374.08789063-.3120117 0-.2944336-.2241211-.4702148-.50097656-.4702148-.16699219 0-.28125.0483398-.41748047.1889648-.34716797.4086914-.65478516.5668946-1.125.5668946-.65039063 0-1.07226563-.4570313-1.07226563-1.1557618v-.0571289h2.68945313c.35595703 0 .55810547-.2021484.55810547-.5581054 0-1.2788086-.89648438-2.1928711-2.23242188-2.1928711-1.3930664 0-2.27636719.9624023-2.27636719 2.4785156 0 1.5249023.86572266 2.4345703 2.33789063 2.4345703zm-1.06347656-2.9487305c.04394531-.6020507.45263672-1.0151367 1.01513672-1.0151367s.95800781.3999024.984375 1.0151367z"/><path d="m12.1816406 28.7236328c.9008789 0 1.7050782-.4482422 1.9863282-1.0898437.0571289-.1274414.083496-.2329102.083496-.3339844 0-.3164063-.2416992-.5141602-.5405273-.5141602-.2724609 0-.4130859.1098633-.5844727.3779297-.1977539.3339844-.4746093.553711-.9228515.553711-.6416016 0-1.0415039-.5273438-1.0415039-1.4545899 0-.909668.3999023-1.4458008 1.0502929-1.4458008.4086915 0 .694336.1889649.9272461.6020508.131836.2329102.2856446.3339844.5405274.3339844.3032226 0 .5493164-.1845703.5493164-.5009766 0-.0922851-.0263672-.2065429-.0703125-.3164062-.2548828-.6679688-1.0415039-1.125-1.9863281-1.125-1.4150391 0-2.31152348.9492187-2.31152348 2.4565429 0 1.5249024.90087888 2.456543 2.32031248 2.456543z"/><path d="m17.0991211 28.7236328c1.4238281 0 2.3334961-.909668 2.3334961-2.4609375 0-1.5292969-.9228516-2.4521484-2.3334961-2.4521484s-2.3334961.9272461-2.3334961 2.4521484c0 1.546875.909668 2.4609375 2.3334961 2.4609375zm0-.9799805c-.6328125 0-1.0327149-.5317382-1.0327149-1.4765625 0-.9360351.4086915-1.4765625 1.0327149-1.4765625s1.0283203.5405274 1.0283203 1.4765625c0 .9448243-.3999023 1.4765625-1.0283203 1.4765625z"/><path d="m20.7333984 28.7148438c.3779297 0 .6416016-.2285157.6416016-.6679688v-2.1269531c0-.6108399.3647461-1.0327149.9404297-1.0327149s.8657226.3515625.8657226.9667969v2.1928711c0 .4394531.2636719.6679688.6416016.6679688.3735352 0 .6416016-.2285157.6416016-.6679688v-2.4609375c0-1.1030273-.5888672-1.762207-1.6347657-1.762207-.7250976 0-1.199707.3208007-1.4501953.9052734h-.0263672v-.2636719c0-.4042968-.2548828-.6503906-.6416015-.6503906-.3867188 0-.6196289.2460938-.6196289.6459961v3.5859375c0 .4394531.2680664.6679688.6416015.6679688z"/><path d="m27.0263672 28.6972656c.7250976 0 1.2436523-.3779297 1.4501953-.9052734h.0219727v.2724609c0 .4306641.2768554.6503907.645996.6503907.3735352 0 .6372071-.2241211.6372071-.6503907v-5.2075195c0-.4394531-.2636719-.6723633-.6416016-.6723633-.3735351 0-.6416015.2329102-.6416015.6723633v1.8632812h-.0263672c-.2285157-.5229492-.7558594-.8833007-1.4370118-.8833007-1.1821289 0-1.9291992.9272461-1.9291992 2.4213867 0 1.5073242.7426758 2.4389648 1.9204102 2.4389648zm.4350586-1.0327148c-.6459961 0-1.0415039-.5317383-1.0415039-1.397461 0-.8613281.3955078-1.4018554 1.0415039-1.4018554.637207 0 1.0458984.5449218 1.0458984 1.4018554 0 .8613282-.4086914 1.397461-1.0458984 1.397461z"/><path d="m33.0600586 30.3012695c.3779297 0 .6416016-.2285156.6416016-.6679687v-1.8017578h.0263671c.2504883.5317382.7778321.8657226 1.4633789.8657226 1.1777344 0 1.9072266-.9140625 1.9072266-2.4301758 0-1.5205078-.7338867-2.4301757-1.9291992-2.4301757-.6811524 0-1.2041016.3427734-1.4589844.8964843h-.0263672v-.2548828c0-.4350586-.2636718-.6635742-.6328125-.6635742-.3691406 0-.6328125.2285156-.6328125.6591797v5.1591797c0 .4394531.2680664.6679687.6416016.6679687zm1.6787109-2.6367187c-.6284179 0-1.0415039-.5449219-1.0415039-1.397461 0-.84375.413086-1.4018554 1.0415039-1.4018554.6416016 0 1.0458985.5493164 1.0458985 1.4018554 0 .8569336-.4042969 1.397461-1.0458985 1.397461z"/><path d="m39.1508789 28.6972656c.5888672 0 1.1777344-.2944336 1.4414063-.7954101h.0263671v.2416992c.0263672.3779297.2680665.5712891.6152344.5712891.3647461 0 .6240235-.2197266.6240235-.6459961v-2.6850586c0-.9492188-.7866211-1.5732422-1.9951172-1.5732422-.975586 0-1.7314453.3471679-1.9511719.9096679-.0439453.0966797-.065918.1889649-.065918.2900391 0 .2900391.2241211.4921875.5361328.4921875.206543 0 .3691407-.0791016.5097657-.2373047.2856445-.3691406.5229492-.496582.9140625-.496582.4833984 0 .7910156.2548828.7910156.6943359v.3120117l-1.1865235.0703125c-1.1777343.0703125-1.836914.5668946-1.836914 1.4238282 0 .8481445.6811523 1.4282226 1.5776367 1.4282226zm.421875-.9272461c-.4306641 0-.7207031-.2197265-.7207031-.571289 0-.3339844.2724609-.5493164.7514648-.5844727l.9931641-.0615234v.3427734c0 .5097656-.4614258.8745117-1.0239258.8745117z"/><path d="m44.7890625 30.3935547c1.5161133.0087891 2.4038086-.7294922 2.4038086-1.9555664v-3.9726563c0-.4350586-.2680664-.6503906-.637207-.6503906-.3691407 0-.6459961.215332-.6459961.6503906v.2592774h-.0263672c-.2460938-.5317383-.7602539-.8876953-1.4370117-.8876953-1.2128907 0-1.9335938.8745117-1.9335938 2.3510742 0 1.4370117.7382813 2.3334961 1.9116211 2.3334961.6811524 0 1.2304688-.3383789 1.4501953-.84375h.0263672v.7514648c0 .5888672-.4130859.975586-1.1162109.9711914-.4262696-.0043945-.7602539-.1845703-1.1074219-.5141601-.1450195-.131836-.2768555-.1845703-.4438477-.1845703-.3208007 0-.5229492.2021484-.5229492.4702148 0 .1186523.0263672.2373047.0966797.355957.3032227.4965821 1.0195313.8613282 1.9819336.8657227zm.0703125-2.8256836c-.637207 0-1.0327148-.5053711-1.0327148-1.3666992 0-.8525391.3999023-1.3886719 1.0327148-1.3886719.6416016 0 1.0546875.5449219 1.0546875 1.3930664 0 .8525391-.4130859 1.3623047-1.0546875 1.3623047z"/><path d="m50.1899414 28.7236328c.909668 0 1.6391602-.3427734 1.9511719-.9228516.0571289-.1054687.0878906-.2109374.0878906-.3120117 0-.2944336-.2241211-.4702148-.5009766-.4702148-.1669921 0-.28125.0483398-.4174804.1889648-.347168.4086914-.6547852.5668946-1.125.5668946-.6503907 0-1.0722657-.4570313-1.0722657-1.1557618v-.0571289h2.6894532c.355957 0 .5581054-.2021484.5581054-.5581054 0-1.2788086-.8964843-2.1928711-2.2324218-2.1928711-1.3930664 0-2.2763672.9624023-2.2763672 2.4785156 0 1.5249023.8657226 2.4345703 2.3378906 2.4345703zm-1.0634766-2.9487305c.0439454-.6020507.4526368-1.0151367 1.0151368-1.0151367s.9580078.3999024.984375 1.0151367z"/><path d="m1.79296875 39.6972656c.58886719 0 1.17773437-.2944336 1.44140625-.7954101h.02636719v.2416992c.02636719.3779297.2680664.5712891.61523437.5712891.3647461 0 .62402344-.2197266.62402344-.6459961v-2.6850586c0-.9492188-.78662109-1.5732422-1.99511719-1.5732422-.97558593 0-1.73144531.3471679-1.95117187.9096679-.04394531.0966797-.06591797.1889649-.06591797.2900391 0 .2900391.22412109.4921875.53613281.4921875.20654297 0 .36914063-.0791016.50976563-.2373047.28564453-.3691406.52294921-.496582.9140625-.496582.48339843 0 .79101562.2548828.79101562.6943359v.3120117l-1.18652344.0703125c-1.17773437.0703125-1.83691406.5668946-1.83691406 1.4238282 0 .8481445.68115235 1.4282226 1.57763672 1.4282226zm.421875-.9272461c-.43066406 0-.72070313-.2197265-.72070313-.571289 0-.3339844.27246094-.5493164.75146485-.5844727l.99316406-.0615234v.3427734c0 .5097656-.46142578.8745117-1.02392578.8745117z"/><path d="m5.96777344 39.7148438c.37792968 0 .64160156-.2285157.64160156-.6679688v-2.1269531c0-.6108399.36474609-1.0327149.94042969-1.0327149.57568359 0 .86572265.3515625.86572265.9667969v2.1928711c0 .4394531.26367188.6679688.64160157.6679688.37353515 0 .64160156-.2285157.64160156-.6679688v-2.4609375c0-1.1030273-.58886719-1.762207-1.63476563-1.762207-.72509765 0-1.19970703.3208007-1.45019531.9052734h-.02636719v-.2636719c0-.4042968-.25488281-.6503906-.64160156-.6503906s-.6196289.2460938-.6196289.6459961v3.5859375c0 .4394531.2680664.6679688.64160156.6679688z"/><path d="m12.2607422 39.6972656c.7250976 0 1.2436523-.3779297 1.4501953-.9052734h.0219727v.2724609c0 .4306641.2768554.6503907.645996.6503907.3735352 0 .6372071-.2241211.6372071-.6503907v-5.2075195c0-.4394531-.2636719-.6723633-.6416016-.6723633-.3735351 0-.6416015.2329102-.6416015.6723633v1.8632812h-.0263672c-.2285157-.5229492-.7558594-.8833007-1.4370118-.8833007-1.1821289 0-1.9291992.9272461-1.9291992 2.4213867 0 1.5073242.7426758 2.4389648 1.9204102 2.4389648zm.4350586-1.0327148c-.6459961 0-1.0415039-.5317383-1.0415039-1.397461 0-.8613281.3955078-1.4018554 1.0415039-1.4018554.637207 0 1.0458984.5449218 1.0458984 1.4018554 0 .8613282-.4086914 1.397461-1.0458984 1.397461z"/><path d="m19.0458984 39.6972656c.5888672 0 1.1777344-.2944336 1.4414063-.7954101h.0263672v.2416992c.0263672.3779297.2680664.5712891.6152343.5712891.3647461 0 .6240235-.2197266.6240235-.6459961v-2.6850586c0-.9492188-.7866211-1.5732422-1.9951172-1.5732422-.9755859 0-1.7314453.3471679-1.9511719.9096679-.0439453.0966797-.0659179.1889649-.0659179.2900391 0 .2900391.2241211.4921875.5361328.4921875.2065429 0 .3691406-.0791016.5097656-.2373047.2856445-.3691406.5229492-.496582.9140625-.496582.4833984 0 .7910156.2548828.7910156.6943359v.3120117l-1.1865234.0703125c-1.1777344.0703125-1.8369141.5668946-1.8369141 1.4238282 0 .8481445.6811524 1.4282226 1.5776367 1.4282226zm.421875-.9272461c-.430664 0-.7207031-.2197265-.7207031-.571289 0-.3339844.2724609-.5493164.7514649-.5844727l.993164-.0615234v.3427734c0 .5097656-.4614258.8745117-1.0239258.8745117z"/><path d="m23.2207031 39.7148438c.3779297 0 .6416016-.2285157.6416016-.6679688v-2.1269531c0-.6108399.3647461-1.0327149.9404297-1.0327149s.8657226.3515625.8657226.9667969v2.1928711c0 .4394531.2636719.6679688.6416016.6679688.3735352 0 .6416016-.2285157.6416016-.6679688v-2.4609375c0-1.1030273-.5888672-1.762207-1.6347657-1.762207-.7250976 0-1.199707.3208007-1.4501953.9052734h-.0263672v-.2636719c0-.4042968-.2548828-.6503906-.6416015-.6503906-.3867188 0-.6196289.2460938-.6196289.6459961v3.5859375c0 .4394531.2680664.6679688.6416015.6679688z"/><path d="m29.9267578 39.7236328c1.4238281 0 2.3334961-.909668 2.3334961-2.4609375 0-1.5292969-.9228516-2.4521484-2.3334961-2.4521484s-2.3334961.9272461-2.3334961 2.4521484c0 1.546875.909668 2.4609375 2.3334961 2.4609375zm0-.9799805c-.6328125 0-1.0327148-.5317382-1.0327148-1.4765625 0-.9360351.4086914-1.4765625 1.0327148-1.4765625s1.0283203.5405274 1.0283203 1.4765625c0 .9448243-.3999023 1.4765625-1.0283203 1.4765625z"/><path d="m33.262207 38.418457c0 .8305664.4350586 1.256836 1.2919922 1.256836h.0439453c.5405274 0 .909668-.1933594.909668-.5712891 0-.2988281-.1713867-.4306641-.487793-.4658203l-.0834961-.0087891c-.2768554-.0219726-.3911132-.1625976-.3911132-.496582v-2.2543945h.4526367c.3032226 0 .4921875-.1889649.4921875-.4833985s-.1889649-.4833984-.4921875-.4833984h-.4526367v-.5229492c0-.413086-.2416993-.6679688-.6416016-.6679688-.3999024 0-.6416016.2548828-.6416016.6679688v.5229492h-.2460937c-.3032227 0-.4965821.1845703-.4965821.4833984 0 .2988282.1933594.4833985.4965821.4833985h.2460937z"/><path d="m36.7910156 39.7148438c.3779297 0 .6416016-.2285157.6416016-.6679688v-2.1137695c0-.6196289.355957-1.0458985.9624023-1.0458985.5844727 0 .8833008.3691407.8833008.975586v2.184082c0 .4394531.2680664.6679688.6416016.6679688.3779297 0 .6416015-.2285157.6416015-.6679688v-2.456543c0-1.0898437-.5976562-1.7666015-1.6435546-1.7666015-.7163086 0-1.2304688.3339843-1.4809571.9272461h-.0263672v-1.9072266c0-.4130859-.2329101-.6591797-.6284179-.6591797s-.6328125.2460938-.6328125.6591797v5.203125c0 .4394531.2680664.6679688.6416015.6679688z"/><path d="m43.5454102 39.7236328c.9096679 0 1.6391601-.3427734 1.9511718-.9228516.0571289-.1054687.0878907-.2109374.0878907-.3120117 0-.2944336-.2241211-.4702148-.5009766-.4702148-.1669922 0-.28125.0483398-.4174805.1889648-.3471679.4086914-.6547851.5668946-1.125.5668946-.6503906 0-1.0722656-.4570313-1.0722656-1.1557618v-.0571289h2.6894531c.3559571 0 .5581055-.2021484.5581055-.5581054 0-1.2788086-.8964844-2.1928711-2.2324219-2.1928711-1.3930664 0-2.2763672.9624023-2.2763672 2.4785156 0 1.5249023.8657227 2.4345703 2.3378907 2.4345703zm-1.0634766-2.9487305c.0439453-.6020507.4526367-1.0151367 1.0151367-1.0151367s.9580078.3999024.984375 1.0151367z"/><path d="m47.0170898 39.7148438c.3911133 0 .6416016-.2416993.6416016-.6679688v-2.0917969c0-.5581054.206543-.8876953.7910156-.8964843.2504883-.0043946.4350586-.0615235.5581055-.1669922.1230469-.1054688.1845703-.2592774.1845703-.4614258 0-.2197266-.0615234-.3779297-.1845703-.4746094-.0922852-.0791016-.2285156-.1186523-.3999023-.1186523-.4702149 0-.8569336.3471679-.9799805.9316406h-.0263672v-.3076172c0-.4086914-.2460937-.6459961-.6064453-.6459961-.3691406 0-.6196289.2373047-.6196289.6459961v3.5859375c0 .4262695.2548828.6679688.6416015.6679688z"/><path d="m1.07226562 50.7148438c.37792969 0 .64160157-.2285157.64160157-.6679688v-5.1899414c0-.4394531-.26367188-.6723633-.64160157-.6723633-.37353515 0-.64160156.2329102-.64160156.6723633v5.1899414c0 .4394531.26806641.6679688.64160156.6679688z"/><path d="m3.24316406 45.3271484c.38671875 0 .68554688-.2944336.68554688-.6635742 0-.3735351-.29882813-.6635742-.68554688-.6635742s-.68554687.2900391-.68554687.6635742c0 .3691406.29882812.6635742.68554687.6635742zm0 5.3876954c.39550782 0 .64160156-.2504883.64160156-.6679688v-3.5595703c0-.4174805-.24609374-.6723633-.64160156-.6723633-.39990234 0-.64160156.2548828-.64160156.6723633v3.5595703c0 .4174805.24169922.6679688.64160156.6679688z"/><path d="m5.37890625 50.7148438c.37792969 0 .64160156-.2285157.64160156-.6679688v-2.1269531c0-.6108399.3647461-1.0327149.94042969-1.0327149s.86572266.3515625.86572266.9667969v2.1928711c0 .4394531.26367187.6679688.64160156.6679688.37353516 0 .64160156-.2285157.64160156-.6679688v-2.4609375c0-1.1030273-.58886719-1.762207-1.63476562-1.762207-.72509766 0-1.19970704.3208007-1.45019532.9052734h-.02636718v-.2636719c0-.4042968-.25488282-.6503906-.64160157-.6503906s-.6196289.2460938-.6196289.6459961v3.5859375c0 .4394531.2680664.6679688.64160156.6679688z"/><path d="m10.5952148 50.7148438c.3779297 0 .6416016-.2285157.6416016-.6679688v-.9536133l.4086914-.3779297 1.2084961 1.5996094c.2021484.3032227.355957.3999024.628418.3999024.3603515 0 .6108398-.2373047.6108398-.5800782 0-.1669922-.0395508-.28125-.1801758-.4702148l-1.3139648-1.6743164 1.199707-1.1337891c.1845703-.1713867.2416992-.2900391.2416992-.4833984 0-.3164063-.2416992-.5581055-.571289-.5581055-.1933594 0-.3383789.074707-.5097656.2548828l-1.7050782 1.7094727h-.0175781v-2.9223633c0-.4394531-.2636719-.6723633-.6416016-.6723633-.3735351 0-.64160152.2329102-.64160152.6723633v5.1899414c0 .4394531.26806642.6679688.64160152.6679688z"/><path d="m16.8881836 49.418457c0 .8305664.4350586 1.256836 1.2919922 1.256836h.0439453c.5405273 0 .909668-.1933594.909668-.5712891 0-.2988281-.1713868-.4306641-.487793-.4658203l-.0834961-.0087891c-.2768555-.0219726-.3911133-.1625976-.3911133-.496582v-2.2543945h.4526367c.3032227 0 .4921875-.1889649.4921875-.4833985s-.1889648-.4833984-.4921875-.4833984h-.4526367v-.5229492c0-.413086-.2416992-.6679688-.6416015-.6679688-.3999024 0-.6416016.2548828-.6416016.6679688v.5229492h-.2460938c-.3032226 0-.496582.1845703-.496582.4833984 0 .2988282.1933594.4833985.496582.4833985h.2460938z"/><path d="m21.8408203 50.7236328c1.4238281 0 2.3334961-.909668 2.3334961-2.4609375 0-1.5292969-.9228516-2.4521484-2.3334961-2.4521484s-2.3334961.9272461-2.3334961 2.4521484c0 1.546875.909668 2.4609375 2.3334961 2.4609375zm0-.9799805c-.6328125 0-1.0327148-.5317382-1.0327148-1.4765625 0-.9360351.4086914-1.4765625 1.0327148-1.4765625.6240235 0 1.0283203.5405274 1.0283203 1.4765625 0 .9448243-.3999023 1.4765625-1.0283203 1.4765625z"/><path d="m26.9560547 49.418457c0 .8305664.4350586 1.256836 1.2919922 1.256836h.0439453c.5405273 0 .909668-.1933594.909668-.5712891 0-.2988281-.1713868-.4306641-.487793-.4658203l-.0834961-.0087891c-.2768555-.0219726-.3911133-.1625976-.3911133-.496582v-2.2543945h.4526367c.3032227 0 .4921875-.1889649.4921875-.4833985s-.1889648-.4833984-.4921875-.4833984h-.4526367v-.5229492c0-.413086-.2416992-.6679688-.6416016-.6679688-.3999023 0-.6416015.2548828-.6416015.6679688v.5229492h-.2460938c-.3032226 0-.496582.1845703-.496582.4833984 0 .2988282.1933594.4833985.496582.4833985h.2460938z"/><path d="m30.4848633 50.7148438c.3779297 0 .6416015-.2285157.6416015-.6679688v-2.1137695c0-.6196289.3559571-1.0458985.9624024-1.0458985.5844726 0 .8833008.3691407.8833008.975586v2.184082c0 .4394531.2680664.6679688.6416015.6679688.3779297 0 .6416016-.2285157.6416016-.6679688v-2.456543c0-1.0898437-.5976563-1.7666015-1.6435547-1.7666015-.7163086 0-1.2304687.3339843-1.480957.9272461h-.0263672v-1.9072266c0-.4130859-.2329102-.6591797-.628418-.6591797s-.6328125.2460938-.6328125.6591797v5.203125c0 .4394531.2680664.6679688.6416016.6679688z"/><path d="m37.2392578 50.7236328c.909668 0 1.6391602-.3427734 1.9511719-.9228516.0571289-.1054687.0878906-.2109374.0878906-.3120117 0-.2944336-.2241211-.4702148-.5009765-.4702148-.1669922 0-.28125.0483398-.4174805.1889648-.347168.4086914-.6547852.5668946-1.125.5668946-.6503906 0-1.0722656-.4570313-1.0722656-1.1557618v-.0571289h2.6894531c.355957 0 .5581054-.2021484.5581054-.5581054 0-1.2788086-.8964843-2.1928711-2.2324218-2.1928711-1.3930664 0-2.2763672.9624023-2.2763672 2.4785156 0 1.5249023.8657226 2.4345703 2.3378906 2.4345703zm-1.0634766-2.9487305c.0439454-.6020507.4526368-1.0151367 1.0151368-1.0151367s.9580078.3999024.984375 1.0151367z"/><path d="m.74267578 60.418457c0 .8305664.4350586 1.256836 1.29199219 1.256836h.04394531c.54052734 0 .90966797-.1933594.90966797-.5712891 0-.2988281-.17138672-.4306641-.48779297-.4658203l-.08349609-.0087891c-.27685547-.0219726-.39111328-.1625976-.39111328-.496582v-2.2543945h.45263671c.30322266 0 .4921875-.1889649.4921875-.4833985s-.18896484-.4833984-.4921875-.4833984h-.45263671v-.5229492c0-.413086-.24169922-.6679688-.64160157-.6679688-.39990234 0-.64160156.2548828-.64160156.6679688v.5229492h-.24609375c-.30322265 0-.49658203.1845703-.49658203.4833984 0 .2988282.19335938.4833985.49658203.4833985h.24609375z"/><path d="m4.27148438 61.7148438c.37792968 0 .64160156-.2285157.64160156-.6679688v-2.1137695c0-.6196289.35595703-1.0458985.96240234-1.0458985.58447266 0 .88330078.3691407.88330078.975586v2.184082c0 .4394531.26806641.6679688.64160156.6679688.37792969 0 .64160157-.2285157.64160157-.6679688v-2.456543c0-1.0898437-.59765625-1.7666015-1.64355469-1.7666015-.71630859 0-1.23046875.3339843-1.48095703.9272461h-.02636719v-1.9072266c0-.4130859-.23291016-.6591797-.62841797-.6591797s-.6328125.2460938-.6328125.6591797v5.203125c0 .4394531.26806641.6679688.64160157.6679688z"/><path d="m9.52294922 56.3271484c.38671875 0 .68554688-.2944336.68554688-.6635742 0-.3735351-.29882813-.6635742-.68554688-.6635742s-.68554688.2900391-.68554688.6635742c0 .3691406.29882813.6635742.68554688.6635742zm0 5.3876954c.39550781 0 .64160158-.2504883.64160158-.6679688v-3.5595703c0-.4174805-.24609377-.6723633-.64160158-.6723633-.39990234 0-.64160156.2548828-.64160156.6723633v3.5595703c0 .4174805.24169922.6679688.64160156.6679688z"/><path d="m11.6586914 61.7148438c.3911133 0 .6416016-.2416993.6416016-.6679688v-2.0917969c0-.5581054.2065429-.8876953.7910156-.8964843.2504883-.0043946.4350586-.0615235.5581055-.1669922.1230468-.1054688.1845703-.2592774.1845703-.4614258 0-.2197266-.0615235-.3779297-.1845703-.4746094-.0922852-.0791016-.2285157-.1186523-.3999024-.1186523-.4702148 0-.8569336.3471679-.9799805.9316406h-.0263671v-.3076172c0-.4086914-.2460938-.6459961-.6064453-.6459961-.3691407 0-.619629.2373047-.619629.6459961v3.5859375c0 .4262695.2548829.6679688.6416016.6679688z"/><path d="m15.8862305 61.6972656c.7250976 0 1.2436523-.3779297 1.4501953-.9052734h.0219726v.2724609c0 .4306641.2768555.6503907.6459961.6503907.3735352 0 .6372071-.2241211.6372071-.6503907v-5.2075195c0-.4394531-.2636719-.6723633-.6416016-.6723633-.3735352 0-.6416016.2329102-.6416016.6723633v1.8632812h-.0263672c-.2285156-.5229492-.7558593-.8833007-1.4370117-.8833007-1.1821289 0-1.9291992.9272461-1.9291992 2.4213867 0 1.5073242.7426758 2.4389648 1.9204102 2.4389648zm.4350586-1.0327148c-.6459961 0-1.0415039-.5317383-1.0415039-1.397461 0-.8613281.3955078-1.4018554 1.0415039-1.4018554.637207 0 1.0458984.5449218 1.0458984 1.4018554 0 .8613282-.4086914 1.397461-1.0458984 1.397461z"/><path d="m21.9199219 63.3012695c.3779297 0 .6416015-.2285156.6416015-.6679687v-1.8017578h.0263672c.2504883.5317382.7778321.8657226 1.4633789.8657226 1.1777344 0 1.9072266-.9140625 1.9072266-2.4301758 0-1.5205078-.7338867-2.4301757-1.9291992-2.4301757-.6811524 0-1.2041016.3427734-1.4589844.8964843h-.0263672v-.2548828c0-.4350586-.2636719-.6635742-.6328125-.6635742s-.6328125.2285156-.6328125.6591797v5.1591797c0 .4394531.2680664.6679687.6416016.6679687zm1.6787109-2.6367187c-.628418 0-1.0415039-.5449219-1.0415039-1.397461 0-.84375.4130859-1.4018554 1.0415039-1.4018554.6416016 0 1.0458984.5493164 1.0458984 1.4018554 0 .8569336-.4042968 1.397461-1.0458984 1.397461z"/><path d="m28.0107422 61.6972656c.5888672 0 1.1777344-.2944336 1.4414062-.7954101h.0263672v.2416992c.0263672.3779297.2680664.5712891.6152344.5712891.3647461 0 .6240234-.2197266.6240234-.6459961v-2.6850586c0-.9492188-.7866211-1.5732422-1.9951172-1.5732422-.9755859 0-1.7314453.3471679-1.9511718.9096679-.0439453.0966797-.065918.1889649-.065918.2900391 0 .2900391.2241211.4921875.5361328.4921875.206543 0 .3691406-.0791016.5097656-.2373047.2856446-.3691406.5229493-.496582.9140625-.496582.4833985 0 .7910157.2548828.7910157.6943359v.3120117l-1.1865235.0703125c-1.1777343.0703125-1.836914.5668946-1.836914 1.4238282 0 .8481445.6811523 1.4282226 1.5776367 1.4282226zm.421875-.9272461c-.4306641 0-.7207031-.2197265-.7207031-.571289 0-.3339844.2724609-.5493164.7514648-.5844727l.9931641-.0615234v.3427734c0 .5097656-.4614258.8745117-1.0239258.8745117z"/><path d="m33.6489258 63.3935547c1.5161133.0087891 2.4038086-.7294922 2.4038086-1.9555664v-3.9726563c0-.4350586-.2680664-.6503906-.6372071-.6503906-.3691406 0-.6459961.215332-.6459961.6503906v.2592774h-.0263671c-.2460938-.5317383-.7602539-.8876953-1.4370118-.8876953-1.2128906 0-1.9335937.8745117-1.9335937 2.3510742 0 1.4370117.7382812 2.3334961 1.9116211 2.3334961.6811523 0 1.2304687-.3383789 1.4501953-.84375h.0263672v.7514648c0 .5888672-.413086.975586-1.116211.9711914-.4262695-.0043945-.7602539-.1845703-1.1074218-.5141601-.1450196-.131836-.2768555-.1845703-.4438477-.1845703-.3208008 0-.5229492.2021484-.5229492.4702148 0 .1186523.0263672.2373047.0966797.355957.3032226.4965821 1.0195312.8613282 1.9819336.8657227zm.0703125-2.8256836c-.6372071 0-1.0327149-.5053711-1.0327149-1.3666992 0-.8525391.3999024-1.3886719 1.0327149-1.3886719.6416015 0 1.0546875.5449219 1.0546875 1.3930664 0 .8525391-.413086 1.3623047-1.0546875 1.3623047z"/><path d="m39.0498047 61.7236328c.909668 0 1.6391601-.3427734 1.9511719-.9228516.0571289-.1054687.0878906-.2109374.0878906-.3120117 0-.2944336-.2241211-.4702148-.5009766-.4702148-.1669922 0-.28125.0483398-.4174804.1889648-.347168.4086914-.6547852.5668946-1.125.5668946-.6503907 0-1.0722657-.4570313-1.0722657-1.1557618v-.0571289h2.6894532c.355957 0 .5581054-.2021484.5581054-.5581054 0-1.2788086-.8964843-2.1928711-2.2324219-2.1928711-1.3930664 0-2.2763671.9624023-2.2763671 2.4785156 0 1.5249023.8657226 2.4345703 2.3378906 2.4345703zm-1.0634766-2.9487305c.0439453-.6020507.4526367-1.0151367 1.0151367-1.0151367s.9580079.3999024.984375 1.0151367z"/></g><g transform="translate(41.79599 147.625976)"><path d="m0 0h2.1796875v1.33496094h-2.1796875z"/><path d="m2.1796875 0h2.15771484v1.33496094h-2.15771484z"/><path d="m4.33740234 0h5.18554688v1.33496094h-5.18554688z"/><path d="m9.52294922 0h4.84277348v1.33496094h-4.84277348z"/><path d="m0 33h2.1796875v1.3349609h-2.1796875z"/><path d="m2.1796875 33h2.15771484v1.3349609h-2.15771484z"/><path d="m4.33740234 33h5.18554688v1.3349609h-5.18554688z"/><path d="m9.52294922 33h4.84277348v1.3349609h-4.84277348z"/></g></g><g><g transform="translate(166.813568 21.377441)"><path d="m2.68945312 6.70605469c.41748047 0 .66357422-.25488281.66357422-.68994141v-4.63623047h1.31396485c.35595703 0 .59765625-.20654297.59765625-.5493164 0-.34277344-.23730469-.54931641-.59765625-.54931641h-3.9506836c-.36474609 0-.60205078.20654297-.60205078.54931641 0 .34277343.24169922.5493164.60205078.5493164h1.30957032v4.63623047c0 .4350586.24609375.68994141.66357421.68994141z"/><path d="m6.48632812 6.71484375c.37792969 0 .64160157-.22851563.64160157-.66796875v-2.11376953c0-.61962891.35595703-1.04589844.96240234-1.04589844.58447266 0 .88330078.36914063.88330078.97558594v2.18408203c0 .43945312.26806641.66796875.64160157.66796875.37792968 0 .64160152-.22851563.64160152-.66796875v-2.45654297c0-1.08984375-.59765621-1.76660156-1.64355465-1.76660156-.71630859 0-1.23046875.33398437-1.48095703.92724609h-.02636719v-1.90722656c0-.41308594-.23291015-.65917969-.62841797-.65917969-.39550781 0-.6328125.24609375-.6328125.65917969v5.203125c0 .43945312.26806641.66796875.64160156.66796875z"/><path d="m11.737793 1.32714844c.3867187 0 .6855468-.2944336.6855468-.66357422 0-.37353516-.2988281-.66357422-.6855468-.66357422-.3867188 0-.6855469.29003906-.6855469.66357422 0 .36914062.2988281.66357422.6855469.66357422zm0 5.38769531c.3955078 0 .6416015-.25048828.6416015-.66796875v-3.55957031c0-.41748047-.2460937-.67236328-.6416015-.67236328-.3999024 0-.6416016.25488281-.6416016.67236328v3.55957031c0 .41748047.2416992.66796875.6416016.66796875z"/><path d="m15.1523438 6.72363281c1.2436523 0 2.0830078-.60644531 2.0830078-1.54248047 0-.703125-.413086-1.07226562-1.4150391-1.28320312l-.777832-.16699219c-.4702149-.10107422-.6547852-.26367187-.6547852-.50976562 0-.30322266.3032227-.50976563.7382813-.50976563.4614257 0 .7163086.21972656.9404296.5053711.1142579.13623046.2988282.1977539.4658204.1977539.3295898 0 .4921875-.18017578.4921875-.43945312 0-.06152344-.0131836-.12304688-.0307618-.18896485-.1538085-.53173828-.8701171-.97558593-1.8457031-.97558593-1.2216797 0-1.9995117.58007812-1.9995117 1.48095703 0 .69873047.4658203 1.16894531 1.3886719 1.36669921l.7910156.16699219c.4614258.10107422.6240234.23730469.6240234.4921875 0 .31201172-.3032226.5053711-.7690429.5053711-.487793 0-.7778321-.14941407-1.0283203-.47900391-.1757813-.19775391-.3515625-.29003906-.5581055-.29003906-.2988281 0-.5185547.1977539-.5185547.4921875 0 .0703125.0175781.15380859.0483398.23730468.2241211.55371094.9448243.94042969 2.025879.94042969z"/><path d="m20.3115234 1.32714844c.3867188 0 .6855469-.2944336.6855469-.66357422 0-.37353516-.2988281-.66357422-.6855469-.66357422-.3867187 0-.6855468.29003906-.6855468.66357422 0 .36914062.2988281.66357422.6855468.66357422zm0 5.38769531c.3955078 0 .6416016-.25048828.6416016-.66796875v-3.55957031c0-.41748047-.2460938-.67236328-.6416016-.67236328-.3999023 0-.6416015.25488281-.6416015.67236328v3.55957031c0 .41748047.2416992.66796875.6416015.66796875z"/><path d="m23.7260742 6.72363281c1.2436524 0 2.0830078-.60644531 2.0830078-1.54248047 0-.703125-.4130859-1.07226562-1.415039-1.28320312l-.7778321-.16699219c-.4702148-.10107422-.6547851-.26367187-.6547851-.50976562 0-.30322266.3032226-.50976563.7382812-.50976563.4614258 0 .7163086.21972656.9404297.5053711.1142578.13623046.2988281.1977539.4658203.1977539.3295899 0 .4921875-.18017578.4921875-.43945312 0-.06152344-.0131836-.12304688-.0307617-.18896485-.1538086-.53173828-.8701172-.97558593-1.8457031-.97558593-1.2216797 0-1.9995117.58007812-1.9995117 1.48095703 0 .69873047.4658203 1.16894531 1.3886718 1.36669921l.7910157.16699219c.4614257.10107422.6240234.23730469.6240234.4921875 0 .31201172-.3032227.5053711-.769043.5053711-.4877929 0-.777832-.14941407-1.0283203-.47900391-.1757812-.19775391-.3515625-.29003906-.5581054-.29003906-.2988282 0-.5185547.1977539-.5185547.4921875 0 .0703125.0175781.15380859.0483398.23730468.2241211.55371094.9448242.94042969 2.0258789.94042969z"/><path d="m30.1420898 6.72363281c1.2436524 0 2.0830079-.60644531 2.0830079-1.54248047 0-.703125-.413086-1.07226562-1.4150391-1.28320312l-.777832-.16699219c-.4702149-.10107422-.6547852-.26367187-.6547852-.50976562 0-.30322266.3032227-.50976563.7382813-.50976563.4614257 0 .7163085.21972656.9404296.5053711.1142579.13623046.2988282.1977539.4658204.1977539.3295898 0 .4921875-.18017578.4921875-.43945312 0-.06152344-.0131836-.12304688-.0307618-.18896485-.1538086-.53173828-.8701172-.97558593-1.8457031-.97558593-1.2216797 0-1.9995117.58007812-1.9995117 1.48095703 0 .69873047.4658203 1.16894531 1.3886719 1.36669921l.7910156.16699219c.4614258.10107422.6240234.23730469.6240234.4921875 0 .31201172-.3032226.5053711-.7690429.5053711-.487793 0-.7778321-.14941407-1.0283204-.47900391-.1757812-.19775391-.3515624-.29003906-.5581054-.29003906-.2988281 0-.5185547.1977539-.5185547.4921875 0 .0703125.0175781.15380859.0483398.23730468.2241211.55371094.9448243.94042969 2.0258789.94042969z"/><path d="m35.0200195 6.72363281c1.4238282 0 2.3334961-.90966797 2.3334961-2.4609375 0-1.52929687-.9228515-2.45214843-2.3334961-2.45214843-1.4106445 0-2.3334961.92724609-2.3334961 2.45214843 0 1.546875.909668 2.4609375 2.3334961 2.4609375zm0-.97998047c-.6328125 0-1.0327148-.53173828-1.0327148-1.4765625 0-.93603515.4086914-1.4765625 1.0327148-1.4765625.6240235 0 1.0283203.54052735 1.0283203 1.4765625 0 .94482422-.3999023 1.4765625-1.0283203 1.4765625z"/><path d="m38.6542969 6.71484375c.3779297 0 .6416015-.23291016.6416015-.66796875v-2.26757812c0-.52734376.3295899-.89648438.8173828-.89648438.4746094 0 .760254.29882812.760254.80419922v2.35986328c0 .43505859.2373046.66796875.6152343.66796875.3823243 0 .6196289-.23291016.6196289-.66796875v-2.28515625c0-.52294922.3208008-.87890625.8085938-.87890625.496582 0 .769043.29882812.769043.84375v2.3203125c0 .43505859.2592773.66796875.637207.66796875.3823242 0 .6459961-.23291016.6459961-.66796875v-2.64111328c0-.94921875-.6196289-1.58203125-1.5424805-1.58203125-.6899414 0-1.2524414.37353515-1.4633789.96679687h-.0263672c-.1582031-.61523437-.6328125-.96679687-1.3139648-.96679687-.6416016 0-1.1469727.37353515-1.3447266.94042969h-.0263672v-.2944336c0-.43066406-.2548828-.65478515-.6196289-.65478515s-.6196289.22412109-.6196289.65478515v3.57714844c0 .43505859.2592774.66796875.6416016.66796875z"/><path d="m47.9487305 6.72363281c.9096679 0 1.6391601-.34277343 1.9511718-.92285156.0571289-.10546875.0878907-.2109375.0878907-.31201172 0-.29443359-.2241211-.47021484-.5009766-.47021484-.1669922 0-.28125.04833984-.4174805.18896484-.3471679.40869141-.6547851.56689453-1.125.56689453-.6503906 0-1.0722656-.45703125-1.0722656-1.15576172v-.0571289h2.6894531c.3559571 0 .5581055-.20214844.5581055-.55810547 0-1.27880859-.8964844-2.19287109-2.2324219-2.19287109-1.3930664 0-2.2763672.96240234-2.2763672 2.47851562 0 1.52490234.8657227 2.43457031 2.3378907 2.43457031zm-1.0634766-2.94873047c.0439453-.60205078.4526367-1.01513672 1.0151367-1.01513672s.9580078.39990235.984375 1.01513672z"/><path d="m2.56201172 17.7236328c1.42382812 0 2.33349609-.909668 2.33349609-2.4609375 0-1.5292969-.92285156-2.4521484-2.33349609-2.4521484s-2.33349609.9272461-2.33349609 2.4521484c0 1.546875.90966796 2.4609375 2.33349609 2.4609375zm0-.9799805c-.6328125 0-1.03271484-.5317382-1.03271484-1.4765625 0-.9360351.4086914-1.4765625 1.03271484-1.4765625s1.02832031.5405274 1.02832031 1.4765625c0 .9448243-.39990234 1.4765625-1.02832031 1.4765625z"/><path d="m5.89746094 16.418457c0 .8305664.43505859 1.256836 1.29199218 1.256836h.04394532c.54052734 0 .90966797-.1933594.90966797-.5712891 0-.2988281-.17138672-.4306641-.48779297-.4658203l-.0834961-.0087891c-.27685546-.0219726-.39111328-.1625976-.39111328-.496582v-2.2543945h.45263672c.30322266 0 .4921875-.1889649.4921875-.4833985s-.18896484-.4833984-.4921875-.4833984h-.45263672v-.5229492c0-.413086-.24169922-.6679688-.64160156-.6679688s-.64160156.2548828-.64160156.6679688v.5229492h-.24609375c-.30322266 0-.49658203.1845703-.49658203.4833984 0 .2988282.19335937.4833985.49658203.4833985h.24609375z"/><path d="m9.42626953 17.7148438c.37792969 0 .64160157-.2285157.64160157-.6679688v-2.1137695c0-.6196289.355957-1.0458985.9624023-1.0458985.5844727 0 .8833008.3691407.8833008.975586v2.184082c0 .4394531.2680664.6679688.6416016.6679688.3779297 0 .6416015-.2285157.6416015-.6679688v-2.456543c0-1.0898437-.5976562-1.7666015-1.6435546-1.7666015-.7163086 0-1.2304688.3339843-1.4809571.9272461h-.0263672v-1.9072266c0-.4130859-.23291012-.6591797-.62841793-.6591797s-.6328125.2460938-.6328125.6591797v5.203125c0 .4394531.26806641.6679688.64160156.6679688z"/><path d="m16.1806641 17.7236328c.9096679 0 1.6391601-.3427734 1.9511718-.9228516.0571289-.1054687.0878907-.2109374.0878907-.3120117 0-.2944336-.2241211-.4702148-.5009766-.4702148-.1669922 0-.28125.0483398-.4174805.1889648-.3471679.4086914-.6547851.5668946-1.125.5668946-.6503906 0-1.0722656-.4570313-1.0722656-1.1557618v-.0571289h2.6894531c.3559571 0 .5581055-.2021484.5581055-.5581054 0-1.2788086-.8964844-2.1928711-2.2324219-2.1928711-1.3930664 0-2.2763672.9624023-2.2763672 2.4785156 0 1.5249023.8657227 2.4345703 2.3378907 2.4345703zm-1.0634766-2.9487305c.0439453-.6020507.4526367-1.0151367 1.0151367-1.0151367s.9580078.3999024.984375 1.0151367z"/><path d="m19.6523438 17.7148438c.3911132 0 .6416015-.2416993.6416015-.6679688v-2.0917969c0-.5581054.206543-.8876953.7910156-.8964843.2504883-.0043946.4350586-.0615235.5581055-.1669922.1230469-.1054688.1845703-.2592774.1845703-.4614258 0-.2197266-.0615234-.3779297-.1845703-.4746094-.0922852-.0791016-.2285156-.1186523-.3999023-.1186523-.4702149 0-.8569336.3471679-.9799805.9316406h-.0263672v-.3076172c0-.4086914-.2460937-.6459961-.6064453-.6459961-.3691406 0-.6196289.2373047-.6196289.6459961v3.5859375c0 .4262695.2548828.6679688.6416016.6679688z"/><path d="m24.7060547 19.3012695c.3779297 0 .6416015-.2285156.6416015-.6679687v-1.8017578h.0263672c.2504883.5317382.7778321.8657226 1.4633789.8657226 1.1777344 0 1.9072266-.9140625 1.9072266-2.4301758 0-1.5205078-.7338867-2.4301757-1.9291992-2.4301757-.6811524 0-1.2041016.3427734-1.4589844.8964843h-.0263672v-.2548828c0-.4350586-.2636719-.6635742-.6328125-.6635742s-.6328125.2285156-.6328125.6591797v5.1591797c0 .4394531.2680664.6679687.6416016.6679687zm1.6787109-2.6367187c-.6284179 0-1.0415039-.5449219-1.0415039-1.397461 0-.84375.413086-1.4018554 1.0415039-1.4018554.6416016 0 1.0458985.5493164 1.0458985 1.4018554 0 .8569336-.4042969 1.397461-1.0458985 1.397461z"/><path d="m30.796875 17.6972656c.5888672 0 1.1777344-.2944336 1.4414062-.7954101h.0263672v.2416992c.0263672.3779297.2680664.5712891.6152344.5712891.3647461 0 .6240234-.2197266.6240234-.6459961v-2.6850586c0-.9492188-.786621-1.5732422-1.9951171-1.5732422-.975586 0-1.7314453.3471679-1.9511719.9096679-.0439453.0966797-.065918.1889649-.065918.2900391 0 .2900391.2241211.4921875.5361328.4921875.206543 0 .3691407-.0791016.5097657-.2373047.2856445-.3691406.5229492-.496582.9140625-.496582.4833984 0 .7910156.2548828.7910156.6943359v.3120117l-1.1865235.0703125c-1.1777343.0703125-1.836914.5668946-1.836914 1.4238282 0 .8481445.6811523 1.4282226 1.5776367 1.4282226zm.421875-.9272461c-.4306641 0-.7207031-.2197265-.7207031-.571289 0-.3339844.2724609-.5493164.7514648-.5844727l.9931641-.0615234v.3427734c0 .5097656-.4614258.8745117-1.0239258.8745117z"/><path d="m36.4350586 19.3935547c1.5161133.0087891 2.4038086-.7294922 2.4038086-1.9555664v-3.9726563c0-.4350586-.2680664-.6503906-.637207-.6503906-.3691407 0-.6459961.215332-.6459961.6503906v.2592774h-.0263672c-.2460938-.5317383-.7602539-.8876953-1.4370117-.8876953-1.2128907 0-1.9335938.8745117-1.9335938 2.3510742 0 1.4370117.7382813 2.3334961 1.9116211 2.3334961.6811523 0 1.2304687-.3383789 1.4501953-.84375h.0263672v.7514648c0 .5888672-.4130859.975586-1.1162109.9711914-.4262696-.0043945-.7602539-.1845703-1.1074219-.5141601-.1450195-.131836-.2768555-.1845703-.4438477-.1845703-.3208007 0-.5229492.2021484-.5229492.4702148 0 .1186523.0263672.2373047.0966797.355957.3032227.4965821 1.0195312.8613282 1.9819336.8657227zm.0703125-2.8256836c-.637207 0-1.0327149-.5053711-1.0327149-1.3666992 0-.8525391.3999024-1.3886719 1.0327149-1.3886719.6416016 0 1.0546875.5449219 1.0546875 1.3930664 0 .8525391-.4130859 1.3623047-1.0546875 1.3623047z"/><path d="m41.8359375 17.7236328c.909668 0 1.6391602-.3427734 1.9511719-.9228516.0571289-.1054687.0878906-.2109374.0878906-.3120117 0-.2944336-.2241211-.4702148-.5009766-.4702148-.1669922 0-.28125.0483398-.4174804.1889648-.347168.4086914-.6547852.5668946-1.125.5668946-.6503907 0-1.0722657-.4570313-1.0722657-1.1557618v-.0571289h2.6894532c.355957 0 .5581054-.2021484.5581054-.5581054 0-1.2788086-.8964843-2.1928711-2.2324218-2.1928711-1.3930664 0-2.2763672.9624023-2.2763672 2.4785156 0 1.5249023.8657226 2.4345703 2.3378906 2.4345703zm-1.0634766-2.9487305c.0439453-.6020507.4526368-1.0151367 1.0151368-1.0151367s.9580078.3999024.984375 1.0151367z"/><path d="m1.98193359 28.7148438c.45703125 0 .71191407-.206543.82177735-.6723633l.71191406-2.7509766h.02636719l.71630859 2.7421875c.10986328.4790039.36035156.6811524.83056641.6811524.44384765 0 .6899414-.2109376.82177734-.6767579l.94921875-3.2871093c.04833984-.1669922.0703125-.272461.0703125-.3911133 0-.3208008-.25048828-.5449219-.60644531-.5449219-.31640625 0-.52294922.1933594-.59326172.5361328l-.703125 3.0541992h-.02636719l-.73388672-3.0014648c-.08349609-.3823242-.33398437-.5888672-.71630859-.5888672-.39111328 0-.64160156.206543-.72509766.5888672l-.72949218 3.0014648h-.02636719l-.69873047-3.0454101c-.07470703-.3515625-.28125-.5449219-.60205078-.5449219-.36035156 0-.61962891.2285156-.61962891.5493164 0 .1230469.02197266.2285156.0703125.3955078l.94921875 3.2827149c.13623047.4658203.36914063.6723633.81298828.6723633z"/><path d="m8.17382812 23.3271484c.38671876 0 .68554688-.2944336.68554688-.6635742 0-.3735351-.29882812-.6635742-.68554688-.6635742-.38671874 0-.68554687.2900391-.68554687.6635742 0 .3691406.29882813.6635742.68554687.6635742zm0 5.3876954c.39550782 0 .64160157-.2504883.64160157-.6679688v-3.5595703c0-.4174805-.24609375-.6723633-.64160157-.6723633-.39990234 0-.64160156.2548828-.64160156.6723633v3.5595703c0 .4174805.24169922.6679688.64160156.6679688z"/><path d="m10.0107422 27.418457c0 .8305664.4350586 1.256836 1.2919922 1.256836h.0439453c.5405273 0 .909668-.1933594.909668-.5712891 0-.2988281-.1713868-.4306641-.487793-.4658203l-.0834961-.0087891c-.2768555-.0219726-.3911133-.1625976-.3911133-.496582v-2.2543945h.4526367c.3032227 0 .4921875-.1889649.4921875-.4833985s-.1889648-.4833984-.4921875-.4833984h-.4526367v-.5229492c0-.413086-.2416992-.6679688-.6416015-.6679688-.3999024 0-.6416016.2548828-.6416016.6679688v.5229492h-.24609376c-.30322266 0-.49658203.1845703-.49658203.4833984 0 .2988282.19335937.4833985.49658203.4833985h.24609376z"/><path d="m13.5395508 28.7148438c.3779297 0 .6416015-.2285157.6416015-.6679688v-2.1137695c0-.6196289.3559571-1.0458985.9624024-1.0458985.5844726 0 .8833008.3691407.8833008.975586v2.184082c0 .4394531.2680664.6679688.6416015.6679688.3779297 0 .6416016-.2285157.6416016-.6679688v-2.456543c0-1.0898437-.5976563-1.7666015-1.6435547-1.7666015-.7163086 0-1.2304687.3339843-1.480957.9272461h-.0263672v-1.9072266c0-.4130859-.2329102-.6591797-.628418-.6591797s-.6328125.2460938-.6328125.6591797v5.203125c0 .4394531.2680664.6679688.6416016.6679688z"/><path d="m21.300293 28.6972656c.5888672 0 1.1777343-.2944336 1.4414062-.7954101h.0263672v.2416992c.0263672.3779297.2680664.5712891.6152344.5712891.3647461 0 .6240234-.2197266.6240234-.6459961v-2.6850586c0-.9492188-.7866211-1.5732422-1.9951172-1.5732422-.9755859 0-1.7314453.3471679-1.9511718.9096679-.0439454.0966797-.065918.1889649-.065918.2900391 0 .2900391.2241211.4921875.5361328.4921875.206543 0 .3691406-.0791016.5097656-.2373047.2856446-.3691406.5229492-.496582.9140625-.496582.4833985 0 .7910157.2548828.7910157.6943359v.3120117l-1.1865235.0703125c-1.1777344.0703125-1.8369141.5668946-1.8369141 1.4238282 0 .8481445.6811524 1.4282226 1.5776368 1.4282226zm.421875-.9272461c-.4306641 0-.7207032-.2197265-.7207032-.571289 0-.3339844.272461-.5493164.7514649-.5844727l.9931641-.0615234v.3427734c0 .5097656-.4614258.8745117-1.0239258.8745117z"/><path d="m27.2856445 28.7148438c.3779297 0 .6416016-.2285157.6416016-.6679688v-5.1899414c0-.4394531-.2636719-.6723633-.6416016-.6723633-.3735351 0-.6416015.2329102-.6416015.6723633v5.1899414c0 .4394531.2680664.6679688.6416015.6679688z"/><path d="m29.456543 23.3271484c.3867187 0 .6855468-.2944336.6855468-.6635742 0-.3735351-.2988281-.6635742-.6855468-.6635742-.3867188 0-.6855469.2900391-.6855469.6635742 0 .3691406.2988281.6635742.6855469.6635742zm0 5.3876954c.3955078 0 .6416015-.2504883.6416015-.6679688v-3.5595703c0-.4174805-.2460937-.6723633-.6416015-.6723633-.3999024 0-.6416016.2548828-.6416016.6723633v3.5595703c0 .4174805.2416992.6679688.6416016.6679688z"/><path d="m31.5922852 28.7148438c.3779296 0 .6416015-.2285157.6416015-.6679688v-2.1269531c0-.6108399.3647461-1.0327149.9404297-1.0327149s.8657227.3515625.8657227.9667969v2.1928711c0 .4394531.2636718.6679688.6416015.6679688.3735352 0 .6416016-.2285157.6416016-.6679688v-2.4609375c0-1.1030273-.5888672-1.762207-1.6347656-1.762207-.7250977 0-1.1997071.3208007-1.4501954.9052734h-.0263671v-.2636719c0-.4042968-.2548829-.6503906-.6416016-.6503906s-.6196289.2460938-.6196289.6459961v3.5859375c0 .4394531.2680664.6679688.6416016.6679688z"/><path d="m36.8085938 28.7148438c.3779296 0 .6416015-.2285157.6416015-.6679688v-.9536133l.4086914-.3779297 1.2084961 1.5996094c.2021484.3032227.355957.3999024.628418.3999024.3603515 0 .6108398-.2373047.6108398-.5800782 0-.1669922-.0395508-.28125-.1801758-.4702148l-1.3139648-1.6743164 1.199707-1.1337891c.1845703-.1713867.2416992-.2900391.2416992-.4833984 0-.3164063-.2416992-.5581055-.571289-.5581055-.1933594 0-.3383789.074707-.5097656.2548828l-1.7050782 1.7094727h-.0175781v-2.9223633c0-.4394531-.2636719-.6723633-.6416015-.6723633-.3735352 0-.6416016.2329102-.6416016.6723633v5.1899414c0 .4394531.2680664.6679688.6416016.6679688z"/><path d="m.74267578 38.418457c0 .8305664.4350586 1.256836 1.29199219 1.256836h.04394531c.54052734 0 .90966797-.1933594.90966797-.5712891 0-.2988281-.17138672-.4306641-.48779297-.4658203l-.08349609-.0087891c-.27685547-.0219726-.39111328-.1625976-.39111328-.496582v-2.2543945h.45263671c.30322266 0 .4921875-.1889649.4921875-.4833985s-.18896484-.4833984-.4921875-.4833984h-.45263671v-.5229492c0-.413086-.24169922-.6679688-.64160157-.6679688-.39990234 0-.64160156.2548828-.64160156.6679688v.5229492h-.24609375c-.30322265 0-.49658203.1845703-.49658203.4833984 0 .2988282.19335938.4833985.49658203.4833985h.24609375z"/><path d="m5.6953125 39.7236328c1.42382812 0 2.33349609-.909668 2.33349609-2.4609375 0-1.5292969-.92285156-2.4521484-2.33349609-2.4521484s-2.33349609.9272461-2.33349609 2.4521484c0 1.546875.90966797 2.4609375 2.33349609 2.4609375zm0-.9799805c-.6328125 0-1.03271484-.5317382-1.03271484-1.4765625 0-.9360351.4086914-1.4765625 1.03271484-1.4765625s1.02832031.5405274 1.02832031 1.4765625c0 .9448243-.39990234 1.4765625-1.02832031 1.4765625z"/><path d="m10.8105469 38.418457c0 .8305664.4350586 1.256836 1.2919922 1.256836h.0439453c.5405273 0 .9096679-.1933594.9096679-.5712891 0-.2988281-.1713867-.4306641-.4877929-.4658203l-.0834961-.0087891c-.2768555-.0219726-.3911133-.1625976-.3911133-.496582v-2.2543945h.4526367c.3032227 0 .4921875-.1889649.4921875-.4833985s-.1889648-.4833984-.4921875-.4833984h-.4526367v-.5229492c0-.413086-.2416992-.6679688-.6416016-.6679688-.3999023 0-.6416015.2548828-.6416015.6679688v.5229492h-.2460938c-.3032226 0-.496582.1845703-.496582.4833984 0 .2988282.1933594.4833985.496582.4833985h.2460938z"/><path d="m14.3393555 39.7148438c.3779297 0 .6416015-.2285157.6416015-.6679688v-2.1137695c0-.6196289.3559571-1.0458985.9624024-1.0458985.5844726 0 .8833008.3691407.8833008.975586v2.184082c0 .4394531.2680664.6679688.6416015.6679688.3779297 0 .6416016-.2285157.6416016-.6679688v-2.456543c0-1.0898437-.5976563-1.7666015-1.6435547-1.7666015-.7163086 0-1.2304688.3339843-1.480957.9272461h-.0263672v-1.9072266c0-.4130859-.2329102-.6591797-.628418-.6591797s-.6328125.2460938-.6328125.6591797v5.203125c0 .4394531.2680664.6679688.6416016.6679688z"/><path d="m21.09375 39.7236328c.909668 0 1.6391602-.3427734 1.9511719-.9228516.0571289-.1054687.0878906-.2109374.0878906-.3120117 0-.2944336-.2241211-.4702148-.5009766-.4702148-.1669921 0-.28125.0483398-.4174804.1889648-.347168.4086914-.6547852.5668946-1.125.5668946-.6503907 0-1.0722657-.4570313-1.0722657-1.1557618v-.0571289h2.6894532c.355957 0 .5581054-.2021484.5581054-.5581054 0-1.2788086-.8964843-2.1928711-2.2324218-2.1928711-1.3930664 0-2.2763672.9624023-2.2763672 2.4785156 0 1.5249023.8657226 2.4345703 2.3378906 2.4345703zm-1.0634766-2.9487305c.0439454-.6020507.4526368-1.0151367 1.0151368-1.0151367s.9580078.3999024.984375 1.0151367z"/><path d="m.74267578 49.418457c0 .8305664.4350586 1.256836 1.29199219 1.256836h.04394531c.54052734 0 .90966797-.1933594.90966797-.5712891 0-.2988281-.17138672-.4306641-.48779297-.4658203l-.08349609-.0087891c-.27685547-.0219726-.39111328-.1625976-.39111328-.496582v-2.2543945h.45263671c.30322266 0 .4921875-.1889649.4921875-.4833985s-.18896484-.4833984-.4921875-.4833984h-.45263671v-.5229492c0-.413086-.24169922-.6679688-.64160157-.6679688-.39990234 0-.64160156.2548828-.64160156.6679688v.5229492h-.24609375c-.30322265 0-.49658203.1845703-.49658203.4833984 0 .2988282.19335938.4833985.49658203.4833985h.24609375z"/><path d="m4.27148438 50.7148438c.37792968 0 .64160156-.2285157.64160156-.6679688v-2.1137695c0-.6196289.35595703-1.0458985.96240234-1.0458985.58447266 0 .88330078.3691407.88330078.975586v2.184082c0 .4394531.26806641.6679688.64160156.6679688.37792969 0 .64160157-.2285157.64160157-.6679688v-2.456543c0-1.0898437-.59765625-1.7666015-1.64355469-1.7666015-.71630859 0-1.23046875.3339843-1.48095703.9272461h-.02636719v-1.9072266c0-.4130859-.23291016-.6591797-.62841797-.6591797s-.6328125.2460938-.6328125.6591797v5.203125c0 .4394531.26806641.6679688.64160157.6679688z"/><path d="m9.52294922 45.3271484c.38671875 0 .68554688-.2944336.68554688-.6635742 0-.3735351-.29882813-.6635742-.68554688-.6635742s-.68554688.2900391-.68554688.6635742c0 .3691406.29882813.6635742.68554688.6635742zm0 5.3876954c.39550781 0 .64160158-.2504883.64160158-.6679688v-3.5595703c0-.4174805-.24609377-.6723633-.64160158-.6723633-.39990234 0-.64160156.2548828-.64160156.6723633v3.5595703c0 .4174805.24169922.6679688.64160156.6679688z"/><path d="m11.6586914 50.7148438c.3911133 0 .6416016-.2416993.6416016-.6679688v-2.0917969c0-.5581054.2065429-.8876953.7910156-.8964843.2504883-.0043946.4350586-.0615235.5581055-.1669922.1230468-.1054688.1845703-.2592774.1845703-.4614258 0-.2197266-.0615235-.3779297-.1845703-.4746094-.0922852-.0791016-.2285157-.1186523-.3999024-.1186523-.4702148 0-.8569336.3471679-.9799805.9316406h-.0263671v-.3076172c0-.4086914-.2460938-.6459961-.6064453-.6459961-.3691407 0-.619629.2373047-.619629.6459961v3.5859375c0 .4262695.2548829.6679688.6416016.6679688z"/><path d="m15.8862305 50.6972656c.7250976 0 1.2436523-.3779297 1.4501953-.9052734h.0219726v.2724609c0 .4306641.2768555.6503907.6459961.6503907.3735352 0 .6372071-.2241211.6372071-.6503907v-5.2075195c0-.4394531-.2636719-.6723633-.6416016-.6723633-.3735352 0-.6416016.2329102-.6416016.6723633v1.8632812h-.0263672c-.2285156-.5229492-.7558593-.8833007-1.4370117-.8833007-1.1821289 0-1.9291992.9272461-1.9291992 2.4213867 0 1.5073242.7426758 2.4389648 1.9204102 2.4389648zm.4350586-1.0327148c-.6459961 0-1.0415039-.5317383-1.0415039-1.397461 0-.8613281.3955078-1.4018554 1.0415039-1.4018554.637207 0 1.0458984.5449218 1.0458984 1.4018554 0 .8613282-.4086914 1.397461-1.0458984 1.397461z"/><path d="m21.9199219 52.3012695c.3779297 0 .6416015-.2285156.6416015-.6679687v-1.8017578h.0263672c.2504883.5317382.7778321.8657226 1.4633789.8657226 1.1777344 0 1.9072266-.9140625 1.9072266-2.4301758 0-1.5205078-.7338867-2.4301757-1.9291992-2.4301757-.6811524 0-1.2041016.3427734-1.4589844.8964843h-.0263672v-.2548828c0-.4350586-.2636719-.6635742-.6328125-.6635742s-.6328125.2285156-.6328125.6591797v5.1591797c0 .4394531.2680664.6679687.6416016.6679687zm1.6787109-2.6367187c-.628418 0-1.0415039-.5449219-1.0415039-1.397461 0-.84375.4130859-1.4018554 1.0415039-1.4018554.6416016 0 1.0458984.5493164 1.0458984 1.4018554 0 .8569336-.4042968 1.397461-1.0458984 1.397461z"/><path d="m28.0107422 50.6972656c.5888672 0 1.1777344-.2944336 1.4414062-.7954101h.0263672v.2416992c.0263672.3779297.2680664.5712891.6152344.5712891.3647461 0 .6240234-.2197266.6240234-.6459961v-2.6850586c0-.9492188-.7866211-1.5732422-1.9951172-1.5732422-.9755859 0-1.7314453.3471679-1.9511718.9096679-.0439453.0966797-.065918.1889649-.065918.2900391 0 .2900391.2241211.4921875.5361328.4921875.206543 0 .3691406-.0791016.5097656-.2373047.2856446-.3691406.5229493-.496582.9140625-.496582.4833985 0 .7910157.2548828.7910157.6943359v.3120117l-1.1865235.0703125c-1.1777343.0703125-1.836914.5668946-1.836914 1.4238282 0 .8481445.6811523 1.4282226 1.5776367 1.4282226zm.421875-.9272461c-.4306641 0-.7207031-.2197265-.7207031-.571289 0-.3339844.2724609-.5493164.7514648-.5844727l.9931641-.0615234v.3427734c0 .5097656-.4614258.8745117-1.0239258.8745117z"/><path d="m33.6489258 52.3935547c1.5161133.0087891 2.4038086-.7294922 2.4038086-1.9555664v-3.9726563c0-.4350586-.2680664-.6503906-.6372071-.6503906-.3691406 0-.6459961.215332-.6459961.6503906v.2592774h-.0263671c-.2460938-.5317383-.7602539-.8876953-1.4370118-.8876953-1.2128906 0-1.9335937.8745117-1.9335937 2.3510742 0 1.4370117.7382812 2.3334961 1.9116211 2.3334961.6811523 0 1.2304687-.3383789 1.4501953-.84375h.0263672v.7514648c0 .5888672-.413086.975586-1.116211.9711914-.4262695-.0043945-.7602539-.1845703-1.1074218-.5141601-.1450196-.131836-.2768555-.1845703-.4438477-.1845703-.3208008 0-.5229492.2021484-.5229492.4702148 0 .1186523.0263672.2373047.0966797.355957.3032226.4965821 1.0195312.8613282 1.9819336.8657227zm.0703125-2.8256836c-.6372071 0-1.0327149-.5053711-1.0327149-1.3666992 0-.8525391.3999024-1.3886719 1.0327149-1.3886719.6416015 0 1.0546875.5449219 1.0546875 1.3930664 0 .8525391-.413086 1.3623047-1.0546875 1.3623047z"/><path d="m39.0498047 50.7236328c.909668 0 1.6391601-.3427734 1.9511719-.9228516.0571289-.1054687.0878906-.2109374.0878906-.3120117 0-.2944336-.2241211-.4702148-.5009766-.4702148-.1669922 0-.28125.0483398-.4174804.1889648-.347168.4086914-.6547852.5668946-1.125.5668946-.6503907 0-1.0722657-.4570313-1.0722657-1.1557618v-.0571289h2.6894532c.355957 0 .5581054-.2021484.5581054-.5581054 0-1.2788086-.8964843-2.1928711-2.2324219-2.1928711-1.3930664 0-2.2763671.9624023-2.2763671 2.4785156 0 1.5249023.8657226 2.4345703 2.3378906 2.4345703zm-1.0634766-2.9487305c.0439453-.6020507.4526367-1.0151367 1.0151367-1.0151367s.9580079.3999024.984375 1.0151367z"/></g><g transform="translate(186.303314 50.625976)"><path d="m0 0h4.92626953v1.33496094h-4.92626953z"/><path d="m4.92626953 0h1.77978516v1.33496094h-1.77978516z"/><path d="m6.70605469 0h2.1796875v1.33496094h-2.1796875z"/><path d="m8.88574219 0h2.15771481v1.33496094h-2.15771481z"/><path d="m11.043457 0h5.1855469v1.33496094h-5.1855469z"/><path d="m16.2290039 0h4.8427734v1.33496094h-4.8427734z"/></g></g><g><g transform="translate(137.839935 188.377441)"><path d="m2.66308594 6.70605469c.41748047 0 .66357422-.25488281.66357422-.68994141v-4.63623047h1.31396484c.35595703 0 .59765625-.20654297.59765625-.5493164 0-.34277344-.23730469-.54931641-.59765625-.54931641h-3.95068359c-.3647461 0-.60205078.20654297-.60205078.54931641 0 .34277343.24169921.5493164.60205078.5493164h1.30957031v4.63623047c0 .4350586.24609375.68994141.66357422.68994141z"/><path d="m6.45996094 6.71484375c.37792968 0 .64160156-.22851563.64160156-.66796875v-2.11376953c0-.61962891.35595703-1.04589844.96240234-1.04589844.58447266 0 .88330078.36914063.88330078.97558594v2.18408203c0 .43945312.26806641.66796875.64160157.66796875.37792969 0 .64160161-.22851563.64160161-.66796875v-2.45654297c0-1.08984375-.5976563-1.76660156-1.64355474-1.76660156-.71630859 0-1.23046875.33398437-1.48095703.92724609h-.02636719v-1.90722656c0-.41308594-.23291015-.65917969-.62841796-.65917969-.39550782 0-.6328125.24609375-.6328125.65917969v5.203125c0 .43945312.2680664.66796875.64160156.66796875z"/><path d="m11.7114258 1.32714844c.3867187 0 .6855469-.2944336.6855469-.66357422 0-.37353516-.2988282-.66357422-.6855469-.66357422-.3867188 0-.6855469.29003906-.6855469.66357422 0 .36914062.2988281.66357422.6855469.66357422zm0 5.38769531c.3955078 0 .6416015-.25048828.6416015-.66796875v-3.55957031c0-.41748047-.2460937-.67236328-.6416015-.67236328-.3999024 0-.6416016.25488281-.6416016.67236328v3.55957031c0 .41748047.2416992.66796875.6416016.66796875z"/><path d="m15.1259766 6.72363281c1.2436523 0 2.0830078-.60644531 2.0830078-1.54248047 0-.703125-.413086-1.07226562-1.4150391-1.28320312l-.777832-.16699219c-.4702149-.10107422-.6547852-.26367187-.6547852-.50976562 0-.30322266.3032227-.50976563.7382813-.50976563.4614258 0 .7163086.21972656.9404297.5053711.1142578.13623046.2988281.1977539.4658203.1977539.3295898 0 .4921875-.18017578.4921875-.43945312 0-.06152344-.0131836-.12304688-.0307617-.18896485-.1538086-.53173828-.8701172-.97558593-1.8457032-.97558593-1.2216797 0-1.9995117.58007812-1.9995117 1.48095703 0 .69873047.4658203 1.16894531 1.3886719 1.36669921l.7910156.16699219c.4614258.10107422.6240234.23730469.6240234.4921875 0 .31201172-.3032226.5053711-.7690429.5053711-.487793 0-.7778321-.14941407-1.0283203-.47900391-.1757813-.19775391-.3515625-.29003906-.5581055-.29003906-.2988281 0-.5185547.1977539-.5185547.4921875 0 .0703125.0175781.15380859.0483399.23730468.2241211.55371094.9448242.94042969 2.0258789.94042969z"/><path d="m20.2939453 6.71484375c.3779297 0 .6416016-.22851563.6416016-.66796875v-5.18994141c0-.43945312-.2636719-.67236328-.6416016-.67236328-.3735351 0-.6416015.23291016-.6416015.67236328v5.18994141c0 .43945312.2680664.66796875.6416015.66796875z"/><path d="m22.4648438 1.32714844c.3867187 0 .6855468-.2944336.6855468-.66357422 0-.37353516-.2988281-.66357422-.6855468-.66357422-.3867188 0-.6855469.29003906-.6855469.66357422 0 .36914062.2988281.66357422.6855469.66357422zm0 5.38769531c.3955078 0 .6416015-.25048828.6416015-.66796875v-3.55957031c0-.41748047-.2460937-.67236328-.6416015-.67236328-.3999024 0-.6416016.25488281-.6416016.67236328v3.55957031c0 .41748047.2416992.66796875.6416016.66796875z"/><path d="m24.6005859 6.71484375c.3779297 0 .6416016-.22851563.6416016-.66796875v-2.12695312c0-.61083985.3647461-1.03271485.9404297-1.03271485s.8657226.3515625.8657226.96679688v2.19287109c0 .43945312.2636719.66796875.6416016.66796875.3735352 0 .6416016-.22851563.6416016-.66796875v-2.4609375c0-1.10302734-.5888672-1.76220703-1.6347657-1.76220703-.7250976 0-1.199707.32080078-1.4501953.90527344h-.0263672v-.26367188c0-.40429687-.2548828-.65039062-.6416015-.65039062-.3867188 0-.6196289.24609375-.6196289.64599609v3.5859375c0 .43945312.2680664.66796875.6416015.66796875z"/><path d="m29.8168945 6.71484375c.3779297 0 .6416016-.22851563.6416016-.66796875v-.95361328l.4086914-.37792969 1.2084961 1.59960938c.2021484.30322265.355957.39990234.628418.39990234.3603515 0 .6108398-.23730469.6108398-.58007813 0-.16699218-.0395508-.28125-.1801758-.47021484l-1.3139648-1.6743164 1.199707-1.13378907c.1845703-.17138672.2416992-.29003906.2416992-.48339843 0-.31640626-.2416992-.55810547-.571289-.55810547-.1933594 0-.3383789.07470703-.5097657.25488281l-1.7050781 1.70947266h-.0175781v-2.92236329c0-.43945312-.2636719-.67236328-.6416016-.67236328-.3735351 0-.6416015.23291016-.6416015.67236328v5.18994141c0 .43945312.2680664.66796875.6416015.66796875z"/><path d="m35.8198242 6.72363281c1.2436524 0 2.0830078-.60644531 2.0830078-1.54248047 0-.703125-.4130859-1.07226562-1.415039-1.28320312l-.7778321-.16699219c-.4702148-.10107422-.6547851-.26367187-.6547851-.50976562 0-.30322266.3032226-.50976563.7382812-.50976563.4614258 0 .7163086.21972656.9404297.5053711.1142578.13623046.2988281.1977539.4658203.1977539.3295899 0 .4921875-.18017578.4921875-.43945312 0-.06152344-.0131836-.12304688-.0307617-.18896485-.1538086-.53173828-.8701172-.97558593-1.8457031-.97558593-1.2216797 0-1.9995117.58007812-1.9995117 1.48095703 0 .69873047.4658203 1.16894531 1.3886718 1.36669921l.7910157.16699219c.4614257.10107422.6240234.23730469.6240234.4921875 0 .31201172-.3032227.5053711-.769043.5053711-.4877929 0-.777832-.14941407-1.0283203-.47900391-.1757812-.19775391-.3515625-.29003906-.5581054-.29003906-.2988282 0-.5185547.1977539-.5185547.4921875 0 .0703125.0175781.15380859.0483398.23730468.2241211.55371094.9448242.94042969 2.0258789.94042969z"/><path d="m1.03271484 17.7148438c.37353516 0 .63720703-.2241211.63720703-.6503907v-.2504883h.02636719c.26367188.5493164.7866211.8833008 1.4765625.8833008 1.19091797 0 1.9116211-.9140625 1.9116211-2.4301758 0-1.5205078-.72509766-2.4301757-1.91601563-2.4301757-.66796875 0-1.1953125.3339843-1.45458984.8920898h-.02636719v-1.8720703c0-.4394531-.26367188-.6723633-.64160156-.6723633-.37353516 0-.64160156.2329102-.64160156.6723633v5.2075195c0 .4306641.25927734.6503907.62841796.6503907zm1.7006836-1.050293c-.62402344 0-1.05029297-.5449219-1.05029297-1.397461 0-.84375.42626953-1.4018554 1.05029297-1.4018554.63720703 0 1.03710937.5449218 1.03710937 1.4018554 0 .8613282-.39990234 1.397461-1.03710937 1.397461z"/><path d="m7.14111328 17.6972656c.58886719 0 1.17773438-.2944336 1.44140625-.7954101h.02636719v.2416992c.02636719.3779297.2680664.5712891.61523437.5712891.3647461 0 .62402344-.2197266.62402344-.6459961v-2.6850586c0-.9492188-.78662109-1.5732422-1.99511719-1.5732422-.97558593 0-1.73144531.3471679-1.95117187.9096679-.04394531.0966797-.06591797.1889649-.06591797.2900391 0 .2900391.22412109.4921875.53613281.4921875.20654297 0 .36914063-.0791016.50976563-.2373047.28564453-.3691406.52294922-.496582.9140625-.496582.48339844 0 .79101562.2548828.79101562.6943359v.3120117l-1.18652344.0703125c-1.17773437.0703125-1.83691406.5668946-1.83691406 1.4238282 0 .8481445.68115235 1.4282226 1.57763672 1.4282226zm.421875-.9272461c-.43066406 0-.72070312-.2197265-.72070312-.571289 0-.3339844.27246093-.5493164.75146484-.5844727l.99316406-.0615234v.3427734c0 .5097656-.46142578.8745117-1.02392578.8745117z"/><path d="m12.8232422 17.7236328c.9008789 0 1.7050781-.4482422 1.9863281-1.0898437.0571289-.1274414.0834961-.2329102.0834961-.3339844 0-.3164063-.2416992-.5141602-.5405273-.5141602-.272461 0-.413086.1098633-.5844727.3779297-.1977539.3339844-.4746094.553711-.9228516.553711-.6416015 0-1.0415039-.5273438-1.0415039-1.4545899 0-.909668.3999024-1.4458008 1.050293-1.4458008.4086914 0 .6943359.1889649.9272461.6020508.1318359.2329102.2856445.3339844.5405273.3339844.3032227 0 .5493165-.1845703.5493165-.5009766 0-.0922851-.0263672-.2065429-.0703126-.3164062-.2548828-.6679688-1.0415039-1.125-1.9863281-1.125-1.415039 0-2.3115234.9492187-2.3115234 2.4565429 0 1.5249024.9008789 2.456543 2.3203125 2.456543z"/><path d="m16.2509766 17.7148438c.3779296 0 .6416015-.2285157.6416015-.6679688v-.9536133l.4086914-.3779297 1.2084961 1.5996094c.2021485.3032227.3559571.3999024.628418.3999024.3603516 0 .6108398-.2373047.6108398-.5800782 0-.1669922-.0395507-.28125-.1801757-.4702148l-1.3139649-1.6743164 1.199707-1.1337891c.1845704-.1713867.2416993-.2900391.2416993-.4833984 0-.3164063-.2416993-.5581055-.5712891-.5581055-.1933594 0-.3383789.074707-.5097656.2548828l-1.7050782 1.7094727h-.0175781v-2.9223633c0-.4394531-.2636719-.6723633-.6416015-.6723633-.3735352 0-.6416016.2329102-.6416016.6723633v5.1899414c0 .4394531.2680664.6679688.6416016.6679688z"/><path d="m22.5439453 16.418457c0 .8305664.4350586 1.256836 1.2919922 1.256836h.0439453c.5405274 0 .909668-.1933594.909668-.5712891 0-.2988281-.1713867-.4306641-.487793-.4658203l-.0834961-.0087891c-.2768555-.0219726-.3911133-.1625976-.3911133-.496582v-2.2543945h.4526368c.3032226 0 .4921875-.1889649.4921875-.4833985s-.1889649-.4833984-.4921875-.4833984h-.4526368v-.5229492c0-.413086-.2416992-.6679688-.6416015-.6679688-.3999024 0-.6416016.2548828-.6416016.6679688v.5229492h-.2460937c-.3032227 0-.4965821.1845703-.4965821.4833984 0 .2988282.1933594.4833985.4965821.4833985h.2460937z"/><path d="m27.496582 17.7236328c1.4238282 0 2.3334961-.909668 2.3334961-2.4609375 0-1.5292969-.9228515-2.4521484-2.3334961-2.4521484-1.4106445 0-2.3334961.9272461-2.3334961 2.4521484 0 1.546875.909668 2.4609375 2.3334961 2.4609375zm0-.9799805c-.6328125 0-1.0327148-.5317382-1.0327148-1.4765625 0-.9360351.4086914-1.4765625 1.0327148-1.4765625.6240235 0 1.0283203.5405274 1.0283203 1.4765625 0 .9448243-.3999023 1.4765625-1.0283203 1.4765625z"/><path d="m32.6118164 16.418457c0 .8305664.4350586 1.256836 1.2919922 1.256836h.0439453c.5405273 0 .909668-.1933594.909668-.5712891 0-.2988281-.1713867-.4306641-.487793-.4658203l-.0834961-.0087891c-.2768555-.0219726-.3911133-.1625976-.3911133-.496582v-2.2543945h.4526367c.3032227 0 .4921876-.1889649.4921876-.4833985s-.1889649-.4833984-.4921876-.4833984h-.4526367v-.5229492c0-.413086-.2416992-.6679688-.6416015-.6679688-.3999024 0-.6416016.2548828-.6416016.6679688v.5229492h-.2460937c-.3032227 0-.4965821.1845703-.4965821.4833984 0 .2988282.1933594.4833985.4965821.4833985h.2460937z"/><path d="m36.140625 17.7148438c.3779297 0 .6416016-.2285157.6416016-.6679688v-2.1137695c0-.6196289.355957-1.0458985.9624023-1.0458985.5844727 0 .8833008.3691407.8833008.975586v2.184082c0 .4394531.2680664.6679688.6416015.6679688.3779297 0 .6416016-.2285157.6416016-.6679688v-2.456543c0-1.0898437-.5976562-1.7666015-1.6435547-1.7666015-.7163086 0-1.2304687.3339843-1.480957.9272461h-.0263672v-1.9072266c0-.4130859-.2329101-.6591797-.628418-.6591797-.3955078 0-.6328125.2460938-.6328125.6591797v5.203125c0 .4394531.2680664.6679688.6416016.6679688z"/><path d="m42.8950195 17.7236328c.909668 0 1.6391602-.3427734 1.9511719-.9228516.0571289-.1054687.0878906-.2109374.0878906-.3120117 0-.2944336-.2241211-.4702148-.5009765-.4702148-.1669922 0-.28125.0483398-.4174805.1889648-.347168.4086914-.6547852.5668946-1.125.5668946-.6503906 0-1.0722656-.4570313-1.0722656-1.1557618v-.0571289h2.6894531c.355957 0 .5581055-.2021484.5581055-.5581054 0-1.2788086-.8964844-2.1928711-2.2324219-2.1928711-1.3930664 0-2.2763672.9624023-2.2763672 2.4785156 0 1.5249023.8657227 2.4345703 2.3378906 2.4345703zm-1.0634765-2.9487305c.0439453-.6020507.4526367-1.0151367 1.0151367-1.0151367s.9580078.3999024.984375 1.0151367z"/><path d="m1.35791016 28.7148438c.37792968 0 .64160156-.2241211.64160156-.6679688v-3.168457h.50976562c.26806641 0 .47021485-.1713868.47021485-.4746094 0-.2988281-.20214844-.4702148-.47021485-.4702148h-.54052734v-.2988282c0-.3471679.15820312-.5053711.55371094-.5185547.09667968-.0043945.17578125-.0175781.24609375-.0351562.17138672-.0527344.25927734-.1582031.25927734-.3383789 0-.3032227-.28564453-.5185547-.96679687-.5185547-.88769532.0087891-1.34472657.421875-1.34472657 1.3535156v.3559571h-.24609375c-.2680664 0-.47021484.1713867-.47021484.4702148 0 .3032226.20214844.4746094.47021484.4746094h.24609375v3.168457c0 .4438477.25927735.6679688.64160157.6679688z"/><path d="m4.24072266 23.3271484c.38671875 0 .68554687-.2944336.68554687-.6635742 0-.3735351-.29882812-.6635742-.68554687-.6635742s-.68554688.2900391-.68554688.6635742c0 .3691406.29882813.6635742.68554688.6635742zm0 5.3876954c.39550781 0 .64160156-.2504883.64160156-.6679688v-3.5595703c0-.4174805-.24609375-.6723633-.64160156-.6723633-.39990235 0-.64160157.2548828-.64160157.6723633v3.5595703c0 .4174805.24169922.6679688.64160157.6679688z"/><path d="m6.37646484 28.7148438c.39111328 0 .64160157-.2416993.64160157-.6679688v-2.0917969c0-.5581054.20654297-.8876953.79101562-.8964843.25048828-.0043946.43505859-.0615235.55810547-.1669922.12304688-.1054688.18457031-.2592774.18457031-.4614258 0-.2197266-.06152343-.3779297-.18457031-.4746094-.09228516-.0791016-.22851562-.1186523-.39990234-.1186523-.47021485 0-.8569336.3471679-.97998047.9316406h-.02636719v-.3076172c0-.4086914-.24609375-.6459961-.60644531-.6459961-.36914063 0-.61962891.2373047-.61962891.6459961v3.5859375c0 .4262695.25488281.6679688.64160156.6679688z"/><path d="m10.9291992 28.7236328c1.2436524 0 2.0830078-.6064453 2.0830078-1.5424805 0-.703125-.4130859-1.0722656-1.415039-1.2832031l-.7778321-.1669922c-.4702148-.1010742-.6547851-.2636718-.6547851-.5097656 0-.3032226.3032226-.5097656.7382812-.5097656.4614258 0 .7163086.2197265.9404297.5053711.1142578.1362304.2988281.1977539.4658203.1977539.3295899 0 .4921875-.1801758.4921875-.4394531 0-.0615235-.0131836-.1230469-.0307617-.1889649-.1538086-.5317383-.8701172-.9755859-1.8457031-.9755859-1.2216797 0-1.99951173.5800781-1.99951173 1.480957 0 .6987305.46582031 1.1689453 1.38867183 1.3666992l.7910157.1669922c.4614257.1010742.6240234.2373047.6240234.4921875 0 .3120117-.3032227.5053711-.769043.5053711-.4877929 0-.777832-.1494141-1.02832028-.4790039-.17578124-.1977539-.3515625-.2900391-.55810546-.2900391-.29882813 0-.51855469.1977539-.51855469.4921875 0 .0703125.01757812.1538086.04833984.2373047.2241211.553711.94482422.9404297 2.02587889.9404297z"/><path d="m13.987793 27.418457c0 .8305664.4350586 1.256836 1.2919922 1.256836h.0439453c.5405273 0 .9096679-.1933594.9096679-.5712891 0-.2988281-.1713867-.4306641-.4877929-.4658203l-.0834961-.0087891c-.2768555-.0219726-.3911133-.1625976-.3911133-.496582v-2.2543945h.4526367c.3032227 0 .4921875-.1889649.4921875-.4833985s-.1889648-.4833984-.4921875-.4833984h-.4526367v-.5229492c0-.413086-.2416992-.6679688-.6416016-.6679688-.3999023 0-.6416015.2548828-.6416015.6679688v.5229492h-.2460938c-.3032226 0-.496582.1845703-.496582.4833984 0 .2988282.1933594.4833985.496582.4833985h.2460938z"/><path d="m19.265625 30.3012695c.3779297 0 .6416016-.2285156.6416016-.6679687v-1.8017578h.0263672c.2504882.5317382.777832.8657226 1.4633789.8657226 1.1777343 0 1.9072265-.9140625 1.9072265-2.4301758 0-1.5205078-.7338867-2.4301757-1.9291992-2.4301757-.6811523 0-1.2041016.3427734-1.4589844.8964843h-.0263672v-.2548828c0-.4350586-.2636718-.6635742-.6328125-.6635742-.3691406 0-.6328125.2285156-.6328125.6591797v5.1591797c0 .4394531.2680664.6679687.6416016.6679687zm1.6787109-2.6367187c-.6284179 0-1.0415039-.5449219-1.0415039-1.397461 0-.84375.413086-1.4018554 1.0415039-1.4018554.6416016 0 1.0458985.5493164 1.0458985 1.4018554 0 .8569336-.4042969 1.397461-1.0458985 1.397461z"/><path d="m25.3564453 28.6972656c.5888672 0 1.1777344-.2944336 1.4414063-.7954101h.0263672v.2416992c.0263671.3779297.2680664.5712891.6152343.5712891.3647461 0 .6240235-.2197266.6240235-.6459961v-2.6850586c0-.9492188-.7866211-1.5732422-1.9951172-1.5732422-.975586 0-1.7314453.3471679-1.9511719.9096679-.0439453.0966797-.065918.1889649-.065918.2900391 0 .2900391.2241211.4921875.5361328.4921875.206543 0 .3691407-.0791016.5097657-.2373047.2856445-.3691406.5229492-.496582.9140625-.496582.4833984 0 .7910156.2548828.7910156.6943359v.3120117l-1.1865234.0703125c-1.1777344.0703125-1.8369141.5668946-1.8369141 1.4238282 0 .8481445.6811523 1.4282226 1.5776367 1.4282226zm.421875-.9272461c-.4306641 0-.7207031-.2197265-.7207031-.571289 0-.3339844.2724609-.5493164.7514648-.5844727l.9931641-.0615234v.3427734c0 .5097656-.4614258.8745117-1.0239258.8745117z"/><path d="m30.9946289 30.3935547c1.5161133.0087891 2.4038086-.7294922 2.4038086-1.9555664v-3.9726563c0-.4350586-.2680664-.6503906-.637207-.6503906-.3691407 0-.6459961.215332-.6459961.6503906v.2592774h-.0263672c-.2460938-.5317383-.7602539-.8876953-1.4370117-.8876953-1.2128907 0-1.9335938.8745117-1.9335938 2.3510742 0 1.4370117.7382813 2.3334961 1.9116211 2.3334961.6811524 0 1.2304688-.3383789 1.4501953-.84375h.0263672v.7514648c0 .5888672-.4130859.975586-1.1162109.9711914-.4262696-.0043945-.7602539-.1845703-1.1074219-.5141601-.1450195-.131836-.2768555-.1845703-.4438477-.1845703-.3208007 0-.5229492.2021484-.5229492.4702148 0 .1186523.0263672.2373047.0966797.355957.3032227.4965821 1.0195313.8613282 1.9819336.8657227zm.0703125-2.8256836c-.637207 0-1.0327148-.5053711-1.0327148-1.3666992 0-.8525391.3999023-1.3886719 1.0327148-1.3886719.6416016 0 1.0546875.5449219 1.0546875 1.3930664 0 .8525391-.4130859 1.3623047-1.0546875 1.3623047z"/><path d="m36.3955078 28.7236328c.909668 0 1.6391602-.3427734 1.9511719-.9228516.0571289-.1054687.0878906-.2109374.0878906-.3120117 0-.2944336-.2241211-.4702148-.5009765-.4702148-.1669922 0-.28125.0483398-.4174805.1889648-.347168.4086914-.6547852.5668946-1.125.5668946-.6503906 0-1.0722656-.4570313-1.0722656-1.1557618v-.0571289h2.6894531c.355957 0 .5581054-.2021484.5581054-.5581054 0-1.2788086-.8964843-2.1928711-2.2324218-2.1928711-1.3930664 0-2.2763672.9624023-2.2763672 2.4785156 0 1.5249023.8657226 2.4345703 2.3378906 2.4345703zm-1.0634766-2.9487305c.0439454-.6020507.4526368-1.0151367 1.0151368-1.0151367s.9580078.3999024.984375 1.0151367z"/></g><g transform="translate(137.79599 217.625976)"><path d="m0 0h3.20361328v1.33496094h-3.20361328z"/><path d="m3.20361328 0h2.15771484v1.33496094h-2.15771484z"/><path d="m5.36132812 0h3.27392579v1.33496094h-3.27392579z"/><path d="m8.63525391 0h4.63623049v1.33496094h-4.63623049z"/><path d="m13.2714844 0h3.1992187v1.33496094h-3.1992187z"/><path d="m16.4707031 0h1.7797852v1.33496094h-1.7797852z"/><path d="m20.920166 0h1.3348389v1.33496094h-1.3348389z"/><path d="m22.2550049 0h1.3348389v1.33496094h-1.3348389z"/><path d="m23.5898438 0h4.9262695v1.33496094h-4.9262695z"/><path d="m33.8554688 0h4.7548828v1.33496094h-4.7548828z"/></g></g><path d="m145.833757 19.3621395 1.174058-3.8334657 7.289653 6.9362068-9.922757 1.6699981 1.166289-3.8158787-.517881-.1478489c-22.109565-6.2626931-41.584532-8.2611367-57.2296492-6.3623085-14.0645729 1.7069994-24.3638015 6.5434092-29.3155178 13.2802292-2.6419355 3.5470935-4.3081423 7.3096643-5.0878991 11.0815954l-.0670529.3373328.5212175-.1458001c8.6675003-2.3674973 17.8262359-2.079905 24.9382286.7486923l.4608977.1880751c9.3613833 3.9182679 13.0400855 11.5065905 8.5971961 20.2196704-5.9591275 11.6866188-18.1299164 12.1157657-27.5432244 3.0389305-6.1898233-5.968572-9.2304957-14.1021177-8.2499979-22.3634809l.0326824-.2600873-.0967349.0313754c-1.2949668.425434-2.5735247.9131746-3.8263801 1.4636724l-.5353373.2397712c-12.0594802 5.5046493-20.5161989 16.1091694-23.2612732 31.1794096-3.2784666 17.998522 1.6131802 41.5406104 15.8840042 70.4303274l-.8965772.442888c-14.3582994-29.066801-19.2930115-52.8161511-15.9712391-71.0524187 2.8045071-15.3965217 11.4766773-26.2712126 23.8298407-31.9099161 1.6118778-.735755 3.2679043-1.3687345 4.9490713-1.8997929l.0906256-.0283163.032497-.1869189c.7200478-4.0054823 2.3963262-8.0110808 5.1279345-11.7852857l.267647-.3645156c11.2639705-15.3246927 44.9781715-19.47065529 88.1596785-7.1321403zm-92.1772245 20.090546-.5205325.1513145-.0107841.0754503c-1.1625756 8.0442942 1.6550058 16.0061131 7.5859347 21.8842585l.2802893.2740043c8.9711546 8.6504863 20.3374685 8.2497055 25.9582322-2.7733381 4.1555885-8.1496456.7698891-15.1335702-8.0924286-18.8429508-7.0850291-2.965485-16.4229604-3.2671994-25.200711-.7687387z" opacity=".5"/><path d="m266.586606 54.7154783 7.441385 6.7731665-9.883364 1.8892083 1.079373-3.8308531-.397621-.0940584c-30.21664-7.1038959-63.064572-2.8237007-82.110965 13.4105254-24.055233 20.5035187-25.696562 57.646902.890775 111.470047l-.896577.442887c-26.768841-54.19058-25.105907-91.8228908-.642885-112.6739894 19.417168-16.5502566 52.810191-20.8344989 83.428784-13.518579z" opacity=".5" transform="matrix(-.81915204 .57357644 -.57357644 -.81915204 466.634404 93.123516)"/><path d="m109.444069 176.593617 2.811039-2.867535 3.278075 9.513371-9.577542-3.085563 2.787359-2.84489-.132291-.122639c-16.9609633-15.511488-32.7447073-21.456946-45.6906414-18.269486-11.9679529 2.946669-20.8845475 13.686908-24.8928528 29.549267-4.0887712 16.180792-2.7401938 36.305519 4.1854847 56.435753 7.6836959 22.333494 21.7386656 43.562861 41.5585096 61.350756l-.6679275.744226c-19.9466977-17.901743-34.0971617-39.27535-41.8361833-61.769654-6.9863285-20.30652-8.3480782-40.627815-4.2094086-57.006073 4.0915885-16.191941 13.2555828-27.230179 25.6233045-30.275276 13.3584944-3.289038 29.5179828 2.823264 46.7630748 18.647743z" opacity=".5" transform="matrix(-.01745241 -.9998477 .9998477 -.01745241 -155.555538 311.350402)"/><path d="m161.278143 150.805512 3.971252-1.013967-2.128202 9.834671-6.590816-7.603364 3.751623-.960852-.058382-.114307c-11.744162-21.861098-65.8873026-11.206478-103.3643337 20.434354l-.6451042-.764094c38.0748173-32.145527 93.2606849-42.89056 105.0639629-19.812441z" opacity=".5"/></g></g></svg>