<svg height="375" viewBox="0 0 375 375" width="375" xmlns="http://www.w3.org/2000/svg"><g fill="none" fill-rule="evenodd"><path d="m36.5 40.5h56v191h-56z" fill="#fff" stroke="#ab7bbc"/><path d="m38.344156 70.5h52.311688" stroke="#eddef4"/><path d="m37 87h55v14h-55z" fill="#b373d3"/><path d="m118.5 40.5h56v251h-56z" fill="#fff" stroke="#ab7bbc"/><path d="m200.5 40.5h56v287h-56z" fill="#fff" stroke="#ab7bbc"/><path d="m282.5 40.5h56v223h-56z" fill="#fff" stroke="#ab7bbc"/><path d="m93 87 25-47v252l-25-191z" fill="#b373d3" opacity=".34"/><path d="m175 150 25-110v288l-25-164z" fill="#b373d3" opacity=".34"/><path d="m257 113.688312 25-73.688312v224l-25-136z" fill="#b373d3" opacity=".34"/><g fill-rule="nonzero"><g fill="#b373d3" transform="translate(120.540527 42.937988)"><path d="m0 3.88916016c0 .14941406.05712891.27685546.17578125.39111328l3.42773437 3.35302734c.09228516.09667969.21533204.14501953.35595704.14501953.28564453 0 .50976562-.21972656.50976562-.50976562 0-.140625-.0571289-.26806641-.15380859-.3647461l-3.08935547-3.01464843 3.08935547-3.01464844c.09667969-.10107422.15380859-.22851563.15380859-.36914063 0-.28564453-.22412109-.50537109-.50976562-.50537109-.140625 0-.26367188.04833984-.35595704.14501953l-3.42773437 3.35302735c-.11865234.11425781-.17138672.24169921-.17578125.39111328z"/><path d="m9.01318359 7.13232422c.30761719 0 .4921875-.19335938.4921875-.50976563v-2.15771484l2.01269531-3.04541016c.074707-.11425781.1010742-.21533203.1010742-.32519531 0-.25488281-.2109375-.44384765-.4833984-.44384765-.1933594 0-.3164063.07910156-.4350586.27685546l-1.66552735 2.59277344h-.03076172l-1.66552734-2.59277344c-.12304688-.20214843-.23730469-.27685546-.43945313-.27685546-.27685547 0-.48779297.18896484-.48779297.44824218 0 .10986328.02636719.2109375.10107422.32080078l2.00830078 3.04541016v2.15771484c0 .31640625.18896485.50976563.4921875.50976563z"/><path d="m13.4472656 7.14990234c.8613282 0 1.5336914-.34716796 1.8369141-.95361328.0395508-.09228515.065918-.18017578.065918-.25488281 0-.23730469-.1669922-.38671875-.3955079-.38671875-.1362304 0-.2329101.04833984-.3339843.16699219-.3515625.4790039-.6767578.65917969-1.1953125.65917969-.7558594 0-1.2304688-.52734376-1.2304688-1.37109376v-.02197265h2.7949219c.2944336 0 .4702148-.17578125.4702148-.48339844 0-1.26123047-.8481445-2.14892578-2.0786132-2.14892578-1.3095704 0-2.1445313.94921875-2.1445313 2.41699219 0 1.49414062.8173828 2.3774414 2.2104492 2.3774414zm-1.2480468-2.82568359c.0483398-.72070313.5229492-1.20410156 1.1777343-1.20410156.6591797 0 1.1118164.4790039 1.1337891 1.20410156z"/><path d="m17.5473633 7.14111328c.6020508 0 1.1909179-.32519531 1.4589844-.83935547h.0219726v.39111328c.0087891.28125.1889649.45263672.4526367.45263672.2680664 0 .4570313-.18017578.4570313-.4790039v-2.79052735c0-.92724609-.7163086-1.52050781-1.8369141-1.52050781-.8305664 0-1.5292969.33398437-1.7709961.85693359-.0571289.10546875-.0834961.2109375-.0834961.30761719 0 .23730469.1713868.39550781.4086914.39550781.1669922 0 .2900391-.06152343.3867188-.20214843.2636719-.421875.5668945-.58447266 1.0239258-.58447266.5800781 0 .9272461.30761719.9272461.82177734v.35595703l-1.2700196.07470704c-1.0942383.06152343-1.7182617.55810546-1.7182617 1.36669922 0 .8305664.637207 1.3930664 1.5424805 1.3930664zm.2592773-.75146484c-.5053711 0-.84375-.26367188-.84375-.66796875 0-.39550781.3208008-.6459961.8876953-.68554688l1.1425782-.0703125v.3647461c0 .60205078-.5229493 1.05908203-1.1865235 1.05908203z"/><path d="m21.3310547 7.14550781c.28125 0 .4746094-.19335937.4746094-.50097656v-2.35986328c0-.57568359.2636718-1.01074219.9140625-1.01513672.1977539 0 .3383789-.03955078.4350586-.12304687.0922851-.07470704.140625-.18457032.140625-.33398438s-.0395508-.26367188-.1274414-.33398438c-.0791016-.07470703-.206543-.11425781-.3735352-.11425781-.4614258 0-.8876953.34716797-1.0151367.86572266h-.0219727v-.39550781c0-.29003907-.1845703-.47900391-.4482422-.47900391-.2680664 0-.4526367.18896484-.4526367.47900391v3.81005859c0 .30761719.1889649.50097656.4746094.50097656z"/><path d="m25.5146484 7.14990234c1.1425782 0 1.9116211-.57128906 1.9116211-1.42822265 0-.68554688-.3735351-1.03271485-1.3447265-1.25683594l-.7163086-.16699219c-.487793-.11425781-.7119141-.31640625-.7119141-.60644531 0-.36035156.3515625-.61083984.8613281-.61083984.4658204 0 .7470704.18457031.9536133.53613281.0922852.14941406.2285156.20214844.3823242.20214844.2373047 0 .3691407-.140625.3691407-.3515625 0-.04394532-.0087891-.08789063-.0175782-.140625-.1318359-.54492188-.8173828-.97119141-1.6523437-.97119141-1.0986328 0-1.8237305.55371094-1.8237305 1.38867187 0 .65917969.4394531 1.09863282 1.3359375 1.30957032l.7294922.17138672c.496582.11865234.6767578.28125.6767578.58447265 0 .38232422-.3647461.61523438-.9052734.61523438-.5493164 0-.8261719-.16699219-1.0634766-.54052735-.1186523-.17578125-.2548828-.25048828-.4130859-.25048828-.2373047 0-.4086914.140625-.4086914.37792969 0 .06152344.008789.12744141.0395508.19775391.2197265.56689453.8876953.94042968 1.7973632.94042968z"/></g><g fill="#b373d3" transform="translate(53.259277 58.570801)"><path d="m2.73339844 6.51269531c.41748047 0 .66357422-.25488281.66357422-.6899414v-1.76220703l1.93359375-2.99267579c.09667968-.15380859.140625-.29882812.140625-.45263671 0-.3515625-.28125-.61523438-.65478516-.61523438-.26367187 0-.43505859.11865234-.60205078.40869141l-1.45458985 2.38623047h-.03076171l-1.45019532-2.38623047c-.17578125-.30322266-.32958984-.40869141-.61523437-.40869141-.38232422 0-.66357422.26367188-.66357422.62402344 0 .14941406.03955078.29882812.13623047.44824218l1.93359375 2.98828126v1.76220703c0 .43505859.24609375.6899414.66357422.6899414z"/><path d="m7.34326172 6.53027344c.90966797 0 1.63916016-.34277344 1.95117187-.92285156.05712891-.10546876.08789063-.2109375.08789063-.31201172 0-.2944336-.2241211-.47021485-.50097656-.47021485-.16699219 0-.28125.04833985-.41748047.18896485-.34716797.4086914-.65478516.56689453-1.125.56689453-.65039063 0-1.07226563-.45703125-1.07226563-1.15576172v-.05712891h2.68945313c.35595703 0 .55810547-.20214844.55810547-.55810547 0-1.27880859-.89648438-2.19287109-2.23242188-2.19287109-1.3930664 0-2.27636719.96240234-2.27636719 2.47851562 0 1.52490235.86572266 2.43457032 2.33789063 2.43457032zm-1.06347656-2.94873047c.04394531-.60205078.45263672-1.01513672 1.01513672-1.01513672s.95800781.39990234.984375 1.01513672z"/><path d="m11.5664062 6.50390625c.5888672 0 1.1777344-.29443359 1.4414063-.79541016h.0263672v.24169922c.0263672.37792969.2680664.57128907.6152344.57128907.3647461 0 .6240234-.21972657.6240234-.6459961v-2.68505859c0-.94921875-.7866211-1.57324219-1.9951172-1.57324219-.9755859 0-1.7314453.34716797-1.9511719.90966797-.0439453.09667969-.0659179.18896484-.0659179.29003906 0 .29003906.2241211.4921875.5361328.4921875.2065429 0 .3691406-.07910156.5097656-.23730469.2856445-.36914062.5229492-.49658203.9140625-.49658203.4833984 0 .7910156.25488281.7910156.69433594v.31201172l-1.1865234.0703125c-1.1777344.0703125-1.83691407.56689453-1.83691407 1.42382812 0 .84814453.68115237 1.42822266 1.57763667 1.42822266zm.421875-.92724609c-.430664 0-.7207031-.21972657-.7207031-.57128907 0-.33398437.272461-.5493164.7514649-.58447265l.993164-.06152344v.34277344c0 .50976562-.4614258.87451172-1.0239258.87451172z"/><path d="m15.7412109 6.52148438c.3911133 0 .6416016-.24169922.6416016-.66796876v-2.09179687c0-.55810547.206543-.88769531.7910156-.89648437.2504883-.00439454.4350586-.06152344.5581055-.16699219s.1845703-.25927735.1845703-.46142578c0-.21972657-.0615234-.37792969-.1845703-.47460938-.0922852-.07910156-.2285156-.11865234-.3999024-.11865234-.4702148 0-.8569335.34716797-.9799804.93164062h-.0263672v-.30761719c0-.4086914-.2460938-.64599609-.6064453-.64599609-.3691406 0-.6196289.23730469-.6196289.64599609v3.5859375c0 .42626954.2548828.66796876.6416015.66796876z"/><path d="m20.2939453 6.53027344c1.2436524 0 2.0830078-.60644532 2.0830078-1.54248047 0-.703125-.4130859-1.07226563-1.415039-1.28320313l-.7778321-.16699218c-.4702148-.10107422-.6547851-.26367188-.6547851-.50976563 0-.30322265.3032226-.50976562.7382812-.50976562.4614258 0 .7163086.21972656.9404297.50537109.1142578.13623047.2988281.19775391.4658203.19775391.3295899 0 .4921875-.18017579.4921875-.43945313 0-.06152344-.0131836-.12304687-.0307617-.18896484-.1538086-.53173828-.8701172-.97558594-1.8457031-.97558594-1.2216797 0-1.9995117.58007812-1.9995117 1.48095703 0 .69873047.4658203 1.16894531 1.3886718 1.36669922l.7910157.16699219c.4614257.10107422.6240234.23730468.6240234.4921875 0 .31201172-.3032227.50537109-.769043.50537109-.4877929 0-.777832-.14941406-1.0283203-.47900391-.1757812-.1977539-.3515625-.29003906-.5581055-.29003906-.2988281 0-.5185546.19775391-.5185546.4921875 0 .0703125.0175781.1538086.0483398.23730469.2241211.55371094.9448242.94042969 2.0258789.94042969z"/></g><g fill="#b373d3" transform="translate(202.540527 42.937988)"><path d="m0 3.88916016c0 .14941406.05712891.27685546.17578125.39111328l3.42773437 3.35302734c.09228516.09667969.21533204.14501953.35595704.14501953.28564453 0 .50976562-.21972656.50976562-.50976562 0-.140625-.0571289-.26806641-.15380859-.3647461l-3.08935547-3.01464843 3.08935547-3.01464844c.09667969-.10107422.15380859-.22851563.15380859-.36914063 0-.28564453-.22412109-.50537109-.50976562-.50537109-.140625 0-.26367188.04833984-.35595704.14501953l-3.42773437 3.35302735c-.11865234.11425781-.17138672.24169921-.17578125.39111328z"/><path d="m7.11474609 7.06201172h3.50244141c.2680664 0 .4350586-.16699219.4350586-.41308594 0-.25048828-.1669922-.41748047-.4350586-.41748047h-2.63232422v-.02197265l1.51171875-1.51611328c1.06787107-1.0678711 1.40624997-1.57763672 1.40624997-2.29833985 0-1.04589844-.8569336-1.79296875-2.06982419-1.79296875-1.26123047 0-1.99511719.77783203-2.13134765 1.44580078-.01757813.06591797-.02636719.13183594-.02636719.20654297 0 .24609375.15820312.41748047.43505859.41748047.24169922 0 .35595703-.11865234.44384766-.31640625.21972656-.61962891.65039062-.94042969 1.27441406-.94042969.63720703 0 1.10302734.43945313 1.10302734 1.04150391 0 .50537109-.20214843.83056641-1.02832031 1.67431641l-1.98193359 2.00390624c-.21533203.21533204-.27246094.32080079-.27246094.51416016 0 .24609375.16699219.41308594.46582031.41308594z"/><path d="m14.1899414 7.18066406c1.5249024 0 2.4213867-1.27880859 2.4213867-3.30029297 0-2.00830078-.9052734-3.27832031-2.4213867-3.27832031s-2.4301758 1.27441406-2.4301758 3.28271484c0 2.02148438.9008789 3.29589844 2.4301758 3.29589844zm0-.82617187c-.918457 0-1.4326172-.93603516-1.4326172-2.46972657 0-1.51171874.5273438-2.45654296 1.4326172-2.45654296s1.4282227.94042968 1.4282227 2.45654296c0 1.53808594-.5141602 2.46972657-1.4282227 2.46972657z"/><path d="m17.8637695 7.06201172h3.5024414c.2680664 0 .4350586-.16699219.4350586-.41308594 0-.25048828-.1669922-.41748047-.4350586-.41748047h-2.6323242v-.02197265l1.5117188-1.51611328c1.0678711-1.0678711 1.40625-1.57763672 1.40625-2.29833985 0-1.04589844-.8569336-1.79296875-2.0698243-1.79296875-1.2612304 0-1.9951171.77783203-2.1313476 1.44580078-.0175781.06591797-.0263672.13183594-.0263672.20654297 0 .24609375.1582031.41748047.4350586.41748047.2416992 0 .355957-.11865234.4438477-.31640625.2197265-.61962891.6503906-.94042969 1.274414-.94042969.6372071 0 1.1030274.43945313 1.1030274 1.04150391 0 .50537109-.2021485.83056641-1.0283203 1.67431641l-1.9819336 2.00390624c-.2153321.21533204-.272461.32080079-.272461.51416016 0 .24609375.1669922.41308594.4658203.41308594z"/><path d="m24.8422852 7.18066406c1.3227539 0 2.2983398-.7602539 2.2983398-1.87646484 0-.88769531-.6240234-1.45458984-1.5556641-1.53808594v-.02197266c.7778321-.16259765 1.3359375-.69873046 1.3359375-1.48974609 0-.94482422-.7954101-1.65234375-2.0874023-1.65234375-.9667969 0-1.6567383.421875-1.9731445 1.05029297-.0834961.16259766-.1186524.30761719-.1186524.47900391 0 .26367187.1494141.421875.4262696.421875.2329101 0 .3383789-.09228516.4438476-.34716797.2197266-.52734375.5800781-.79541016 1.2216797-.79541016.7514648 0 1.1293945.39111328 1.1293945.97998047s-.4921875 1.01953125-1.2172851 1.01953125h-.3955078c-.2504883 0-.4086915.15380859-.4086915.38232422 0 .22851562.1582032.38232422.4086915.38232422h.421875c.8481445 0 1.3710937.40429687 1.3666992 1.12939453-.0043946.61523437-.5229492 1.0546875-1.2919922 1.0546875-.7250977 0-1.1381836-.30322266-1.3535156-.80859375-.1010743-.22851563-.2241211-.32519531-.4350586-.32519531-.2768555 0-.4438477.17138672-.4438477.43505859 0 .15820313.0395508.31201172.1274414.47460937.3515625.64160157 1.059082 1.04589844 2.100586 1.04589844z"/></g><g fill="#b373d3" transform="translate(135.439453 58.513672)"><path d="m.62402344 6.48632812h3.51123047c.34277343 0 .5493164-.21533203.5493164-.52734374 0-.32080079-.20654297-.52734376-.5493164-.52734376h-2.390625v-.02636718l1.37109375-1.31835938c1.03710937-.97998047 1.41503906-1.4633789 1.41503906-2.2368164 0-1.08984375-.90527344-1.84570313-2.25-1.84570313-1.19970703 0-1.99511719.65478516-2.21044922 1.35791016-.03076172.09228515-.04833984.18457031-.04833984.28564453 0 .32958984.2109375.54052734.56689453.54052734.28564453 0 .43945312-.12304687.58886719-.38671875.22851562-.50976562.58007812-.76464843 1.08984374-.76464843.56689454 0 .97119141.37353515.97119141.89648437 0 .45703125-.20214844.76464844-.984375 1.51611328l-1.88964844 1.80615235c-.2680664.24609374-.36474609.41308593-.36474609.66357421 0 .33398438.20654297.56689453.62402344.56689453z"/><path d="m7.91894531 6.62695312c1.60839844 0 2.58398439-1.27880859 2.58398439-3.32666015s-.98437501-3.30029297-2.58398439-3.30029297c-1.59960937 0-2.5883789 1.25683594-2.5883789 3.3046875 0 2.05224609.97998047 3.32226562 2.5883789 3.32226562zm0-1.06347656c-.78222656 0-1.23925781-.80419922-1.23925781-2.25878906 0-1.44140625.46582031-2.24121094 1.23925781-2.24121094.77783203 0 1.23486328.79541016 1.23486328 2.24121094 0 1.45458984-.45263671 2.25878906-1.23486328 2.25878906z"/><path d="m11.887207 6.48632812h3.5112305c.3427734 0 .5493164-.21533203.5493164-.52734374 0-.32080079-.206543-.52734376-.5493164-.52734376h-2.390625v-.02636718l1.3710937-1.31835938c1.0371094-.97998047 1.4150391-1.4633789 1.4150391-2.2368164 0-1.08984375-.9052734-1.84570313-2.25-1.84570313-1.199707 0-1.9951172.65478516-2.2104492 1.35791016-.0307617.09228515-.0483399.18457031-.0483399.28564453 0 .32958984.2109376.54052734.5668946.54052734.2856445 0 .4394531-.12304687.5888672-.38671875.2285156-.50976562.5800781-.76464843 1.0898437-.76464843.5668945 0 .9711914.37353515.9711914.89648437 0 .45703125-.2021484.76464844-.984375 1.51611328l-1.8896484 1.80615235c-.2680664.24609374-.3647461.41308593-.3647461.66357421 0 .33398438.206543.56689453.6240234.56689453z"/><path d="m19.0546875 6.62695312c1.472168 0 2.4697266-.76464843 2.4697266-1.91601562 0-.87451172-.6108399-1.42822266-1.5556641-1.51611328v-.02636719c.7470703-.15380859 1.3227539-.68115234 1.3227539-1.48535156 0-1.01513672-.9052734-1.67871094-2.2456055-1.67871094-1.1206054 0-1.8413086.51855469-2.1225586 1.13818359-.0659179.14941407-.0966796.27685547-.0966796.42626954 0 .32080078.1889648.53613281.5581054.53613281.2988282 0 .4526367-.10986328.5976563-.40869141.2065429-.44824218.5317383-.67236328 1.0678711-.67236328.6416015 0 .984375.33837891.984375.84814453 0 .51855469-.4306641.87890625-1.0942383.87890625h-.2592774c-.3208007 0-.5053711.19335938-.5053711.47021485 0 .28564453.1845704.47460937.5053711.47460937h.2768555c.769043 0 1.2216797.34277344 1.2172852.95800781 0 .52734375-.4482422.90527344-1.0986328.90527344-.6591797 0-1.0019532-.26367187-1.2260743-.70751953-.1318359-.24169922-.2988281-.34716797-.5625-.34716797-.3647461 0-.5844726.21533203-.5844726.55810547 0 .13183594.0307617.27246094.1010742.41748047.2988281.62402344 1.0415039 1.14697265 2.25 1.14697265z"/></g><g fill="#fff" transform="translate(40.474609 90.540039)"><path d="m.46582031 6.45996094h3.50244141c.2680664 0 .43505859-.16699219.43505859-.41308594 0-.25048828-.16699219-.41748047-.43505859-.41748047h-2.63232422v-.02197265l1.51171875-1.51611329c1.06787109-1.06787109 1.40625-1.57763671 1.40625-2.29833984 0-1.04589844-.85693359-1.79296875-2.06982422-1.79296875-1.26123047 0-1.99511719.77783203-2.13134765 1.44580078-.01757813.06591797-.02636719.13183594-.02636719.20654297 0 .24609375.15820312.41748047.43505859.41748047.24169922 0 .35595703-.11865234.44384766-.31640625.21972656-.61962891.65039062-.94042969 1.27441406-.94042969.63720703 0 1.10302734.43945313 1.10302734 1.04150391 0 .50537109-.20214843.8305664-1.02832031 1.6743164l-1.98193359 2.00390625c-.21533203.21533204-.27246094.32080078-.27246094.51416016 0 .24609375.16699219.41308594.46582031.41308594z"/><path d="m7.54101562 6.57861328c1.52490235 0 2.42138672-1.27880859 2.42138672-3.30029297 0-2.00830078-.90527343-3.27832031-2.42138672-3.27832031-1.51611328 0-2.43017578 1.27441406-2.43017578 3.28271484 0 2.02148438.90087891 3.29589844 2.43017578 3.29589844zm0-.82617187c-.91845703 0-1.43261718-.93603516-1.43261718-2.46972657 0-1.51171875.52734375-2.45654296 1.43261718-2.45654296.90527344 0 1.42822266.94042968 1.42822266 2.45654296 0 1.53808594-.51416016 2.46972657-1.42822266 2.46972657z"/><path d="m11.2148438 6.45996094h3.5024414c.2680664 0 .4350586-.16699219.4350586-.41308594 0-.25048828-.1669922-.41748047-.4350586-.41748047h-2.6323243v-.02197265l1.5117188-1.51611329c1.0678711-1.06787109 1.40625-1.57763671 1.40625-2.29833984 0-1.04589844-.8569336-1.79296875-2.0698242-1.79296875-1.2612305 0-1.9951172.77783203-2.1313477 1.44580078-.0175781.06591797-.0263672.13183594-.0263672.20654297 0 .24609375.1582032.41748047.4350586.41748047.2416992 0 .355957-.11865234.4438477-.31640625.2197265-.61962891.6503906-.94042969 1.274414-.94042969.6372071 0 1.1030274.43945313 1.1030274 1.04150391 0 .50537109-.2021485.8305664-1.0283203 1.6743164l-1.9819336 2.00390625c-.2153321.21533204-.272461.32080078-.272461.51416016 0 .24609375.1669922.41308594.4658204.41308594z"/><path d="m18.1933594 6.57861328c1.3227539 0 2.2983398-.7602539 2.2983398-1.87646484 0-.88769532-.6240234-1.45458985-1.555664-1.53808594v-.02197266c.777832-.16259765 1.3359375-.69873046 1.3359375-1.48974609 0-.94482422-.7954102-1.65234375-2.0874024-1.65234375-.9667969 0-1.6567383.421875-1.9731445 1.05029297-.0834961.16259765-.1186524.30761719-.1186524.47900391 0 .26367187.1494141.421875.4262696.421875.2329101 0 .3383789-.09228516.4438476-.34716797.2197266-.52734375.5800782-.79541016 1.2216797-.79541016.7514649 0 1.1293945.39111328 1.1293945.97998047s-.4921875 1.01953125-1.2172851 1.01953125h-.3955078c-.2504883 0-.4086914.15380859-.4086914.38232422 0 .22851562.1582031.38232422.4086914.38232422h.421875c.8481445 0 1.3710937.40429687 1.3666992 1.12939453-.0043945.61523437-.5229492 1.0546875-1.2919922 1.0546875-.7250977 0-1.1381836-.30322266-1.3535156-.80859375-.1010742-.22851563-.2241211-.32519531-.4350586-.32519531-.2768555 0-.4438477.17138671-.4438477.43505859 0 .15820312.0395508.31201172.1274414.47460937.3515625.64160157 1.0590821 1.04589844 2.100586 1.04589844z"/></g><path d="m4.46923828 3.88916016c0-.14941407-.0571289-.27685547-.17138672-.39111328l-3.42773437-3.35302735c-.09667969-.09667969-.21533203-.14501953-.35595703-.14501953-.28564453 0-.51416016.21972656-.51416016.50537109 0 .140625.05712891.26806641.15380859.36914063l3.09375 3.01464844-3.09375 3.01464843c-.09228515.09667969-.15380859.2241211-.15380859.3647461 0 .29003906.22851563.50976562.51416016.50976562.140625 0 .25927734-.04833984.35595703-.14501953l3.42773437-3.35302734c.11865235-.11425782.17138672-.24169922.17138672-.39111328z" fill="#fff" transform="translate(85.700684 89.937988)"/><g fill="#b373d3" transform="translate(284.540527 42.937988)"><path d="m0 3.88916016c0 .14941406.05712891.27685546.17578125.39111328l3.42773437 3.35302734c.09228516.09667969.21533204.14501953.35595704.14501953.28564453 0 .50976562-.21972656.50976562-.50976562 0-.140625-.0571289-.26806641-.15380859-.3647461l-3.08935547-3.01464843 3.08935547-3.01464844c.09667969-.10107422.15380859-.22851563.15380859-.36914063 0-.28564453-.22412109-.50537109-.50976562-.50537109-.140625 0-.26367188.04833984-.35595704.14501953l-3.42773437 3.35302735c-.11865234.11425781-.17138672.24169921-.17578125.39111328z"/><path d="m8.26171875 7.16748047c1.23486328 0 1.97314455-.72949219 1.97314455-1.98632813v-4.02099609c0-.31640625-.1889649-.50976562-.49218752-.50976562-.30761719 0-.4921875.19335937-.4921875.50976562v4.01660156c0 .72070313-.3515625 1.11181641-.99755859 1.11181641-.47900391 0-.81738281-.27246094-.95361328-.76464844-.07910157-.29003906-.22851563-.41748047-.47900391-.41748047-.28125 0-.46142578.18457031-.46142578.48339844 0 .17578125.03515625.30322266.09228516.46142578.25927734.68994141.94482421 1.11621094 1.81054687 1.11621094z"/><path d="m12.9023438 7.14550781c.7075195 0 1.1777343-.31201172 1.4326171-.86572265h.0219727v.38671875c0 .29003906.1845703.4790039.4570312.4790039.272461 0 .4526368-.18896484.4526368-.48339843v-3.80126954c0-.31640625-.1933594-.50537109-.4746094-.50537109-.2768555 0-.4746094.18896484-.4746094.50537109v2.27197266c0 .72070312-.4130859 1.1953125-1.0986328 1.1953125-.6547852 0-.9887695-.37792969-.9887695-1.08105469v-2.38623047c0-.31640625-.1977539-.50537109-.4746094-.50537109-.28125 0-.4746094.18896484-.4746094.50537109v2.57080078c0 1.05908204.6152344 1.71386719 1.6215821 1.71386719z"/><path d="m16.7124023 7.14550781c.2768555 0 .4746094-.18896484.4746094-.50097656v-5.50634766c0-.31201171-.1977539-.50097656-.4746094-.50097656-.2768554 0-.4746093.18896485-.4746093.50097656v5.50634766c0 .31201172.1977539.50097656.4746093.50097656z"/><path d="m18.7338867 8.78466797c.8569336 0 1.2919922-.37792969 1.7006836-1.48974609l1.6040039-4.24072266c.0307617-.09228516.0483399-.18896484.0483399-.26367188 0-.25488281-.1889649-.43505859-.4614258-.43505859-.2416992 0-.3735352.10546875-.4526367.36474609l-1.1821289 3.48046875h-.0131836l-1.1777344-3.48046875c-.0834961-.26367187-.2197266-.36474609-.4570313-.36474609-.2768554 0-.4833984.18017578-.4833984.43945313 0 .07470703.0175781.17138671.0527344.2680664l1.546875 4.04736328-.0878906.26806641c-.1713868.47460937-.4394532.61962891-.703125.61962891-.1098633 0-.1450196-.00439454-.2460938-.00439454-.2285156 0-.3691406.13183594-.3691406.33398438 0 .29443359.2416992.45703125.6811523.45703125z"/></g><g fill="#b373d3" transform="translate(220.18457 58.562012)"><path d="m2.09619141 6.54345703c1.35791015 0 2.1665039-.76464844 2.1665039-2.11376953v-3.7265625c0-.43945312-.24609375-.69433594-.66357422-.69433594s-.66357421.25488282-.66357421.69433594v3.71777344c0 .63720703-.29882813.97998047-.85253907.97998047-.421875 0-.71630859-.23730469-.83496093-.66357422-.10546876-.36035157-.29882813-.51855469-.6328125-.51855469-.37353516 0-.61523438.24169922-.61523438.62402344 0 .19335937.03515625.3515625.10986328.53613281.29882813.72949219 1.03271484 1.16455078 1.98632813 1.16455078z"/><path d="m6.93017578 6.52587891c.71191406 0 1.17773438-.34277344 1.41064453-.93603516h.02636719v.29003906c0 .42626953.25048828.65039063.61962891.65039063.36914062 0 .6196289-.2241211.6196289-.65039063v-3.57714843c0-.43945313-.26367187-.67236329-.64160156-.67236329-.37353516 0-.64160156.23291016-.64160156.67236329v2.12255859c0 .62402344-.35595703 1.03271484-.9272461 1.03271484-.56689453 0-.87890625-.33398437-.87890625-.96240234v-2.19287109c0-.43945313-.26367187-.67236329-.64160156-.67236329-.37353516 0-.64160156.23291016-.64160156.67236329v2.4609375c0 1.09863281.67675781 1.76220703 1.69628906 1.76220703z"/><path d="m11.1137695 6.53027344c.3779297 0 .6416016-.22851563.6416016-.66796875v-5.18994141c0-.43945312-.2636719-.67236328-.6416016-.67236328-.3735351 0-.6416015.23291016-.6416015.67236328v5.18994141c0 .43945312.2680664.66796875.6416015.66796875z"/><path d="m13.4208984 8.18261719c1.0327149 0 1.5776368-.44824219 2.0170899-1.66552735l1.4458008-3.92871093c.0439453-.12304688.0703125-.27246094.0703125-.37792969 0-.33837891-.2548828-.58007813-.6240235-.58007813-.3295898 0-.5141601.1538086-.6196289.50976563l-1.0239258 3.26953125h-.0219726l-1.0239258-3.26074219c-.1054688-.37353516-.28125-.51855469-.6196289-.51855469-.3779297 0-.6635742.25048829-.6635742.59765625 0 .10546875.0263672.24609375.074707.37792969l1.5029297 3.96386719-.065918.16699219c-.1538086.32958984-.3955078.42626953-.6196289.42626953-.0878906 0-.1362305-.00439453-.2241211-.00439453-.290039 0-.4702148.16259765-.4702148.421875 0 .38671875.3032226.60205078.8657226.60205078z"/></g><g fill="#b373d3" transform="translate(305.259277 58.562012)"><path d="m2.43017578 6.53027344c.39111328 0 .65478516-.26367188.65478516-.66357422v-5.12402344c0-.45703125-.28125-.74267578-.75146485-.74267578-.27246093 0-.48339843.03955078-.79101562.25048828l-1.25683594.87011719c-.20654297.14501953-.28564453.29443359-.28564453.49658203 0 .28125.19775391.47460938.46582031.47460938.13623047 0 .22851563-.03076172.3515625-.11865235l.9272461-.64599609h.02636718v4.53955078c0 .39990234.26806641.66357422.65917969.66357422z"/><path d="m5.71728516 6.53027344c.28564453 0 .44824218-.10546875.59326172-.38671875l2.35107421-4.53955078c.17138672-.33398438.25048829-.54492188.25048829-.78222657 0-.45263671-.32958985-.72509765-.79101563-.72509765h-3.28271484c-.31640625 0-.54931641.20654297-.54931641.52294922 0 .32080078.23291016.53173828.54931641.53173828h2.73339843v.02636719l-2.34667968 4.39453124c-.07910157.14501954-.11425782.26367188-.11425782.41748047 0 .30761719.23291016.54052735.60644532.54052735z"/></g></g><path d="m119 150h55v14h-55z" fill="#b373d3"/><path d="m201 114h55v14h-55z" fill="#b373d3"/><g fill="#fff" fill-rule="nonzero" transform="translate(122.18457 153.575195)"><path d="m1.90283203 6.53027344c1.23486328 0 1.97314453-.72949219 1.97314453-1.98632813v-4.02099609c0-.31640625-.18896484-.50976563-.4921875-.50976563-.30761718 0-.4921875.19335938-.4921875.50976563v4.01660156c0 .72070313-.3515625 1.11181641-.99755859 1.11181641-.47900391 0-.81738281-.27246094-.95361328-.76464844-.07910156-.29003906-.22851563-.41748047-.47900391-.41748047-.28125 0-.46142578.18457031-.46142578.48339844 0 .17578125.03515625.30322266.09228516.46142578.25927734.68994141.94482422 1.11621094 1.81054687 1.11621094z"/><path d="m6.54345703 6.50830078c.70751953 0 1.17773438-.31201172 1.43261719-.86572266h.02197266v.38671876c0 .29003906.18457031.4790039.45703124.4790039.27246094 0 .45263672-.18896484.45263672-.48339844v-3.80126953c0-.31640625-.19335937-.50537109-.47460937-.50537109-.27685547 0-.47460938.18896484-.47460938.50537109v2.27197266c0 .72070312-.41308593 1.1953125-1.09863281 1.1953125-.65478516 0-.98876953-.37792969-.98876953-1.08105469v-2.38623047c0-.31640625-.19775391-.50537109-.47460937-.50537109-.28125 0-.47460938.18896484-.47460938.50537109v2.57080078c0 1.05908203.61523438 1.71386719 1.62158203 1.71386719z"/><path d="m10.3535156 6.50830078c.2768555 0 .4746094-.18896484.4746094-.50097656v-5.50634766c0-.31201172-.1977539-.50097656-.4746094-.50097656-.2768554 0-.47460935.18896484-.47460935.50097656v5.50634766c0 .31201172.19775395.50097656.47460935.50097656z"/><path d="m12.375 8.14746094c.8569336 0 1.2919922-.37792969 1.7006836-1.4897461l1.6040039-4.24072265c.0307617-.09228516.0483398-.18896485.0483398-.26367188 0-.25488281-.1889648-.43505859-.4614257-.43505859-.2416993 0-.3735352.10546875-.4526368.36474609l-1.1821289 3.48046875h-.0131836l-1.1777343-3.48046875c-.0834961-.26367187-.2197266-.36474609-.4570313-.36474609-.2768555 0-.4833984.18017578-.4833984.43945312 0 .07470704.0175781.17138672.0527344.26806641l1.546875 4.04736328-.0878907.26806641c-.1713867.47460937-.4394531.6196289-.703125.6196289-.1098632 0-.1450195-.00439453-.2460937-.00439453-.2285156 0-.3691406.13183594-.3691406.33398438 0 .29443359.2416992.45703125.6811523.45703125z"/></g><g fill="#fff" fill-rule="nonzero" transform="translate(204.312012 117.575195)"><path d="m2.26318359 6.50830078c.28125 0 .47900391-.20214844.47900391-.50097656v-5.45800781c0-.34277344-.20654297-.54931641-.55371094-.54931641-.2109375 0-.35595703.03955078-.62402344.22851563l-1.31835937.93603515c-.18457031.12744141-.24609375.24169922-.24609375.40429688 0 .22412109.15380859.37792968.36914063.37792968.10986328 0 .1977539-.03076172.29443359-.10107422l1.09423828-.76464843h.02197266v4.92626953c0 .29882812.1977539.50097656.48339843.50097656z"/><path d="m5.27783203 6.50830078c.21533203 0 .33837891-.07910156.44384766-.28564453l2.55322265-4.96582031c.13623047-.26806641.19775391-.421875.19775391-.60644531 0-.35595704-.23291016-.56689454-.60205078-.56689454h-3.36181641c-.25488281 0-.43945312.16259766-.43945312.41308594 0 .25488281.18457031.41748047.43945312.41748047h2.953125v.02197266l-2.54882812 4.85595703c-.06152344.11865234-.08789063.20214843-.08789063.31640625 0 .23291015.18017578.39990234.45263672.39990234z"/></g><path d="m120.344156 70.5h52.311688" stroke="#eddef4"/><path d="m202.344156 70.5h52.311688" stroke="#eddef4"/><path d="m284.344156 70.5h52.311688" stroke="#eddef4"/><path d="m4.46923828 3.88916016c0-.14941407-.0571289-.27685547-.17138672-.39111328l-3.42773437-3.35302735c-.09667969-.09667969-.21533203-.14501953-.35595703-.14501953-.28564453 0-.51416016.21972656-.51416016.50537109 0 .140625.05712891.26806641.15380859.36914063l3.09375 3.01464844-3.09375 3.01464843c-.09228515.09667969-.15380859.2241211-.15380859.3647461 0 .29003906.22851563.50976562.51416016.50976562.140625 0 .25927734-.04833984.35595703-.14501953l3.42773437-3.35302734c.11865235-.11425782.17138672-.24169922.17138672-.39111328z" fill="#fff" fill-rule="nonzero" transform="translate(167.700684 152.937988)"/><path d="m4.46923828 3.88916016c0-.14941407-.0571289-.27685547-.17138672-.39111328l-3.42773437-3.35302735c-.09667969-.09667969-.21533203-.14501953-.35595703-.14501953-.28564453 0-.51416016.21972656-.51416016.50537109 0 .140625.05712891.26806641.15380859.36914063l3.09375 3.01464844-3.09375 3.01464843c-.09228515.09667969-.15380859.2241211-.15380859.3647461 0 .29003906.22851563.50976562.51416016.50976562.140625 0 .25927734-.04833984.35595703-.14501953l3.42773437-3.35302734c.11865235-.11425782.17138672-.24169922.17138672-.39111328z" fill="#fff" fill-rule="nonzero" transform="translate(249.700684 116.937988)"/></g></svg>