<svg height="375" viewBox="0 0 375 375" width="375" xmlns="http://www.w3.org/2000/svg"><g fill="none" fill-rule="evenodd"><g transform="translate(42 42)"><path d="m10.2555408-1h39.5600084c3.8492722 0 5.2310569.43613598 6.6345225 1.18671762 1.4805498.79180671 2.642494 1.95375088 3.4343007 3.43430071.7505817 1.40346563 1.1867176 2.78525029 1.1867176 6.63452247v109.4889182c0 3.849272-.4361359 5.231057-1.1867176 6.634523-.7918067 1.48055-1.9537509 2.642494-3.4343007 3.4343-1.4034656.750582-2.7852503 1.186718-6.6345225 1.186718h-39.5600084c-3.84927218 0-5.23105684-.436136-6.63452247-1.186718-1.48054983-.791806-2.642494-1.95375-3.43430071-3.4343-.75058164-1.403466-1.18671762-2.785251-1.18671762-6.634523v-109.4889182c0-3.84927218.43613598-5.23105684 1.18671762-6.63452247.79180671-1.48054983 1.95375088-2.642494 3.43430071-3.43430071 1.40346563-.75058164 2.78525029-1.18671762 6.63452247-1.18671762z" fill="#fff" stroke="#ab7bbc" stroke-width="2"/><path d="m9 112.5-2.93892626 1.545085.56128497-3.272543-2.37764129-2.317627 3.28581945-.477457 1.46946313-2.977458 1.4694631 2.977458 3.2858195.477457-2.3776413 2.317627.561285 3.272543z" fill="#b373d3"/><g fill="#eddef4"><path d="m30 73.5-13.5190608 7.1073909 2.5819109-15.0536955-10.93714997-10.6610863 15.11476947-2.1963045 6.7595304-13.6963046 6.7595304 13.6963046 15.1147695 2.1963045-10.93715 10.6610863 2.5819109 15.0536955z" opacity=".4"/><path d="m20 107h7v7h-7z" opacity=".4"/><circle cx="51.5" cy="110.5" opacity=".4" r="4.5"/></g><path d="m4 117h11v2h-11z" fill="#b373d3"/><path d="m18 117h11v2h-11z" fill="#eddef4" opacity=".4"/><path d="m32 117h11v2h-11z" fill="#eddef4" opacity=".4"/><path d="m46 117h11v2h-11z" fill="#eddef4" opacity=".4"/><path d="m0 103h61v1h-61z" fill="#ab7bbc"/><path d="m37.5 106 5 8h-10z" fill="#eddef4" opacity=".4"/></g><g transform="translate(148 128)"><path d="m146.052148-28c3.849272 0 5.231057.436136 6.634523 1.1867176 1.48055.7918067 2.642494 1.9537509 3.4343 3.4343007.750582 1.4034657 1.186718 2.7852503 1.186718 6.6345225v163.1812212c0 3.849272-.436136 5.231057-1.186718 6.634523-.791806 1.48055-1.95375 2.642494-3.4343 3.4343-1.403466.750582-2.785251 1.186718-6.634523 1.186718h-107.7966072c-3.8492722 0-5.2310568-.436136-6.6345225-1.186718-1.4805498-.791806-2.642494-1.95375-3.4343007-3.4343-.7505816-1.403466-1.1867176-2.785251-1.1867176-6.634523v-163.1812212c0-3.8492722.436136-5.2310568 1.1867176-6.6345225.7918067-1.4805498 1.9537509-2.642494 3.4343007-3.4343007 1.4034657-.7505816 2.7852503-1.1867176 6.6345225-1.1867176z" fill="#fff" stroke="#ab7bbc" stroke-width="2" transform="matrix(0 -1 1 0 27.307693 156.999997)"/><path d="m146.052148-28c3.849272 0 5.231057.436136 6.634523 1.1867176 1.48055.7918067 2.642494 1.9537509 3.4343 3.4343007.750582 1.4034657 1.186718 2.7852503 1.186718 6.6345225v163.1812212c0 3.849272-.436136 5.231057-1.186718 6.634523-.791806 1.48055-1.95375 2.642494-3.4343 3.4343-1.403466.750582-2.785251 1.186718-6.634523 1.186718h-107.7966072c-3.8492722 0-5.2310568-.436136-6.6345225-1.186718-1.4805498-.791806-2.642494-1.95375-3.4343007-3.4343-.7505816-1.403466-1.1867176-2.785251-1.1867176-6.634523v-163.1812212c0-3.8492722.436136-5.2310568 1.1867176-6.6345225.7918067-1.4805498 1.9537509-2.642494 3.4343007-3.4343007 1.4034657-.7505816 2.7852503-1.1867176 6.6345225-1.1867176z" fill="#fff" stroke="#ab7bbc" stroke-width="2" transform="matrix(0 -1 1 0 27.307693 156.999997)"/><path d="m47.3461516-7.65384845h128.3076894v134.74445945c0 3.566075-.371303 4.85922-1.068531 6.162923-.697229 1.303704-1.720383 2.326858-3.024087 3.024087-1.303703.697228-2.596848 1.068531-6.162923 1.068531h-107.7966077c-3.5660749 0-4.8592199-.371303-6.1629236-1.068531-1.3037037-.697229-2.326858-1.720383-3.0240863-3.024087-.6972284-1.303703-1.0685308-2.596848-1.0685308-6.162923z" fill="#eddef4" transform="matrix(0 -1 1 0 46.653844 176.346148)"/><path d="m0 17h38v8h-38z" fill="#b373d3"/><path d="m38 0h1v130h-1z" fill="#ab7bbc"/><path d="m5 22.5-1.76335576.927051.33677099-1.9635255-1.42658478-1.3905765 1.97149167-.2864745.88167788-1.7864745.88167788 1.7864745 1.97149167.2864745-1.42658478 1.3905765.33677099 1.9635255z" fill="#fff"/><path d="m109 83-21.1602691 11.1246118 4.0412518-23.5623059-17.1190173-16.6869177 23.6579001-3.4376941 10.5801345-21.4376941 10.580135 21.4376941 23.6579 3.4376941-17.119018 16.6869177 4.041252 23.5623059z" fill="#fff" opacity=".4"/><g fill="#eddef4"><path d="m3 29h4v4h-4z"/><circle cx="4.5" cy="47.5" r="2.5"/><path d="m4.5 37 2.5 4h-5z"/></g></g></g></svg>