<svg height="375" viewBox="0 0 375 375" width="375" xmlns="http://www.w3.org/2000/svg"><g fill="none" fill-rule="evenodd" transform="translate(76 42)"><g stroke="#ab7bbc"><path d="m131.744459 70c3.849272 0 5.231057.436136 6.634523 1.1867176 1.48055.7918067 2.642494 1.9537509 3.4343 3.4343007.750582 1.4034657 1.186718 2.7852503 1.186718 6.6345225v109.3350722c0 3.849272-.436136 5.231057-1.186718 6.634523-.791806 1.480549-1.95375 2.642494-3.4343 3.4343-1.403466.750582-2.785251 1.186718-6.634523 1.186718h-39.4889182c-3.8492722 0-5.2310568-.436136-6.6345225-1.186718-1.4805498-.791806-2.642494-1.953751-3.4343007-3.4343-.7505816-1.403466-1.1867176-2.785251-1.1867176-6.634523v-109.3350722c0-3.8492722.436136-5.2310568 1.1867176-6.6345225.7918067-1.4805498 1.9537509-2.642494 3.4343007-3.4343007 1.4034657-.7505816 2.7852503-1.1867176 6.6345225-1.1867176z" fill="#eddef4" stroke-width="2"/><path d="m94.590287 88.5c2.0871982 0 2.851094.1996473 3.6160278.6087384.7263918.3884785 1.2964683.958555 1.6849468 1.6849468.4090914.7649338.6087384 1.5288296.6087384 3.6160278v3.180574c0 2.0871982-.199647 2.851094-.6087384 3.616028-.3884785.726392-.958555 1.296468-1.6849468 1.684947-.7649338.409091-1.5288296.608738-3.6160278.608738h-3.180574c-2.0871982 0-2.851094-.199647-3.6160278-.608738-.7263918-.388479-1.2964683-.958555-1.6849468-1.684947-.4090911-.764934-.6087384-1.5288298-.6087384-3.616028v-3.180574c0-2.0871982.1996473-2.851094.6087384-3.6160278.3884785-.7263918.958555-1.2964683 1.6849468-1.6849468.7649338-.4090911 1.5288296-.6087384 3.6160278-.6087384z" fill="#fff"/><path d="m94.590287 108.5c2.0871982 0 2.851094.199647 3.6160278.608738.7263918.388479 1.2964683.958555 1.6849468 1.684947.4090914.764934.6087384 1.52883.6087384 3.616028v3.180574c0 2.087198-.199647 2.851094-.6087384 3.616028-.3884785.726392-.958555 1.296468-1.6849468 1.684947-.7649338.409091-1.5288296.608738-3.6160278.608738h-3.180574c-2.0871982 0-2.851094-.199647-3.6160278-.608738-.7263918-.388479-1.2964683-.958555-1.6849468-1.684947-.4090911-.764934-.6087384-1.52883-.6087384-3.616028v-3.180574c0-2.087198.1996473-2.851094.6087384-3.616028.3884785-.726392.958555-1.296468 1.6849468-1.684947.7649338-.409091 1.5288296-.608738 3.6160278-.608738z" fill="#fff"/><path d="m113.590287 88.5c2.087198 0 2.851094.1996473 3.616028.6087384.726392.3884785 1.296468.958555 1.684947 1.6849468.409091.7649338.608738 1.5288296.608738 3.6160278v3.180574c0 2.0871982-.199647 2.851094-.608738 3.616028-.388479.726392-.958555 1.296468-1.684947 1.684947-.764934.409091-1.52883.608738-3.616028.608738h-3.180574c-2.087198 0-2.851094-.199647-3.616028-.608738-.726392-.388479-1.296468-.958555-1.684947-1.684947-.409091-.764934-.608738-1.5288298-.608738-3.616028v-3.180574c0-2.0871982.199647-2.851094.608738-3.6160278.388479-.7263918.958555-1.2964683 1.684947-1.6849468.764934-.4090911 1.52883-.6087384 3.616028-.6087384z" fill="#fff"/><path d="m113.590287 108.5c2.087198 0 2.851094.199647 3.616028.608738.726392.388479 1.296468.958555 1.684947 1.684947.409091.764934.608738 1.52883.608738 3.616028v3.180574c0 2.087198-.199647 2.851094-.608738 3.616028-.388479.726392-.958555 1.296468-1.684947 1.684947-.764934.409091-1.52883.608738-3.616028.608738h-3.180574c-2.087198 0-2.851094-.199647-3.616028-.608738-.726392-.388479-1.296468-.958555-1.684947-1.684947-.409091-.764934-.608738-1.52883-.608738-3.616028v-3.180574c0-2.087198.199647-2.851094.608738-3.616028.388479-.726392.958555-1.296468 1.684947-1.684947.764934-.409091 1.52883-.608738 3.616028-.608738z" fill="#fff"/><path d="m132.590287 88.5c2.087198 0 2.851094.1996473 3.616028.6087384.726392.3884785 1.296468.958555 1.684947 1.6849468.409091.7649338.608738 1.5288296.608738 3.6160278v3.180574c0 2.0871982-.199647 2.851094-.608738 3.616028-.388479.726392-.958555 1.296468-1.684947 1.684947-.764934.409091-1.52883.608738-3.616028.608738h-3.180574c-2.087198 0-2.851094-.199647-3.616028-.608738-.726392-.388479-1.296468-.958555-1.684947-1.684947-.409091-.764934-.608738-1.5288298-.608738-3.616028v-3.180574c0-2.0871982.199647-2.851094.608738-3.6160278.388479-.7263918.958555-1.2964683 1.684947-1.6849468.764934-.4090911 1.52883-.6087384 3.616028-.6087384z" fill="#fff"/><path d="m132.590287 108.5c2.087198 0 2.851094.199647 3.616028.608738.726392.388479 1.296468.958555 1.684947 1.684947.409091.764934.608738 1.52883.608738 3.616028v3.180574c0 2.087198-.199647 2.851094-.608738 3.616028-.388479.726392-.958555 1.296468-1.684947 1.684947-.764934.409091-1.52883.608738-3.616028.608738h-3.180574c-2.087198 0-2.851094-.199647-3.616028-.608738-.726392-.388479-1.296468-.958555-1.684947-1.684947-.409091-.764934-.608738-1.52883-.608738-3.616028v-3.180574c0-2.087198.199647-2.851094.608738-3.616028.388479-.726392.958555-1.296468 1.684947-1.684947.764934-.409091 1.52883-.608738 3.616028-.608738z" fill="#fff"/><path d="m94.590287 128.5c2.0871982 0 2.851094.199647 3.6160278.608738.7263918.388479 1.2964683.958555 1.6849468 1.684947.4090914.764934.6087384 1.52883.6087384 3.616028v3.180574c0 2.087198-.199647 2.851094-.6087384 3.616028-.3884785.726392-.958555 1.296468-1.6849468 1.684947-.7649338.409091-1.5288296.608738-3.6160278.608738h-3.180574c-2.0871982 0-2.851094-.199647-3.6160278-.608738-.7263918-.388479-1.2964683-.958555-1.6849468-1.684947-.4090911-.764934-.6087384-1.52883-.6087384-3.616028v-3.180574c0-2.087198.1996473-2.851094.6087384-3.616028.3884785-.726392.958555-1.296468 1.6849468-1.684947.7649338-.409091 1.5288296-.608738 3.6160278-.608738z" fill="#fff"/><path d="m113.590287 128.5c2.087198 0 2.851094.199647 3.616028.608738.726392.388479 1.296468.958555 1.684947 1.684947.409091.764934.608738 1.52883.608738 3.616028v3.180574c0 2.087198-.199647 2.851094-.608738 3.616028-.388479.726392-.958555 1.296468-1.684947 1.684947-.764934.409091-1.52883.608738-3.616028.608738h-3.180574c-2.087198 0-2.851094-.199647-3.616028-.608738-.726392-.388479-1.296468-.958555-1.684947-1.684947-.409091-.764934-.608738-1.52883-.608738-3.616028v-3.180574c0-2.087198.199647-2.851094.608738-3.616028.388479-.726392.958555-1.296468 1.684947-1.684947.764934-.409091 1.52883-.608738 3.616028-.608738z" fill="#fff"/><path d="m132.590287 128.5c2.087198 0 2.851094.199647 3.616028.608738.726392.388479 1.296468.958555 1.684947 1.684947.409091.764934.608738 1.52883.608738 3.616028v3.180574c0 2.087198-.199647 2.851094-.608738 3.616028-.388479.726392-.958555 1.296468-1.684947 1.684947-.764934.409091-1.52883.608738-3.616028.608738h-3.180574c-2.087198 0-2.851094-.199647-3.616028-.608738-.726392-.388479-1.296468-.958555-1.684947-1.684947-.409091-.764934-.608738-1.52883-.608738-3.616028v-3.180574c0-2.087198.199647-2.851094.608738-3.616028.388479-.726392.958555-1.296468 1.684947-1.684947.764934-.409091 1.52883-.608738 3.616028-.608738z" fill="#fff"/><path d="m94.590287 148.5c2.0871982 0 2.851094.199647 3.6160278.608738.7263918.388479 1.2964683.958555 1.6849468 1.684947.4090914.764934.6087384 1.52883.6087384 3.616028v3.180574c0 2.087198-.199647 2.851094-.6087384 3.616028-.3884785.726392-.958555 1.296468-1.6849468 1.684947-.7649338.409091-1.5288296.608738-3.6160278.608738h-3.180574c-2.0871982 0-2.851094-.199647-3.6160278-.608738-.7263918-.388479-1.2964683-.958555-1.6849468-1.684947-.4090911-.764934-.6087384-1.52883-.6087384-3.616028v-3.180574c0-2.087198.1996473-2.851094.6087384-3.616028.3884785-.726392.958555-1.296468 1.6849468-1.684947.7649338-.409091 1.5288296-.608738 3.6160278-.608738z" fill="#fff"/><path d="m94.590287 168.5c2.0871982 0 2.851094.199647 3.6160278.608738.7263918.388479 1.2964683.958555 1.6849468 1.684947.4090914.764934.6087384 1.52883.6087384 3.616028v3.180574c0 2.087198-.199647 2.851094-.6087384 3.616028-.3884785.726392-.958555 1.296468-1.6849468 1.684947-.7649338.409091-1.5288296.608738-3.6160278.608738h-3.180574c-2.0871982 0-2.851094-.199647-3.6160278-.608738-.7263918-.388479-1.2964683-.958555-1.6849468-1.684947-.4090911-.764934-.6087384-1.52883-.6087384-3.616028v-3.180574c0-2.087198.1996473-2.851094.6087384-3.616028.3884785-.726392.958555-1.296468 1.6849468-1.684947.7649338-.409091 1.5288296-.608738 3.6160278-.608738z" fill="#fff"/><path d="m113.590287 148.5c2.087198 0 2.851094.199647 3.616028.608738.726392.388479 1.296468.958555 1.684947 1.684947.409091.764934.608738 1.52883.608738 3.616028v3.180574c0 2.087198-.199647 2.851094-.608738 3.616028-.388479.726392-.958555 1.296468-1.684947 1.684947-.764934.409091-1.52883.608738-3.616028.608738h-3.180574c-2.087198 0-2.851094-.199647-3.616028-.608738-.726392-.388479-1.296468-.958555-1.684947-1.684947-.409091-.764934-.608738-1.52883-.608738-3.616028v-3.180574c0-2.087198.199647-2.851094.608738-3.616028.388479-.726392.958555-1.296468 1.684947-1.684947.764934-.409091 1.52883-.608738 3.616028-.608738z" fill="#fff"/><path d="m113.590287 168.5c2.087198 0 2.851094.199647 3.616028.608738.726392.388479 1.296468.958555 1.684947 1.684947.409091.764934.608738 1.52883.608738 3.616028v3.180574c0 2.087198-.199647 2.851094-.608738 3.616028-.388479.726392-.958555 1.296468-1.684947 1.684947-.764934.409091-1.52883.608738-3.616028.608738h-3.180574c-2.087198 0-2.851094-.199647-3.616028-.608738-.726392-.388479-1.296468-.958555-1.684947-1.684947-.409091-.764934-.608738-1.52883-.608738-3.616028v-3.180574c0-2.087198.199647-2.851094.608738-3.616028.388479-.726392.958555-1.296468 1.684947-1.684947.764934-.409091 1.52883-.608738 3.616028-.608738z" fill="#fff"/><path d="m132.590287 148.5c2.087198 0 2.851094.199647 3.616028.608738.726392.388479 1.296468.958555 1.684947 1.684947.409091.764934.608738 1.52883.608738 3.616028v3.180574c0 2.087198-.199647 2.851094-.608738 3.616028-.388479.726392-.958555 1.296468-1.684947 1.684947-.764934.409091-1.52883.608738-3.616028.608738h-3.180574c-2.087198 0-2.851094-.199647-3.616028-.608738-.726392-.388479-1.296468-.958555-1.684947-1.684947-.409091-.764934-.608738-1.52883-.608738-3.616028v-3.180574c0-2.087198.199647-2.851094.608738-3.616028.388479-.726392.958555-1.296468 1.684947-1.684947.764934-.409091 1.52883-.608738 3.616028-.608738z" fill="#fff"/><path d="m132.590287 168.5c2.087198 0 2.851094.199647 3.616028.608738.726392.388479 1.296468.958555 1.684947 1.684947.409091.764934.608738 1.52883.608738 3.616028v3.180574c0 2.087198-.199647 2.851094-.608738 3.616028-.388479.726392-.958555 1.296468-1.684947 1.684947-.764934.409091-1.52883.608738-3.616028.608738h-3.180574c-2.087198 0-2.851094-.199647-3.616028-.608738-.726392-.388479-1.296468-.958555-1.684947-1.684947-.409091-.764934-.608738-1.52883-.608738-3.616028v-3.180574c0-2.087198.199647-2.851094.608738-3.616028.388479-.726392.958555-1.296468 1.684947-1.684947.764934-.409091 1.52883-.608738 3.616028-.608738z" fill="#fff"/></g><path d="m164 108-40 63.827631v8.245367l40 52.254755z" fill="#b373d3" opacity=".34"/><path d="m98.4898597 89.0931644-38.4898597-85.23153569-55 106.13837129 52.2943572 19.846154 41.1955025-26.42377c1.3244066-1.080455 1.9866103-2.870632 1.9866103-5.3705312 0-2.0651096.500531-4.1407043-.403249-6.8695615-.1268544-.3830234-.6546416-1.079399-1.5833613-2.0891269z" fill="#b373d3" opacity=".34"/><path d="m213.744459 105c3.849272 0 5.231057.436136 6.634523 1.186718 1.48055.791806 2.642494 1.95375 3.4343 3.4343.750582 1.403466 1.186718 2.785251 1.186718 6.634523v109.335072c0 3.849272-.436136 5.231057-1.186718 6.634523-.791806 1.480549-1.95375 2.642494-3.4343 3.4343-1.403466.750582-2.785251 1.186718-6.634523 1.186718h-39.488918c-3.849272 0-5.231057-.436136-6.634523-1.186718-1.48055-.791806-2.642494-1.953751-3.4343-3.4343-.750582-1.403466-1.186718-2.785251-1.186718-6.634523v-109.335072c0-3.849272.436136-5.231057 1.186718-6.634523.791806-1.48055 1.95375-2.642494 3.4343-3.4343 1.403466-.750582 2.785251-1.186718 6.634523-1.186718z" fill="#fff" stroke="#ab7bbc" stroke-width="2"/><path d="m10.2555408-1h39.4889184c3.8492722 0 5.2310568.43613598 6.6345225 1.18671762 1.4805498.79180671 2.642494 1.95375088 3.4343007 3.43430071.7505816 1.40346563 1.1867176 2.78525029 1.1867176 6.63452247v109.3350722c0 3.849272-.436136 5.231057-1.1867176 6.634523-.7918067 1.480549-1.9537509 2.642494-3.4343007 3.4343-1.4034657.750582-2.7852503 1.186718-6.6345225 1.186718h-39.4889184c-3.84927218 0-5.23105684-.436136-6.63452247-1.186718-1.48054983-.791806-2.642494-1.953751-3.43430071-3.4343-.75058164-1.403466-1.18671762-2.785251-1.18671762-6.634523v-109.3350722c0-3.84927218.43613598-5.23105684 1.18671762-6.63452247.79180671-1.48054983 1.95375088-2.642494 3.43430071-3.43430071 1.40346563-.75058164 2.78525029-1.18671762 6.63452247-1.18671762z" fill="#fff" stroke="#ab7bbc" stroke-width="2"/><path d="m17 125h28c.5522847 0 1 .447715 1 1s-.4477153 1-1 1h-28c-.5522847 0-1-.447715-1-1s.4477153-1 1-1z" fill="#b373d3"/><path d="m181 231h28c.552285 0 1 .447715 1 1s-.447715 1-1 1h-28c-.552285 0-1-.447715-1-1s.447715-1 1-1z" fill="#b373d3"/><path d="m174.156637 184.766572 5.96085 8.10668-10.061854-.095328 1.801367-3.520924-.042381-.017166c-19.132786-7.78037-36.702694-.48113-45.287078 17.101709-8.878381 18.185015-5.934933 42.644007 9.515736 63.604288l-.804941.593355c-15.665285-21.251427-18.656352-46.106114-9.609414-64.636372 8.828643-18.083139 27.007095-25.603645 46.685374-17.539112z" fill="#b373d3" fill-rule="nonzero" opacity=".5" transform="matrix(-.2419219 -.97029573 .97029573 -.2419219 -34.40067 428.989275)"/><path d="m67.1921788 132.061649-.5929893.80521c-25.253111-18.597409-41.6505698-9.85972-39.4524055 22.017898l3.9502287-.450135-3.448432 9.452953-5.493303-8.430518 3.9977223-.457057-.0301867-.442222c-2.0869671-32.411199 15.2376585-41.51964 41.0693655-22.496129z" fill="#b373d3" fill-rule="nonzero" opacity=".5" transform="matrix(-.2419219 -.97029573 .97029573 -.2419219 -80.845969 222.954601)"/></g></svg>