<svg height="240" viewBox="0 0 375 240" width="375" xmlns="http://www.w3.org/2000/svg"><g fill="none" fill-rule="evenodd"><g transform="translate(148 42)"><path d="m19.2555408-1h39.5600084c3.8492722 0 5.2310569.43613598 6.6345225 1.18671762 1.4805498.79180671 2.642494 1.95375088 3.4343007 3.43430071.7505817 1.40346563 1.1867176 2.78525029 1.1867176 6.63452247v109.4889182c0 3.849272-.4361359 5.231057-1.1867176 6.634523-.7918067 1.48055-1.9537509 2.642494-3.4343007 3.4343-1.4034656.750582-2.7852503 1.186718-6.6345225 1.186718h-39.5600084c-3.8492722 0-5.2310568-.436136-6.6345225-1.186718-1.4805498-.791806-2.64249397-1.95375-3.43430068-3.4343-.75058164-1.403466-1.18671762-2.785251-1.18671762-6.634523v-109.4889182c0-3.84927218.43613598-5.23105684 1.18671762-6.63452247.79180671-1.48054983 1.95375088-2.642494 3.43430068-3.43430071 1.4034657-.75058164 2.7852503-1.18671762 6.6345225-1.18671762z" fill="#eddef4" stroke="#ab7bbc" stroke-width="2"/><path d="m71.3083444 24.5c2.5329576 0 3.4584965.2460601 4.3863933.7423047.8893547.4756321 1.5873255 1.1736029 2.0629576 2.0629576.4962446.9278968.7423047 1.8534357.7423047 4.3863933v44.6166888c0 2.5329576-.2460601 3.4584965-.7423047 4.3863933-.4756321.8893547-1.1736029 1.5873255-2.0629576 2.0629576-.9278968.4962446-1.8534357.7423047-4.3863933.7423047h-63.6166888c-2.53295761 0-3.45849647-.2460601-4.38639328-.7423047-.88935472-.4756321-1.5873255-1.1736029-2.06295761-2.0629576-.49624464-.9278968-.74230471-1.8534357-.74230471-4.3863933v-44.6166888c0-2.5329576.24606007-3.4584965.74230471-4.3863933.47563211-.8893547 1.17360289-1.5873255 2.06295761-2.0629576.92789681-.4962446 1.85343567-.7423047 4.38639328-.7423047z" fill="#fff" stroke="#ab7bbc"/><g fill="#b373d3" fill-rule="nonzero" transform="translate(33.470703 70.548828)"><path d="m3.05859375 6.55664062c1.87646484 0 3.05859375-1.25683593 3.05859375-3.27392578 0-2.02148437-1.18212891-3.28271484-3.05859375-3.28271484-1.88085937 0-3.05859375 1.26123047-3.05859375 3.28271484 0 2.01708985 1.17773438 3.27392578 3.05859375 3.27392578zm0-1.10742187c-1.04150391 0-1.70507813-.83935547-1.70507813-2.16650391 0-1.33154296.66796876-2.17529296 1.70507813-2.17529296s1.70068359.84375 1.70068359 2.17529296c0 1.32714844-.66357422 2.16650391-1.70068359 2.16650391z"/><path d="m7.63330078 6.53466797c.41748047 0 .66357422-.25488281.66357422-.68994141v-1.33154297l.6328125-.66357422 1.8896484 2.32470704c.206543.26367187.3911133.36474609.6635743.36474609.364746 0 .6416015-.28125.6416015-.64160156 0-.18017578-.0878906-.36914063-.2856445-.61523438l-1.90283204-2.31152344 1.74902344-1.83251953c.1669922-.17578125.2329102-.32080078.2329102-.50537109 0-.34277344-.272461-.61083984-.6240235-.61083984-.2197265 0-.3867187.08349609-.5712891.28564453l-2.38623042 2.60595703h-.03955078v-2.19726563c0-.43945312-.24609375-.69433593-.66357422-.69433593s-.66357422.25488281-.66357422.69433593v5.12841797c0 .4350586.24609375.68994141.66357422.68994141z"/></g></g><path d="m150.487013 107.5h74.025974" stroke="#eddef4"/><g fill="#d2bcdd"><path d="m157 77h61v3h-61z"/><path d="m159 84h57v3h-57z"/><path d="m159 98h57v3h-57z"/><path d="m157 91h61v3h-61z"/></g></g></svg>