<svg height="375" viewBox="0 0 375 375" width="375" xmlns="http://www.w3.org/2000/svg"><g fill="none" fill-rule="evenodd"><g transform="translate(42 42)"><path d="m52-1c1.6568542 0 3.1568542.67157287 4.2426407 1.75735931 1.0857864 1.08578644 1.7573593 2.58578644 1.7573593 4.24264069v96h-56v-96c0-1.65685425.67157288-3.15685425 1.75735931-4.24264069 1.08578644-1.08578644 2.58578644-1.75735931 4.24264069-1.75735931z" fill="#eddef4" stroke="#ab7bbc" stroke-width="2"/><path d="m53.590287 59.5c2.0871982 0 2.851094.1996473 3.6160278.6087384.7263918.3884785 1.2964683.958555 1.6849468 1.6849468.4090911.7649338.6087384 1.5288296.6087384 3.6160278v41.402906l-2.5189238-2.519734-3.5009782 3.500008-3.4990296-3.5-3.5009704 3.5-3.4990214-3.499992-3.0009622 2.999992-2.9990378-3.000008-3.5009786 3.500008-3.4990296-3.5-3.5009704 3.5-3.4990296-3.5-3.5009704 3.5-3.4990296-3.5-3.5009704 3.5-3.49902566-3.499996-3.24101941 3.240049-3.24005293-3.240053-2 2v-40.88318c0-2.0871982.19964726-2.851094.60873836-3.6160278.38847856-.7263918.95855506-1.2964683 1.68494681-1.6849468.76493385-.4090911 1.52882959-.6087384 3.61602783-.6087384z" fill="#fff" stroke="#ab7bbc"/><path d="m4.640625 9.28564453c2.54882812 0 4.640625-2.09619141 4.640625-4.64501953 0-2.54443359-2.09619141-4.640625-4.640625-4.640625-2.54882812 0-4.640625 2.09619141-4.640625 4.640625 0 2.54882812 2.09619141 4.64501953 4.640625 4.64501953zm-1.38427734-2.75537109c-.28125 0-.50097657-.2241211-.50097657-.50976563 0-.1274414.05273438-.25488281.14941407-.34716797l1.02392578-1.02392578-1.02392578-1.02392578c-.09667969-.09667969-.14941407-.21972656-.14941407-.34716797 0-.29003906.21972657-.50537109.50097657-.50537109.15380859 0 .2680664.04833984.36914062.14501953l1.01513672 1.01513672 1.02392578-1.01513672c.10546875-.10546875.21972656-.14941406.36914063-.14941406.28125 0 .50097656.21972656.50097656.50097656 0 .13183594-.04833985.25488281-.14941406.3515625l-1.02392579 1.02832031 1.01953126 1.01953125c.10107421.09667969.15380859.21972657.15380859.3515625 0 .28564453-.21972656.50976563-.50537109.50976563-.14941407 0-.27685547-.05273438-.37353516-.14941406l-1.01513672-1.01513672-1.01074219 1.01513672c-.09667969.09667968-.21972656.14941406-.37353515.14941406z" fill="#b373d3" fill-rule="nonzero" transform="translate(46.786621 63.186523)"/></g><path d="m84.7800042-35.964455c3.8492722 0 5.2310569.436136 6.6345225 1.1867176 1.4805498.7918068 2.642494 1.9537509 3.4343007 3.4343008.7505816 1.4034656 1.1867176 2.7852502 1.1867176 6.6345224v109.4889184c0 3.8492722-.436136 5.2310569-1.1867176 6.6345225-.7918067 1.4805498-1.9537509 2.642494-3.4343007 3.4343007-1.4034656.7505816-2.7852503 1.1867176-6.6345225 1.1867176h-39.5600084c-3.8492722 0-5.2310569-.436136-6.6345225-1.1867176-1.4805498-.7918067-2.642494-1.9537509-3.4343007-3.4343007-.7505816-1.4034656-1.1867176-2.7852503-1.1867176-6.6345225v-109.4889184c0-3.8492722.436136-5.2310568 1.1867176-6.6345224.7918067-1.4805499 1.9537509-2.642494 3.4343007-3.4343008 1.4034656-.7505816 2.7852503-1.1867176 6.6345225-1.1867176z" fill="#fff" stroke="#ab7bbc" stroke-width="2" transform="matrix(0 1 -1 0 307.035545 7.035545)"/><g fill="#b373d3" fill-rule="nonzero"><path d="m.18896484 7.07850567c.25927735.25488281.69873047.25048828.93603516.00878906l2.50927734-2.50927734 2.50927735 2.50927734c.24609375.24609375.68115234.24609375.93164062-.00878906.25488282-.25927735.25927735-.68554688.00878907-.93603516l-2.50488282-2.50927734 2.50488282-2.50488282c.25048828-.25048828.25048828-.68115234-.00878907-.93603515-.25488281-.25488281-.68554687-.25488281-.93164062-.00878906l-2.50927735 2.50927734-2.50927734-2.50927734c-.23730469-.24169922-.68115234-.25048829-.93603516.00878906-.25488281.25488281-.24609375.69433594-.00878906.93603515l2.51367188 2.50488282-2.51367188 2.51367187c-.23730469.23730469-.24609375.68115235.00878906.93164063z" transform="translate(329.08506 48.233895)"/><path d="m.74707031 8.10791016c.20214844 0 .38671875-.06591797.6328125-.20654297l5.2734375-3.05859375c.40429688-.23291016.60644531-.44824219.60644531-.79101563 0-.3383789-.20214843-.55371093-.60644531-.79101562l-5.2734375-3.05859375c-.24609375-.140625-.43066406-.20214844-.6328125-.20214844-.41308593 0-.74707031.31201172-.74707031.83935547v6.42480469c0 .52734375.33398438.84375.74707031.84375z" transform="translate(273.08506 82.81533)"/><path d="m.83056641 7.33886719c.21533203 0 .4086914-.05712891.6196289-.18017578l4.53955078-2.65869141c.2944336-.17138672.49658203-.37792969.5625-.64599609v2.54003906c0 .60644531.38232422.94482422.83056641.94482422.21533203 0 .40869141-.05712891.61962891-.18017578l4.53955079-2.65869141c.3603516-.2109375.5844726-.47460938.5844726-.83496094 0-.36474609-.215332-.61083984-.5844726-.8305664l-4.53955079-2.65869141c-.2109375-.11865234-.40429688-.17578125-.62402344-.17578125-.45263672 0-.82617188.33398438-.82617188.94042969v2.53125c-.06591797-.26367188-.26367187-.46142578-.5625-.63720703l-4.53955078-2.65869141c-.2109375-.11865234-.40429687-.17578125-.62402343-.17578125-.44824219 0-.82617188.33398438-.82617188.94042969v5.45361328c0 .60644531.38232422.94482422.83056641.94482422z" transform="translate(288.08506 83.166893)"/><path d="m5.73925781 7.33886719c.45263672 0 .83056641-.33837891.83056641-.94482422v-2.54003906c.06591797.2680664.27246094.47460937.5625.64599609l4.54394528 2.65869141c.206543.12304687.3999024.18017578.6152344.18017578.4526367 0 .8305664-.33837891.8305664-.94482422v-5.45361328c0-.60644531-.3735351-.94042969-.8261719-.94042969-.215332 0-.4086914.05712891-.6196289.17578125l-4.54394528 2.65869141c-.29882813.17578125-.49658203.37353515-.5625.63720703v-2.53125c0-.60644531-.37353516-.94042969-.82177734-.94042969-.21972657 0-.41308594.05712891-.62402344.17578125l-4.53955078 2.65869141c-.36914063.21972656-.58447266.46582031-.58447266.8305664 0 .36035156.22412109.62402344.58447266.83496094l4.53955078 2.65869141c.20654297.12304687.39990234.18017578.61523437.18017578z" transform="translate(251.078713 83.166893)"/></g><g transform="translate(42 202)"><path d="m145.744455-28.692307c3.849272 0 5.231057.436136 6.634523 1.1867176 1.48055.7918067 2.642494 1.9537509 3.4343 3.4343007.750582 1.4034657 1.186718 2.7852503 1.186718 6.6345225v163.1812212c0 3.849272-.436136 5.231057-1.186718 6.634523-.791806 1.48055-1.95375 2.642494-3.4343 3.4343-1.403466.750582-2.785251 1.186718-6.634523 1.186718h-107.7966072c-3.8492722 0-5.2310568-.436136-6.6345225-1.186718-1.4805498-.791806-2.642494-1.95375-3.4343007-3.4343-.7505816-1.403466-1.1867176-2.785251-1.1867176-6.634523v-163.1812212c0-3.8492722.436136-5.2310568 1.1867176-6.6345225.7918067-1.4805498 1.9537509-2.642494 3.4343007-3.4343007 1.4034657-.7505816 2.7852503-1.1867176 6.6345225-1.1867176z" fill="#eddef4" stroke="#ab7bbc" stroke-width="2" transform="matrix(0 -1 1 0 27.692307 155.999997)"/><path d="m172.134582 19.6521352 5.03669 5.50903h16.303629c2.087198 0 2.851094.1996473 3.616028.6087384.726392.3884786 1.296468.9585551 1.684947 1.6849468.409091.7649339.608738 1.5288296.608738 3.6160278v76.1805738c0 2.087198-.199647 2.851094-.608738 3.616028-.388479.726392-.958555 1.296468-1.684947 1.684947-.764934.409091-1.52883.608738-3.616028.608738h-43.180574c-2.087198 0-2.851094-.199647-3.616028-.608738-.726392-.388479-1.296468-.958555-1.684947-1.684947-.409091-.764934-.608738-1.52883-.608738-3.616028v-76.1805738c0-2.0871982.199647-2.8510939.608738-3.6160278.388479-.7263917.958555-1.2964682 1.684947-1.6849468.764934-.4090911 1.52883-.6087384 3.616058-.6087384l16.803585-.0010133z" fill="#fff" stroke="#ab7bbc"/><path d="m4.640625 9.28564453c2.54882812 0 4.640625-2.09619141 4.640625-4.64501953 0-2.54443359-2.09619141-4.640625-4.640625-4.640625-2.54882812 0-4.640625 2.09619141-4.640625 4.640625 0 2.54882812 2.09619141 4.64501953 4.640625 4.64501953zm0-1.15576172c-1.92919922 0-3.48046875-1.55566406-3.48046875-3.48925781 0-1.92919922 1.546875-3.48486328 3.48046875-3.48486328 1.92919922 0 3.48486328 1.55566406 3.48486328 3.48486328 0 1.93359375-1.55126953 3.48925781-3.48486328 3.48925781zm-2.03466797-2.78613281c.38671875 0 .703125-.31640625.703125-.703125s-.31640625-.703125-.703125-.703125-.703125.31640625-.703125.703125.31640625.703125.703125.703125zm2.03027344 0c.38671875 0 .69873047-.31640625.69873047-.703125s-.31201172-.703125-.69873047-.703125c-.39111328 0-.703125.31640625-.703125.703125s.31201172.703125.703125.703125zm2.02587891 0c.38671874 0 .69873046-.31640625.69873046-.703125s-.31201172-.703125-.69873046-.703125c-.38671876 0-.703125.31640625-.703125.703125s.31640624.703125.703125.703125z" fill="#b373d3" fill-rule="nonzero" transform="translate(167.171235 7.186523)"/></g><g transform="translate(239 136)"><path d="m.5.5h75v15h-75z" fill="#fff" opacity=".3" stroke="#b373d3"/><path d="m98.590287 4.5c2.087198 0 2.851094.19964726 3.616028.60873836.726392.38847856 1.296468.95855506 1.684947 1.68494681.409091.76493385.608738 1.52882959.608738 3.61602783v47.180574c0 2.0871982-.199647 2.851094-.608738 3.6160278-.388479.7263918-.958555 1.2964683-1.684947 1.6849468-.764934.4090911-1.52883.6087384-3.616028.6087384h-77.180574c-2.0871982 0-2.851094-.1996473-3.6160278-.6087384-.7263918-.3884785-1.2964683-.958555-1.6849468-1.6849468-.4090911-.7649338-.6087384-1.5288296-.6087384-3.6160278v-47.180574c0-2.08719824.1996473-2.85109398.6087384-3.61602783.3884785-.72639175.958555-1.29646825 1.6849468-1.68494681.7649338-.4090911 1.5288296-.60873836 3.6160278-.60873836z" fill="#fff" stroke="#ab7bbc"/><g fill="#b373d3" fill-rule="nonzero" transform="translate(37.373535 11.553223)"><path d="m2.37304688 6.55224609c1.48095703 0 2.42138671-.75146484 2.42138671-1.94677734 0-.92285156-.54492187-1.45458984-1.87646484-1.73583984l-.68994141-.14501953c-.82177734-.17578126-1.15136718-.48339844-1.15136718-.94482422 0-.58007813.5493164-.94042969 1.29199218-.94042969.6328125 0 1.11621094.25048828 1.33154297.83496094.10107422.22851562.24609375.3383789.48339844.3383789.25488281 0 .43505859-.16699219.43505859-.421875 0-.09228515-.01318359-.16699219-.03515625-.22851562-.24609375-.84814453-1.10742187-1.36230469-2.20166015-1.36230469-1.3491211 0-2.30273438.74707031-2.30273438 1.83251953 0 .9140625.5756836 1.50292969 1.8413086 1.77099609l.69433593.14501954c.84814453.18457031 1.18212891.4921875 1.18212891.984375 0 .56689453-.57568359.97998046-1.37988281.97998046-.73388672 0-1.30957031-.27685546-1.50732422-.87011718-.09667969-.23730469-.24169922-.33837891-.46582031-.33837891-.26806641 0-.44384766.18457031-.44384766.47021485 0 .10546874.02197266.2109375.05273438.30761718.24609375.73828125 1.08984374 1.27001953 2.3203125 1.27001953z"/><path d="m6.07324219 6.53027344c.27685547 0 .47460937-.18896485.47460937-.50097656v-2.25439454c0-.72949218.43066406-1.21289062 1.13378906-1.21289062.66796876 0 1.01074219.4086914 1.01074219 1.08984375v2.37744141c0 .31201171.19775391.50097656.47460938.50097656.28125 0 .4790039-.18896485.4790039-.50097656v-2.56201172c0-1.04589844-.60644531-1.72265625-1.62158203-1.72265625-.703125 0-1.20849609.31201171-1.4633789.85253906h-.02197266v-2.08300781c0-.29882813-.17578125-.4921875-.47021484-.4921875-.29003907 0-.47021485.19335937-.47021485.4921875v5.51513672c0 .31201171.19775391.50097656.47460938.50097656z"/><path d="m11.9135742 6.52587891c.6020508 0 1.190918-.32519532 1.4589844-.83935547h.0219726v.39111328c.0087891.28125.1889649.45263672.4526368.45263672.2680664 0 .4570312-.18017578.4570312-.47900391v-2.79052734c0-.9272461-.7163086-1.52050781-1.836914-1.52050781-.8305664 0-1.5292969.33398437-1.7709961.85693359-.0571289.10546875-.0834961.2109375-.0834961.30761719 0 .23730468.1713867.39550781.4086914.39550781.1669922 0 .290039-.06152344.3867187-.20214844.2636719-.421875.5668946-.58447265 1.0239258-.58447265.5800781 0 .9272461.30761718.9272461.82177734v.35595703l-1.2700195.07470703c-1.0942383.06152344-1.7182617.55810547-1.7182617 1.36669922 0 .83056641.637207 1.39306641 1.5424804 1.39306641zm.2592774-.75146485c-.5053711 0-.84375-.26367187-.84375-.66796875 0-.39550781.3208007-.64599609.8876953-.68554687l1.1425781-.0703125v.36474609c0 .60205078-.5229492 1.05908203-1.1865234 1.05908203z"/><path d="m15.6972656 6.53027344c.28125 0 .4746094-.19335938.4746094-.50097656v-2.35986329c0-.57568359.2636719-1.01074218.9140625-1.01513671.1977539 0 .3383789-.03955079.4350586-.12304688.0922851-.07470703.140625-.18457031.140625-.33398438 0-.14941406-.0395508-.26367187-.1274414-.33398437-.0791016-.07470703-.206543-.11425781-.3735352-.11425781-.4614257 0-.8876953.34716797-1.0151367.86572265h-.0219726v-.39550781c0-.29003906-.1845704-.4790039-.4482422-.4790039-.2680664 0-.4526368.18896484-.4526368.4790039v3.8100586c0 .30761718.1889649.50097656.4746094.50097656z"/><path d="m19.9819336 6.53466797c.8613281 0 1.5336914-.34716797 1.8369141-.95361328.0395507-.09228516.0659179-.18017578.0659179-.25488281 0-.23730469-.1669922-.38671876-.3955078-.38671876-.1362305 0-.2329101.04833985-.3339844.16699219-.3515625.47900391-.6767578.65917969-1.1953125.65917969-.7558593 0-1.2304687-.52734375-1.2304687-1.37109375v-.02197266h2.7949219c.2944336 0 .4702148-.17578125.4702148-.48339843 0-1.26123047-.8481445-2.14892578-2.0786133-2.14892578-1.3095703 0-2.1445312.94921874-2.1445312 2.41699218 0 1.49414063.8173828 2.37744141 2.2104492 2.37744141zm-1.2480469-2.82568359c.0483399-.72070313.5229492-1.20410157 1.1777344-1.20410157.6591797 0 1.1118164.47900391 1.1337891 1.20410157z"/><path d="m2.37304688 26.5522461c1.48095703 0 2.42138671-.7514649 2.42138671-1.9467773 0-.9228516-.54492187-1.4545899-1.87646484-1.7358399l-.68994141-.1450195c-.82177734-.1757813-1.15136718-.4833985-1.15136718-.9448242 0-.5800782.5493164-.9404297 1.29199218-.9404297.6328125 0 1.11621094.2504883 1.33154297.8349609.10107422.2285156.24609375.3383789.48339844.3383789.25488281 0 .43505859-.1669922.43505859-.421875 0-.0922851-.01318359-.1669922-.03515625-.2285156-.24609375-.8481445-1.10742187-1.3623047-2.20166015-1.3623047-1.3491211 0-2.30273438.7470703-2.30273438 1.8325195 0 .9140625.5756836 1.5029297 1.8413086 1.7709961l.69433593.1450196c.84814453.1845703 1.18212891.4921875 1.18212891.984375 0 .5668945-.57568359.9799804-1.37988281.9799804-.73388672 0-1.30957031-.2768554-1.50732422-.8701172-.09667969-.2373046-.24169922-.3383789-.46582031-.3383789-.26806641 0-.44384766.1845703-.44384766.4702149 0 .1054687.02197266.2109375.05273438.3076172.24609375.7382812 1.08984374 1.2700195 2.3203125 1.2700195z"/><path d="m6.07324219 26.5302734c.27685547 0 .47460937-.1889648.47460937-.5009765v-2.2543946c0-.7294921.43066406-1.2128906 1.13378906-1.2128906.66796876 0 1.01074219.4086914 1.01074219 1.0898438v2.3774414c0 .3120117.19775391.5009765.47460938.5009765.28125 0 .4790039-.1889648.4790039-.5009765v-2.5620117c0-1.0458985-.60644531-1.7226563-1.62158203-1.7226563-.703125 0-1.20849609.3120117-1.4633789.8525391h-.02197266v-2.0830078c0-.2988282-.17578125-.4921875-.47021484-.4921875-.29003907 0-.47021485.1933593-.47021485.4921875v5.5151367c0 .3120117.19775391.5009765.47460938.5009765z"/><path d="m12.5463867 26.534668c1.3227539 0 2.1928711-.909668 2.1928711-2.3994141 0-1.4853516-.8745117-2.3950195-2.1928711-2.3950195s-2.1928711.9096679-2.1928711 2.3950195c0 1.4897461.8701172 2.3994141 2.1928711 2.3994141zm0-.7822266c-.7426758 0-1.2260742-.5888672-1.2260742-1.6171875 0-1.0239258.4833984-1.612793 1.2260742-1.612793s1.2260742.5888672 1.2260742 1.612793c0 1.0283203-.4790039 1.6171875-1.2260742 1.6171875z"/><path d="m16.8442383 26.5302734c.3208008 0 .5185547-.1538086.6064453-.4790039l.8569336-3.0673828h.0219726l.8657227 3.0673828c.0878906.3383789.2724609.4790039.6020508.4790039.3120117 0 .5053711-.1538086.5976562-.4790039l1.0546875-3.6342773c.0307618-.1098633.0439453-.1889649.0439453-.2680664 0-.2460938-.1801757-.4086914-.4570312-.4086914-.2373047 0-.3735352.1274414-.4350586.3955078l-.8305664 3.3266601h-.0219727l-.8833007-3.2915039c-.065918-.28125-.2504883-.430664-.5361329-.430664-.290039 0-.4790039.149414-.5449218.430664l-.8789063 3.2915039h-.0175781l-.8305664-3.3266601c-.0615234-.2680664-.2021484-.3955078-.4394531-.3955078-.2768555 0-.4614258.1625976-.4614258.4086914 0 .0791015.0131836.1625976.0483398.2680664l1.0546875 3.6342773c.0966797.3339844.272461.4790039.5844727.4790039z"/><path d="m24.4643555 21.125c.3076172 0 .5537109-.2460938.5537109-.5449219 0-.3032226-.2460937-.5405273-.5537109-.5405273-.3032227 0-.5493164.2373047-.5493164.5405273 0 .2988281.2460937.5449219.5493164.5449219zm0 5.4052734c.2856445 0 .4746093-.1977539.4746093-.5009765v-3.7836914c0-.3076172-.1889648-.5053711-.4746093-.5053711-.2856446 0-.4746094.1977539-.4746094.5053711v3.7836914c0 .3032226.1889648.5009765.4746094.5009765z"/><path d="m26.3847656 26.5302734c.2768555 0 .4746094-.1889648.4746094-.5009765v-2.2763672c0-.7163086.4306641-1.190918 1.0986328-1.190918.6591797 0 .984375.3823242.984375 1.0766602v2.390625c0 .3120117.1977539.5009765.4746094.5009765.28125 0 .4790039-.1889648.4790039-.5009765v-2.5751953c0-1.0590821-.5844727-1.7094727-1.6040039-1.7094727-.7119141 0-1.1953125.3164063-1.4458008.84375h-.0219726v-.3647461c0-.2944336-.1889649-.4833984-.4614258-.4833984-.2768555 0-.4526368.1889648-.4526368.4790039v3.8100586c0 .3120117.1933594.5009765.4746094.5009765z"/><path d="m34.9101562 26.5522461c1.4809571 0 2.4213868-.7514649 2.4213868-1.9467773 0-.9228516-.5449219-1.4545899-1.8764649-1.7358399l-.6899414-.1450195c-.8217773-.1757813-1.1513672-.4833985-1.1513672-.9448242 0-.5800782.5493164-.9404297 1.2919922-.9404297.6328125 0 1.116211.2504883 1.331543.8349609.1010742.2285156.2460937.3383789.4833984.3383789.2548828 0 .4350586-.1669922.4350586-.421875 0-.0922851-.0131836-.1669922-.0351562-.2285156-.2460938-.8481445-1.1074219-1.3623047-2.2016602-1.3623047-1.3491211 0-2.3027344.7470703-2.3027344 1.8325195 0 .9140625.5756836 1.5029297 1.8413086 1.7709961l.694336.1450196c.8481445.1845703 1.1821289.4921875 1.1821289.984375 0 .5668945-.5756836.9799804-1.3798828.9799804-.7338868 0-1.3095704-.2768554-1.5073243-.8701172-.0966796-.2373046-.2416992-.3383789-.4658203-.3383789-.2680664 0-.4438476.1845703-.4438476.4702149 0 .1054687.0219726.2109375.0527344.3076172.2460937.7382812 1.0898437 1.2700195 2.3203124 1.2700195z"/><path d="m39.4541016 26.5258789c.6020507 0 1.1909179-.3251953 1.4589843-.8393555h.0219727v.3911133c.0087891.28125.1889648.4526367.4526367.4526367.2680664 0 .4570313-.1801757.4570313-.4790039v-2.7905273c0-.9272461-.7163086-1.5205078-1.8369141-1.5205078-.8305664 0-1.5292969.3339844-1.7709961.8569336-.0571289.1054687-.0834961.2109375-.0834961.3076172 0 .2373046.1713867.3955078.4086914.3955078.1669922 0 .2900391-.0615235.3867188-.2021485.2636718-.421875.5668945-.5844726 1.0239257-.5844726.5800782 0 .9272461.3076172.9272461.8217773v.355957l-1.2700195.0747071c-1.0942383.0615234-1.7182617.5581055-1.7182617 1.3666992 0 .8305664.637207 1.3930664 1.5424805 1.3930664zm.2592773-.7514648c-.5053711 0-.84375-.2636719-.84375-.6679688 0-.3955078.3208008-.6459961.8876953-.6855469l1.1425781-.0703125v.3647461c0 .6020508-.5229492 1.0590821-1.1865234 1.0590821z"/><path d="m43.519043 26.5302734c.2856445 0 .4746093-.1801757.4746093-.496582v-3.4584961h.6108399c.2241211 0 .3779297-.1318359.3779297-.3691406 0-.2285156-.1538086-.3735352-.3779297-.3735352h-.6240234v-.4174804c0-.421875.1669921-.6108399.5668945-.6152344.0966797 0 .1757812-.0131836.2416992-.0307617.1538086-.0439453.2285156-.1362305.2285156-.2900391 0-.2548828-.2416992-.4174805-.7470703-.4174805-.7954101.0043946-1.2304687.421875-1.2304687 1.3183594v.4526367h-.3295899c-.2241211 0-.3779297.1450196-.3779297.3735352 0 .2373047.1538086.3691406.3779297.3691406h.3295899v3.4584961c0 .3164063.1889648.496582.4790039.496582z"/><path d="m46.762207 26.5258789c.6020508 0 1.190918-.3251953 1.4589844-.8393555h.0219727v.3911133c.008789.28125.1889648.4526367.4526367.4526367.2680664 0 .4570312-.1801757.4570312-.4790039v-2.7905273c0-.9272461-.7163086-1.5205078-1.836914-1.5205078-.8305664 0-1.5292969.3339844-1.7709961.8569336-.0571289.1054687-.0834961.2109375-.0834961.3076172 0 .2373046.1713867.3955078.4086914.3955078.1669922 0 .290039-.0615235.3867187-.2021485.2636719-.421875.5668946-.5844726 1.0239258-.5844726.5800781 0 .9272461.3076172.9272461.8217773v.355957l-1.2700195.0747071c-1.0942383.0615234-1.7182617.5581055-1.7182617 1.3666992 0 .8305664.637207 1.3930664 1.5424804 1.3930664zm.2592774-.7514648c-.5053711 0-.84375-.2636719-.84375-.6679688 0-.3955078.3208008-.6459961.8876953-.6855469l1.1425781-.0703125v.3647461c0 .6020508-.5229492 1.0590821-1.1865234 1.0590821z"/><path d="m50.5458984 26.5302734c.28125 0 .4746094-.1933593.4746094-.5009765v-2.3598633c0-.5756836.2636719-1.0107422.9140625-1.0151367.1977539 0 .3383789-.0395508.4350586-.1230469.0922852-.074707.140625-.1845703.140625-.3339844 0-.149414-.0395508-.2636718-.1274414-.3339844-.0791016-.074707-.206543-.1142578-.3735352-.1142578-.4614257 0-.8876953.347168-1.0151367.8657227h-.0219726v-.3955078c0-.2900391-.1845703-.4790039-.4482422-.4790039-.2680664 0-.4526367.1889648-.4526367.4790039v3.8100586c0 .3076172.1889648.5009765.4746093.5009765z"/><path d="m53.5297852 21.125c.3076171 0 .5537109-.2460938.5537109-.5449219 0-.3032226-.2460938-.5405273-.5537109-.5405273-.3032227 0-.5493164.2373047-.5493164.5405273 0 .2988281.2460937.5449219.5493164.5449219zm0 5.4052734c.2856445 0 .4746093-.1977539.4746093-.5009765v-3.7836914c0-.3076172-.1889648-.5053711-.4746093-.5053711-.2856446 0-.4746094.1977539-.4746094.5053711v3.7836914c0 .3032226.1889648.5009765.4746094.5009765z"/><path d="m.703125 46.4467773h1.74462891c1.88964843 0 3.00146484-1.1777343 3.00146484-3.1816406 0-1.9995117-1.11621094-3.1596679-3.00146484-3.1596679h-1.74462891c-.30761719 0-.4921875.1933593-.4921875.5097656v5.3217773c0 .3164063.18457031.5097656.4921875.5097656zm.4921875-.852539v-4.640625h1.16015625c1.34033203 0 2.08740234.8261719 2.08740234 2.3203125 0 1.4985351-.74267578 2.3203125-2.08740234 2.3203125z"/><path d="m8.27490234 46.534668c.86132813 0 1.53369141-.347168 1.83691406-.9536133.0395508-.0922852.065918-.1801758.065918-.2548828 0-.2373047-.1669922-.3867188-.39550784-.3867188-.13623047 0-.23291015.0483399-.33398437.1669922-.3515625.4790039-.67675781.6591797-1.1953125.6591797-.75585938 0-1.23046875-.5273438-1.23046875-1.3710938v-.0219726h2.79492187c.29443359 0 .47021489-.1757813.47021489-.4833984 0-1.2612305-.84814458-2.1489258-2.07861332-2.1489258-1.30957032 0-2.14453126.9492187-2.14453126 2.4169922 0 1.4941406.81738282 2.3774414 2.21044922 2.3774414zm-1.24804687-2.8256836c.04833984-.7207032.52294922-1.2041016 1.17773437-1.2041016.65917969 0 1.11181641.4790039 1.13378907 1.2041016z"/><path d="m11.53125 46.5302734c.2768555 0 .4746094-.1889648.4746094-.5009765v-5.5063477c0-.3120117-.1977539-.5009765-.4746094-.5009765s-.4746094.1889648-.4746094.5009765v5.5063477c0 .3120117.1977539.5009765.4746094.5009765z"/><path d="m14.9853516 46.534668c.8613281 0 1.5336914-.347168 1.836914-.9536133.0395508-.0922852.065918-.1801758.065918-.2548828 0-.2373047-.1669922-.3867188-.3955078-.3867188-.1362305 0-.2329102.0483399-.3339844.1669922-.3515625.4790039-.6767578.6591797-1.1953125.6591797-.7558594 0-1.2304687-.5273438-1.2304687-1.3710938v-.0219726h2.7949218c.2944336 0 .4702149-.1757813.4702149-.4833984 0-1.2612305-.8481446-2.1489258-2.0786133-2.1489258-1.3095703 0-2.1445313.9492187-2.1445313 2.4169922 0 1.4941406.8173829 2.3774414 2.2104493 2.3774414zm-1.2480469-2.8256836c.0483398-.7207032.5229492-1.2041016 1.1777344-1.2041016.6591797 0 1.1118164.4790039 1.133789 1.2041016z"/><path d="m18.0087891 45.3393555c0 .7646484.3955078 1.1469726 1.1733398 1.1469726h.0483399c.4658203 0 .6855468-.1450195.6855468-.430664 0-.2241211-.1362304-.3339844-.4086914-.3603516l-.074707-.0043945c-.3427734-.0263672-.4702149-.1933594-.4702149-.5625v-2.5532227h.5405274c.2460937 0 .3955078-.140625.3955078-.3735351 0-.2329102-.1494141-.3779297-.3955078-.3779297h-.5405274v-.6855469c0-.3032227-.1889648-.5053711-.4746093-.5053711-.2900391 0-.4790039.2021484-.4790039.5053711v.6855469h-.3339844c-.2460938 0-.3955078.140625-.3955078.3779297 0 .2329101.149414.3735351.3955078.3735351h.3339844z"/><path d="m22.5131836 46.534668c.8613281 0 1.5336914-.347168 1.8369141-.9536133.0395507-.0922852.0659179-.1801758.0659179-.2548828 0-.2373047-.1669922-.3867188-.3955078-.3867188-.1362305 0-.2329101.0483399-.3339844.1669922-.3515625.4790039-.6767578.6591797-1.1953125.6591797-.7558593 0-1.2304687-.5273438-1.2304687-1.3710938v-.0219726h2.7949219c.2944336 0 .4702148-.1757813.4702148-.4833984 0-1.2612305-.8481445-2.1489258-2.0786133-2.1489258-1.3095703 0-2.1445312.9492187-2.1445312 2.4169922 0 1.4941406.8173828 2.3774414 2.2104492 2.3774414zm-1.2480469-2.8256836c.0483399-.7207032.5229492-1.2041016 1.1777344-1.2041016.6591797 0 1.1118164.4790039 1.1337891 1.2041016z"/></g><g fill="#b373d3" fill-rule="nonzero" transform="translate(20.672363 9.435059)"><path d="m4.41650391 6.55224609c.22412109 0 .4086914-.18457031.4086914-.39990234v-4.42529297l-.03515625-.65478516.27246094.32080079.61962891.65917968c.0703125.07910157.17138671.11865235.27246093.11865235.19775391 0 .36035157-.14501953.36035157-.3515625 0-.10546875-.03955079-.18457032-.11425782-.25927735l-1.4765625-1.41943359c-.10107421-.10546875-.1977539-.140625-.30761718-.140625-.10546875 0-.20214844.03515625-.30322266.140625l-1.4765625 1.41943359c-.07470703.07470703-.11865234.1538086-.11865234.25927735 0 .20654297.16259765.3515625.36035156.3515625.10107422 0 .20654297-.03955078.27685547-.11865235l.61523437-.65917968.27685547-.32080079-.03515625.65478516v4.42529297c0 .21533203.18457031.39990234.40429688.39990234zm-2.52685547 3.50244141h5.05810547c.94921875 0 1.44140625-.48779297 1.44140625-1.42382812v-4.32861329c0-.93603515-.4921875-1.42382812-1.44140625-1.42382812h-1.19091797v.86132812h1.13818359c.40429688 0 .6328125.2109375.6328125.63720703v4.17919922c0 .42626954-.22851562.63720704-.6328125.63720704h-4.95263672c-.4086914 0-.6328125-.2109375-.6328125-.63720704v-4.17919922c0-.42626953.2241211-.63720703.6328125-.63720703h1.14697266v-.86132812h-1.19970703c-.94921875 0-1.44140625.48779297-1.44140625 1.42382812v4.32861329c0 .93603515.4921875 1.42382812 1.44140625 1.42382812z"/><path d="m4.65380859 29.9316406c2.48291016 0 4.53955079-2.0522461 4.53955079-4.5395508 0-2.4829101-2.05664063-4.5395507-4.54394532-4.5395507-2.48291015 0-4.53515625 2.0566406-4.53515625 4.5395507 0 2.4873047 2.05664063 4.5395508 4.53955078 4.5395508zm0-.8920898c-2.02148437 0-3.6430664-1.6259766-3.6430664-3.647461 0-2.0214843 1.6171875-3.6430664 3.63867187-3.6430664 2.02148438 0 3.65185547 1.6215821 3.65185547 3.6430664 0 2.0214844-1.62597656 3.647461-3.64746094 3.647461zm-1.77099609-1.4765625 2.45654297-1.1689453c.14941406-.0703125.25048828-.1713868.32080078-.3164063l1.16015625-2.4521484c.14941406-.3164063-.07910156-.553711-.40429688-.4042969l-2.45214843 1.1645508c-.140625.065918-.23730469.1625976-.31640625.3164062l-1.16455078 2.456543c-.14501953.3076172.09667968.5449219.39990234.4042969zm1.77099609-1.612793c-.30322265 0-.55371093-.2504883-.55371093-.5537109 0-.3032227.25048828-.553711.55371093-.553711.30761719 0 .55371094.2504883.55371094.553711 0 .3032226-.24609375.5537109-.55371094.5537109z"/><path d="m2.31591797 49.9448242h4.03857422c.67236328 0 1.10742187-.4086914 1.13818359-1.0854492l.29882813-6.3325195h.48339843c.21972657 0 .39111328-.1669922.39111328-.3867188 0-.215332-.17138671-.3823242-.39111328-.3823242h-1.9555664v-.6591797c0-.6723633-.42626953-1.0722656-1.15576172-1.0722656h-1.66992188c-.72509765 0-1.15576172.3999023-1.15576172 1.0722656v.6591797h-1.95117187c-.2109375 0-.38671875.1669922-.38671875.3823242 0 .2197266.17578125.3867188.38671875.3867188h.48779297l.29882812 6.336914c.03076172.6767578.46142578 1.0810547 1.14257813 1.0810547zm.83056641-8.8066406c0-.2285156.15820312-.3735352.40429687-.3735352h1.55566406c.24609375 0 .40429688.1450196.40429688.3735352v.6196289h-2.36425781zm-.74707032 8.0288086c-.24169922 0-.41748047-.1757813-.43066406-.4350586l-.29882812-6.2050781h5.30859374l-.28564453 6.2050781c-.00878906.2592773-.18457031.4350586-.43505859.4350586zm.63720703-.7075195c.18457032 0 .30322266-.1186524.29882813-.2900391l-.13183594-4.6054688c-.00439453-.1757812-.1274414-.290039-.30322266-.290039-.18457031 0-.30322265.1186523-.29882812.290039l.13183594 4.6054688c.00439453.1757812.1274414.2900391.30322265.2900391zm1.29638672 0c.18457031 0 .30761719-.1186524.30761719-.2900391v-4.6054688c0-.1713867-.12304688-.290039-.30761719-.290039s-.30761719.1186523-.30761719.290039v4.6054688c0 .1713867.12304688.2900391.30761719.2900391zm1.29638672 0c.17578125 0 .29443359-.1142579.29882813-.2900391l.13623046-4.6054688c.00439454-.1713867-.11865234-.290039-.29882812-.290039-.17578125 0-.29882812.1142578-.30322266.290039l-.13623046 4.6054688c-.00439454.1713867.11865234.2900391.30322265.2900391z"/></g><g stroke="#eddef4"><path d="m19.461539 24.5h83.076923"/><path d="m19.461539 44.5h83.076923"/></g></g></g></svg>