<svg height="375" viewBox="0 0 375 375" width="375" xmlns="http://www.w3.org/2000/svg"><g fill="none" fill-rule="evenodd" transform="translate(50 42)"><g stroke="#ab7bbc"><path d="m20.2555408-1h39.5600084c3.8492722 0 5.2310569.43613598 6.6345225 1.18671762 1.4805498.79180671 2.642494 1.95375088 3.4343007 3.43430071.7505817 1.40346563 1.1867176 2.78525029 1.1867176 6.63452247v109.4889182c0 3.849272-.4361359 5.231057-1.1867176 6.634523-.7918067 1.48055-1.9537509 2.642494-3.4343007 3.4343-1.4034656.750582-2.7852503 1.186718-6.6345225 1.186718h-39.5600084c-3.8492722 0-5.2310568-.436136-6.6345225-1.186718-1.4805498-.791806-2.642494-1.95375-3.4343007-3.4343-.75058162-1.403466-1.1867176-2.785251-1.1867176-6.634523v-109.4889182c0-3.84927218.43613598-5.23105684 1.1867176-6.63452247.7918067-1.48054983 1.9537509-2.642494 3.4343007-3.43430071 1.4034657-.75058164 2.7852503-1.18671762 6.6345225-1.18671762z" fill="#eddef4" stroke-width="2"/><path d="m163.815549 148c3.849272 0 5.231057.436136 6.634523 1.186718 1.48055.791806 2.642494 1.95375 3.4343 3.4343.750582 1.403466 1.186718 2.785251 1.186718 6.634523v109.488918c0 3.849272-.436136 5.231057-1.186718 6.634523-.791806 1.48055-1.95375 2.642494-3.4343 3.4343-1.403466.750582-2.785251 1.186718-6.634523 1.186718h-39.560008c-3.849272 0-5.231057-.436136-6.634523-1.186718-1.48055-.791806-2.642494-1.95375-3.4343-3.4343-.750582-1.403466-1.186718-2.785251-1.186718-6.634523v-109.488918c0-3.849272.436136-5.231057 1.186718-6.634523.791806-1.48055 1.95375-2.642494 3.4343-3.4343 1.403466-.750582 2.785251-1.186718 6.634523-1.186718z" fill="#eddef4" stroke-width="2"/><path d="m172.590287 260.5c2.087198 0 2.851094.199647 3.616028.608738.726392.388479 1.296468.958555 1.684947 1.684947.409091.764934.608738 1.52883.608738 3.616028v17.402906l-2.518924-2.519734-3.500978 3.500008-3.49903-3.5-3.50097 3.5-3.499021-3.499992-3.000963 2.999992-2.999037-3.000008-3.500979 3.500008-3.49903-3.5-3.50097 3.5-3.49903-3.5-3.50097 3.5-3.49903-3.5-3.50097 3.5-3.499026-3.499996-3.241019 3.240049-3.240053-3.240053-4 4-4-4-3 3v-17.88318c0-2.087198.199647-2.851094.608738-3.616028.388479-.726392.958555-1.296468 1.684947-1.684947.764934-.409091 1.52883-.608738 3.616028-.608738z" fill="#fff"/></g><path d="m117.563885 265h53.87223c.891519 0 1.214805.092826 1.540731.267133s.581714.430095.756021.756021.267133.649212.267133 1.540731v6.87223c0 .891519-.092826 1.214805-.267133 1.540731s-.430095.581714-.756021.756021-.649212.267133-1.540731.267133h-53.87223c-.891519 0-1.214805-.092826-1.540731-.267133s-.581714-.430095-.756021-.756021-.267133-.649212-.267133-1.540731v-6.87223c0-.891519.092826-1.214805.267133-1.540731s.430095-.581714.756021-.756021.649212-.267133 1.540731-.267133z" fill="#eddef4" opacity=".34"/><path d="m0 3.57714844c0 1.97314453 1.60400391 3.57714843 3.57714844 3.57714843.73388672 0 1.40625-.22412109 1.96875-.60644531l2.02148437 2.02148438c.12304688.1274414.2944336.18457031.46582031.18457031.37353516 0 .64160157-.28125.64160157-.64599609 0-.17578125-.06152344-.33837891-.18017578-.46142578l-2.00830079-2.01269532c.41748047-.57568359.66796876-1.28759765.66796876-2.05664062 0-1.97314453-1.60400391-3.57714844-3.57714844-3.57714844s-3.57714844 1.60400391-3.57714844 3.57714844zm.93164063 0c0-1.45898438 1.1821289-2.64550781 2.64550781-2.64550781 1.45898437 0 2.64550781 1.18652343 2.64550781 2.64550781 0 1.45898437-1.18652344 2.64550781-2.64550781 2.64550781-1.46337891 0-2.64550781-1.18652344-2.64550781-2.64550781z" fill="#b373d3" fill-rule="nonzero" transform="translate(118.010742 266.450195)"/><path d="m71.3083444 6.5c2.5329576 0 3.4584965.24606007 4.3863933.74230471.8893547.47563211 1.5873255 1.17360289 2.0629576 2.06295761.4962446.92789678.7423047 1.85343568.7423047 4.38639328v5.6166888c0 2.5329576-.2460601 3.4584965-.7423047 4.3863933-.4756321.8893547-1.1736029 1.5873255-2.0629576 2.0629576-.9278968.4962446-1.8534357.7423047-4.3863933.7423047h-63.6166888c-2.53295761 0-3.45849647-.2460601-4.38639328-.7423047-.88935472-.4756321-1.5873255-1.1736029-2.06295761-2.0629576-.49624464-.9278968-.74230471-1.8534357-.74230471-4.3863933v-5.6166888c0-2.5329576.24606007-3.4584965.74230471-4.38639328.47563211-.88935472 1.17360289-1.5873255 2.06295761-2.06295761.92789681-.49624464 1.85343567-.74230471 4.38639328-.74230471z" fill="#fff" stroke="#ab7bbc"/><path d="m.72509766 7.54980469h7.0180664c.44824219 0 .72509766-.24609375.72509766-.61083985 0-.46142578-.42626953-.86132812-.82177734-1.24365234-.30761719-.29882812-.37792969-.92724609-.4350586-1.50292969-.06152344-1.6171875-.53173828-2.75537109-1.6743164-3.16845703-.18017579-.58007812-.65478516-1.02392578-1.30517579-1.02392578-.65039062 0-1.125.44384766-1.30517578 1.02392578-1.14257812.41308594-1.61279297 1.55126953-1.6743164 3.16845703-.05273438.5756836-.12744141 1.20410157-.4350586 1.50292969-.39550781.38232422-.81738281.78222656-.81738281 1.24365234 0 .3647461.27246094.61083985.72509766.61083985zm3.50683593 1.80615234c.77783203 0 1.34033203-.55371094 1.40185547-1.1953125h-2.7993164c.0571289.64160156.62402343 1.1953125 1.39746093 1.1953125z" fill="#b373d3" fill-rule="nonzero" transform="translate(3.610764 9.843674)"/><path d="m224.255541-1h39.560008c3.849272 0 5.231057.43613598 6.634523 1.18671762 1.48055.79180671 2.642494 1.95375088 3.4343 3.43430071.750582 1.40346563 1.186718 2.78525029 1.186718 6.63452247v109.4889182c0 3.849272-.436136 5.231057-1.186718 6.634523-.791806 1.48055-1.95375 2.642494-3.4343 3.4343-1.403466.750582-2.785251 1.186718-6.634523 1.186718h-39.560008c-3.849272 0-5.231057-.436136-6.634523-1.186718-1.48055-.791806-2.642494-1.95375-3.4343-3.4343-.750582-1.403466-1.186718-2.785251-1.186718-6.634523v-109.4889182c0-3.84927218.436136-5.23105684 1.186718-6.63452247.791806-1.48054983 1.95375-2.642494 3.4343-3.43430071 1.403466-.75058164 2.785251-1.18671762 6.634523-1.18671762z" fill="#eddef4" stroke="#ab7bbc" stroke-width="2"/><path d="m229.87223 19.5c1.641438 0 2.243691.1532345 2.845662.475172.563429.301325 1.005611.7435072 1.306936 1.306936.321938.6019709.475172 1.2042235.475172 2.8456624v33.7444592c0 1.6414389-.153234 2.2436915-.475172 2.8456624-.301325.5634288-.743507 1.005611-1.306936 1.306936-.601971.3219375-1.204224.475172-2.845662.475172h-7.74446c-1.641438 0-2.243691-.1532345-2.845662-.475172-.563429-.301325-1.005611-.7435072-1.306936-1.306936-.321938-.6019709-.475172-1.2042235-.475172-2.8456624v-33.7444592c0-1.6414389.153234-2.2436915.475172-2.8456624.301325-.5634288.743507-1.005611 1.306936-1.306936.601971-.3219375 1.204224-.475172 2.845662-.475172z" fill="#fff" stroke="#ab7bbc"/><path d="m219 34h14v24.4361148c0 .8915187-.092826 1.214805-.267133 1.5407309s-.430095.5817145-.756021.7560216-.649212.2671327-1.540731.2671327h-8.87223c-.891519 0-1.214805-.0928256-1.540731-.2671327s-.581714-.4300957-.756021-.7560216-.267133-.6492122-.267133-1.5407309z" fill="#b373d3"/><path d="m4.80761719 7.86181641c.32519531 0 .5625-.23730469.5625-.5625v-6.71044922c0-.32519531-.23730469-.58886719-.57128907-.58886719-.22412109 0-.37792968.09667969-.62402343.32080078l-1.83691407 1.72705078c-.02636718.02197266-.06152343.03515625-.10107421.03515625h-1.24804688c-.64160156 0-.98876953.35595703-.98876953 1.03710938v1.63476562c0 .67675781.34716797 1.03710938.98876953 1.03710938h1.24804688c.03955078 0 .07470703.00878906.10107421.03515625l1.83691407 1.73583984c.21972656.2109375.40429687.29882813.6328125.29882813zm3.88476562-.80859375c.19775391.12304687.43945313.07910156.5756836-.12304688.57568359-.80859375.90527339-1.88964844.90527339-3.00146484 0-1.11181641-.3295898-2.20166016-.90527339-3.00146485-.13623047-.20214843-.37792969-.25048828-.5756836-.12304687-.20654297.13183594-.23730469.38671875-.08349609.61523437.47021484.68554688.73828125 1.57763672.73828125 2.50927735 0 .92724609-.27685547 1.81933594-.73828125 2.50927734-.14941406.22851563-.12304688.48339844.08349609.61523438zm-1.75341797-1.17333985c.18457032.11865235.43066407.07910157.5625-.11425781.3515625-.47021484.5625-1.14257812.5625-1.83691406s-.2109375-1.36230469-.5625-1.8413086c-.13183593-.18896484-.37792968-.23291015-.5625-.10546875-.2109375.140625-.25048828.39550782-.08349609.64160157.24609375.34716796.38232422.81298828.38232422 1.30517578 0 .48779297-.140625.95361328-.38232422 1.30517578-.16699219.25048828-.12744141.50097656.08349609.64599609z" fill="#fff" fill-rule="nonzero" transform="translate(221.063401 50.590745)"/><path d="m208 25h2v11h-2z" fill="#ab7bbc"/><path d="m208 39h2v11h-2z" fill="#ab7bbc"/></g></svg>