<svg height="375" viewBox="0 0 375 375" width="375" xmlns="http://www.w3.org/2000/svg"><g fill="none" fill-rule="evenodd"><path d="m111.744459 202c3.849272 0 5.231057.436136 6.634523 1.186718 1.48055.791806 2.642494 1.95375 3.4343 3.4343.750582 1.403466 1.186718 2.785251 1.186718 6.634523v109.335072c0 3.849272-.436136 5.231057-1.186718 6.634523-.791806 1.480549-1.95375 2.642494-3.4343 3.4343-1.403466.750582-2.785251 1.186718-6.634523 1.186718h-39.4889182c-3.8492722 0-5.2310568-.436136-6.6345225-1.186718-1.4805498-.791806-2.642494-1.953751-3.4343007-3.4343-.7505816-1.403466-1.1867176-2.785251-1.1867176-6.634523v-109.335072c0-3.849272.436136-5.231057 1.1867176-6.634523.7918067-1.48055 1.9537509-2.642494 3.4343007-3.4343 1.4034657-.750582 2.7852503-1.186718 6.6345225-1.186718z" fill="#eddef4" stroke="#ab7bbc" stroke-width="2"/><path d="m64.5 233.5h55v55h-55z" fill="#fff" stroke="#ab7bbc"/><circle cx="84.5" cy="315.5" fill="#b373d3" r="3.5"/><circle cx="92.5" cy="315.5" fill="#fff" r="2" stroke="#ab7bbc"/><circle cx="100.5" cy="315.5" fill="#fff" r="2" stroke="#ab7bbc"/><path d="m207.744459 202c3.849272 0 5.231057.436136 6.634523 1.186718 1.48055.791806 2.642494 1.95375 3.4343 3.4343.750582 1.403466 1.186718 2.785251 1.186718 6.634523v109.335072c0 3.849272-.436136 5.231057-1.186718 6.634523-.791806 1.480549-1.95375 2.642494-3.4343 3.4343-1.403466.750582-2.785251 1.186718-6.634523 1.186718h-39.488918c-3.849272 0-5.231057-.436136-6.634523-1.186718-1.48055-.791806-2.642494-1.953751-3.4343-3.4343-.750582-1.403466-1.186718-2.785251-1.186718-6.634523v-109.335072c0-3.849272.436136-5.231057 1.186718-6.634523.791806-1.48055 1.95375-2.642494 3.4343-3.4343 1.403466-.750582 2.785251-1.186718 6.634523-1.186718z" fill="#eddef4" stroke="#ab7bbc" stroke-width="2"/><path d="m160.5 233.5h55v55h-55z" fill="#fff" stroke="#ab7bbc"/><circle cx="188.5" cy="315.5" fill="#b373d3" r="3.5"/><circle cx="180.5" cy="315.5" fill="#fff" r="2" stroke="#ab7bbc"/><circle cx="196.5" cy="315.5" fill="#fff" r="2" stroke="#ab7bbc"/><path d="m303.744459 202c3.849272 0 5.231057.436136 6.634523 1.186718 1.48055.791806 2.642494 1.95375 3.4343 3.4343.750582 1.403466 1.186718 2.785251 1.186718 6.634523v109.335072c0 3.849272-.436136 5.231057-1.186718 6.634523-.791806 1.480549-1.95375 2.642494-3.4343 3.4343-1.403466.750582-2.785251 1.186718-6.634523 1.186718h-39.488918c-3.849272 0-5.231057-.436136-6.634523-1.186718-1.48055-.791806-2.642494-1.953751-3.4343-3.4343-.750582-1.403466-1.186718-2.785251-1.186718-6.634523v-109.335072c0-3.849272.436136-5.231057 1.186718-6.634523.791806-1.48055 1.95375-2.642494 3.4343-3.4343 1.403466-.750582 2.785251-1.186718 6.634523-1.186718z" fill="#eddef4" stroke="#ab7bbc" stroke-width="2"/><path d="m256.5 233.5h55v55h-55z" fill="#fff" stroke="#ab7bbc"/><circle cx="283.5" cy="315.5" fill="#fff" r="2" stroke="#ab7bbc"/><circle cx="275.5" cy="315.5" fill="#fff" r="2" stroke="#ab7bbc"/><circle cx="291.5" cy="315.5" fill="#b373d3" r="3.5"/><path d="m207.744459 41c3.849272 0 5.231057.436136 6.634523 1.1867176 1.48055.7918067 2.642494 1.9537509 3.4343 3.4343007.750582 1.4034657 1.186718 2.7852503 1.186718 6.6345225v109.3350722c0 3.849272-.436136 5.231057-1.186718 6.634523-.791806 1.480549-1.95375 2.642494-3.4343 3.4343-1.403466.750582-2.785251 1.186718-6.634523 1.186718h-39.488918c-3.849272 0-5.231057-.436136-6.634523-1.186718-1.48055-.791806-2.642494-1.953751-3.4343-3.4343-.750582-1.403466-1.186718-2.785251-1.186718-6.634523v-109.3350722c0-3.8492722.436136-5.2310568 1.186718-6.6345225.791806-1.4805498 1.95375-2.642494 3.4343-3.4343007 1.403466-.7505816 2.785251-1.1867176 6.634523-1.1867176z" fill="#eddef4" stroke="#ab7bbc" stroke-width="2"/><g fill="#fff"><path d="m161.5 75.5h15v15h-15z" stroke="#ab7bbc"/><path d="m161.5 95.5h15v15h-15z" opacity=".3" stroke="#b373d3"/><path d="m180.5 75.5h15v15h-15z" stroke="#ab7bbc"/><path d="m180.5 95.5h15v15h-15z" opacity=".3" stroke="#b373d3"/><path d="m199.5 75.5h15v15h-15z" stroke="#ab7bbc"/><path d="m199.5 95.5h15v15h-15z" opacity=".3" stroke="#b373d3"/><path d="m161.5 115.5h15v15h-15z" opacity=".3" stroke="#b373d3"/><path d="m180.5 115.5h15v15h-15z" opacity=".3" stroke="#b373d3"/><path d="m199.5 115.5h15v15h-15z" opacity=".3" stroke="#b373d3"/><path d="m161.5 135.5h15v15h-15z" opacity=".3" stroke="#b373d3"/><path d="m180.5 135.5h15v15h-15z" opacity=".3" stroke="#b373d3"/><path d="m199.5 135.5h15v15h-15z" opacity=".3" stroke="#b373d3"/></g><path d="m167.08061 83.2277645.83878.544471-69.37239 106.8697645 3.355512 2.178492-8.6747475 5.098898 1.1257306-9.999137 3.3545049 2.177747z" fill="#b373d3" fill-rule="nonzero" opacity=".5"/><path d="m189 83.5v101.5h4l-4.5 9-4.5-9h4v-101.5z" fill="#b373d3" fill-rule="nonzero" opacity=".5"/><path d="m207.911365 83.2157841 71.167635 103.0062159 3.291616-2.273151 1.4136 9.962516-8.818173-4.846629 3.289957-2.274736-71.167365-103.0057841z" fill="#b373d3" fill-rule="nonzero" opacity=".5"/><path d="m145 268 9 4.5-9 4.5v-4h-10v4l-9-4.5 9-4.5v4h10z" fill="#b373d3" fill-rule="nonzero" opacity=".5"/><path d="m241 268 9 4.5-9 4.5v-4h-10v4l-9-4.5 9-4.5v4h10z" fill="#b373d3" fill-rule="nonzero" opacity=".5"/></g></svg>