<svg height="375" viewBox="0 0 375 375" width="375" xmlns="http://www.w3.org/2000/svg"><g fill="none" fill-rule="evenodd"><g transform="translate(98 123)"><path d="m10.2555408-1h39.4889184c3.8492722 0 5.2310568.43613598 6.6345225 1.18671762 1.4805498.79180671 2.642494 1.95375088 3.4343007 3.43430071.7505816 1.40346563 1.1867176 2.78525029 1.1867176 6.63452247v109.3350722c0 3.849272-.436136 5.231057-1.1867176 6.634523-.7918067 1.480549-1.9537509 2.642494-3.4343007 3.4343-1.4034657.750582-2.7852503 1.186718-6.6345225 1.186718h-39.4889184c-3.84927218 0-5.23105684-.436136-6.63452247-1.186718-1.48054983-.791806-2.642494-1.953751-3.43430071-3.4343-.75058164-1.403466-1.18671762-2.785251-1.18671762-6.634523v-109.3350722c0-3.84927218.43613598-5.23105684 1.18671762-6.63452247.79180671-1.48054983 1.95375088-2.642494 3.43430071-3.43430071 1.40346563-.75058164 2.78525029-1.18671762 6.63452247-1.18671762z" fill="#fff" stroke="#ab7bbc" stroke-width="2"/><g fill="#b373d3" transform="translate(24 31)"><rect height="4.0625" rx=".8125" width="1.625" x="5.6875"/><rect height="4.0625" opacity=".3" rx=".8125" transform="matrix(.70710678 .70710678 -.70710678 .70710678 5.191134 -5.852271)" width="1.625" x="8.847383" y="1.308867"/><rect height="4.0625" opacity=".4" rx=".8125" transform="matrix(0 1 -1 0 17.46875 -4.46875)" width="1.625" x="10.15625" y="4.46875"/><rect height="4.0625" opacity=".5" rx=".8125" transform="matrix(-.70710678 .70710678 -.70710678 -.70710678 23.321021 9.659883)" width="1.625" x="8.847383" y="7.628633"/><rect height="4.0625" opacity=".6" rx=".8125" transform="matrix(-1 0 0 -1 13 21.9375)" width="1.625" x="5.6875" y="8.9375"/><rect height="4.0625" opacity=".7" rx=".8125" transform="matrix(-.70710678 -.70710678 .70710678 -.70710678 -1.128632 18.852271)" width="1.625" x="2.527617" y="7.628633"/><rect height="4.0625" opacity=".8" rx=".8125" transform="matrix(0 -1 1 0 -4.46875 8.53125)" width="1.625" x="1.21875" y="4.46875"/><rect height="4.0625" opacity=".9" rx=".8125" transform="matrix(.70710678 -.70710678 .70710678 .70710678 -1.383522 3.340117)" width="1.625" x="2.527617" y="1.308867"/></g><g stroke="#eddef4"><path d="m2.5 18.5h56"/><path d="m2.5 118.5h56"/></g></g><g transform="translate(218 123)"><path d="m10.2555408-1h39.4889184c3.8492722 0 5.2310568.43613598 6.6345225 1.18671762 1.4805498.79180671 2.642494 1.95375088 3.4343007 3.43430071.7505816 1.40346563 1.1867176 2.78525029 1.1867176 6.63452247v109.3350722c0 3.849272-.436136 5.231057-1.1867176 6.634523-.7918067 1.480549-1.9537509 2.642494-3.4343007 3.4343-1.4034657.750582-2.7852503 1.186718-6.6345225 1.186718h-39.4889184c-3.84927218 0-5.23105684-.436136-6.63452247-1.186718-1.48054983-.791806-2.642494-1.953751-3.43430071-3.4343-.75058164-1.403466-1.18671762-2.785251-1.18671762-6.634523v-109.3350722c0-3.84927218.43613598-5.23105684 1.18671762-6.63452247.79180671-1.48054983 1.95375088-2.642494 3.43430071-3.43430071 1.40346563-.75058164 2.78525029-1.18671762 6.63452247-1.18671762z" fill="#fff" stroke="#ab7bbc" stroke-width="2"/><path d="m13 34h45v1h-45z" fill="#eddef4" opacity=".34"/><g fill="#ab7bbc"><path d="m13 24h41v1h-41z" opacity=".34"/><path d="m13 38h41v1h-41z" opacity=".34"/><path d="m13 27h41v1h-41z" opacity=".34"/><path d="m13 41h41v1h-41z" opacity=".34"/><path d="m13 30h41v1h-41z" opacity=".34"/><path d="m13 44h41v1h-41z" opacity=".34"/><path d="m13 52h41v1h-41z" opacity=".34"/><path d="m13 55h41v1h-41z" opacity=".34"/><path d="m13 58h41v1h-41z" opacity=".34"/><path d="m13 66h41v1h-41z" opacity=".34"/><path d="m13 69h41v1h-41z" opacity=".34"/><path d="m13 72h41v1h-41z" opacity=".34"/><path d="m13 80h41v1h-41z" opacity=".34"/><path d="m13 83h41v1h-41z" opacity=".34"/><path d="m13 86h41v1h-41z" opacity=".34"/><path d="m13 94h41v1h-41z" opacity=".34"/><path d="m13 97h41v1h-41z" opacity=".34"/><path d="m13 100h41v1h-41z" opacity=".34"/><path d="m13 108h41v1h-41z" opacity=".34"/><path d="m13 111h41v1h-41z" opacity=".34"/><path d="m13 114h41v1h-41z" opacity=".34"/></g><path d="m13 48h45v1h-45z" fill="#eddef4" opacity=".34"/><path d="m13 62h45v1h-45z" fill="#eddef4" opacity=".34"/><path d="m13 76h45v1h-45z" fill="#eddef4" opacity=".34"/><path d="m13 90h45v1h-45z" fill="#eddef4" opacity=".34"/><path d="m13 104h45v1h-45z" fill="#eddef4" opacity=".34"/><path d="m2.5 18.5h56" stroke="#eddef4"/><path d="m2.5 118.5h56" stroke="#eddef4"/><path d="m3 24h7v7h-7z" fill="#ab7bbc"/><path d="m3 38h7v7h-7z" fill="#ab7bbc"/><path d="m3 52h7v7h-7z" fill="#ab7bbc"/><path d="m3 66h7v7h-7z" fill="#ab7bbc"/><path d="m3 80h7v7h-7z" fill="#ab7bbc"/><path d="m3 94h7v7h-7z" fill="#ab7bbc"/><path d="m3 108h7v7h-7z" fill="#ab7bbc"/></g><g fill="#b373d3" fill-rule="nonzero" opacity=".5" transform="translate(167 156)"><path d="m35.399867 3.58164605 2.824726-2.91908026 3.3384955 9.49233631-9.5969663-3.02460539 2.7317244-2.82295053c-9.1728303-6.65564357-19.371811-4.70435634-34.39287985 6.85703292l-.6099335-.7924526c15.39727525-11.85094714 26.08016365-13.85459173 35.70483375-6.79028045z"/><path d="m35.399867 40.5816461 2.824726-2.9190803 3.3384955 9.4923363-9.5969663-3.0246054 2.7317244-2.8229505c-9.1728303-6.6556436-19.371811-4.7043564-34.39287985 6.8570329l-.6099335-.7924526c15.39727525-11.8509471 26.08016365-13.8545917 35.70483375-6.7902804z" transform="matrix(-1 0 0 -1 41.20377 84.768152)"/></g></g></svg>