<svg height="375" viewBox="0 0 375 375" width="375" xmlns="http://www.w3.org/2000/svg"><g fill="none" fill-rule="evenodd"><g transform="translate(33 20)"><g transform="translate(0 21.86737)"><path d="m10.2555408-1h39.5600084c3.8492722 0 5.2310569.43613598 6.6345225 1.18671762 1.4805498.79180671 2.642494 1.95375088 3.4343007 3.43430071.7505817 1.40346563 1.1867176 2.78525029 1.1867176 6.63452247v109.4889182c0 3.849272-.4361359 5.231057-1.1867176 6.634523-.7918067 1.48055-1.9537509 2.642494-3.4343007 3.4343-1.4034656.750582-2.7852503 1.186718-6.6345225 1.186718h-39.5600084c-3.84927218 0-5.23105684-.436136-6.63452247-1.186718-1.48054983-.791806-2.642494-1.95375-3.43430071-3.4343-.75058164-1.403466-1.18671762-2.785251-1.18671762-6.634523v-109.4889182c0-3.84927218.43613598-5.23105684 1.18671762-6.63452247.79180671-1.48054983 1.95375088-2.642494 3.43430071-3.43430071 1.40346563-.75058164 2.78525029-1.18671762 6.63452247-1.18671762z" fill="#fff" stroke="#ab7bbc" stroke-width="2"/><path d="m91.2555408-1h39.5600082c3.849272 0 5.231057.43613598 6.634523 1.18671762 1.48055.79180671 2.642494 1.95375088 3.4343 3.43430071.750582 1.40346563 1.186718 2.78525029 1.186718 6.63452247v109.4889182c0 3.849272-.436136 5.231057-1.186718 6.634523-.791806 1.48055-1.95375 2.642494-3.4343 3.4343-1.403466.750582-2.785251 1.186718-6.634523 1.186718h-39.5600082c-3.8492722 0-5.2310568-.436136-6.6345225-1.186718-1.4805498-.791806-2.642494-1.95375-3.4343007-3.4343-.7505816-1.403466-1.1867176-2.785251-1.1867176-6.634523v-109.4889182c0-3.84927218.436136-5.23105684 1.1867176-6.63452247.7918067-1.48054983 1.9537509-2.642494 3.4343007-3.43430071 1.4034657-.75058164 2.7852503-1.18671762 6.6345225-1.18671762z" fill="#fff" stroke="#ab7bbc" stroke-width="2"/><path d="m172.255541-1h39.560008c3.849272 0 5.231057.43613598 6.634523 1.18671762 1.48055.79180671 2.642494 1.95375088 3.4343 3.43430071.750582 1.40346563 1.186718 2.78525029 1.186718 6.63452247v109.4889182c0 3.849272-.436136 5.231057-1.186718 6.634523-.791806 1.48055-1.95375 2.642494-3.4343 3.4343-1.403466.750582-2.785251 1.186718-6.634523 1.186718h-39.560008c-3.849272 0-5.231057-.436136-6.634523-1.186718-1.48055-.791806-2.642494-1.95375-3.4343-3.4343-.750582-1.403466-1.186718-2.785251-1.186718-6.634523v-109.4889182c0-3.84927218.436136-5.23105684 1.186718-6.63452247.791806-1.48054983 1.95375-2.642494 3.4343-3.43430071 1.403466-.75058164 2.785251-1.18671762 6.634523-1.18671762z" fill="#fff" stroke="#ab7bbc" stroke-width="2"/><path d="m252.255541-1h39.560008c3.849272 0 5.231057.43613598 6.634523 1.18671762 1.48055.79180671 2.642494 1.95375088 3.4343 3.43430071.750582 1.40346563 1.186718 2.78525029 1.186718 6.63452247v109.4889182c0 3.849272-.436136 5.231057-1.186718 6.634523-.791806 1.48055-1.95375 2.642494-3.4343 3.4343-1.403466.750582-2.785251 1.186718-6.634523 1.186718h-39.560008c-3.849272 0-5.231057-.436136-6.634523-1.186718-1.48055-.791806-2.642494-1.95375-3.4343-3.4343-.750582-1.403466-1.186718-2.785251-1.186718-6.634523v-109.4889182c0-3.84927218.436136-5.23105684 1.186718-6.63452247.791806-1.48054983 1.95375-2.642494 3.4343-3.43430071 1.403466-.75058164 2.785251-1.18671762 6.634523-1.18671762z" fill="#fff" stroke="#ab7bbc" stroke-width="2"/><g fill="#b373d3" fill-rule="nonzero" transform="translate(85.540527 6.937988)"><path d="m0 3.88916016c0 .14941406.05712891.27685546.17578125.39111328l3.42773437 3.35302734c.09228516.09667969.21533204.14501953.35595704.14501953.28564453 0 .50976562-.21972656.50976562-.50976562 0-.140625-.0571289-.26806641-.15380859-.3647461l-3.08935547-3.01464843 3.08935547-3.01464844c.09667969-.10107422.15380859-.22851563.15380859-.36914063 0-.28564453-.22412109-.50537109-.50976562-.50537109-.140625 0-.26367188.04833984-.35595704.14501953l-3.42773437 3.35302735c-.11865234.11425781-.17138672.24169921-.17578125.39111328z"/><path d="m7.25097656 7.06201172h3.05859374c.2724609 0 .4570313-.16699219.4570313-.42626953 0-.25927735-.1845704-.42626953-.4570313-.42626953h-2.56640624v-5.04931641c0-.31640625-.18896484-.50976562-.4921875-.50976562-.30761718 0-.4921875.19335937-.4921875.50976562v5.39208984c0 .31640625.18457032.50976563.4921875.50976563z"/><path d="m13.3022461 7.14990234c1.3227539 0 2.1928711-.90966796 2.1928711-2.39941406 0-1.48535156-.8745117-2.39501953-2.1928711-2.39501953s-2.1928711.90966797-2.1928711 2.39501953c0 1.4897461.8701172 2.39941406 2.1928711 2.39941406zm0-.78222656c-.7426758 0-1.2260742-.58886719-1.2260742-1.6171875 0-1.02392578.4833984-1.61279297 1.2260742-1.61279297s1.2260742.58886719 1.2260742 1.61279297c0 1.02832031-.4790039 1.6171875-1.2260742 1.6171875z"/><path d="m18.1669922 8.80224609c1.3754883.0131836 2.2148437-.72509765 2.2148437-1.86767578v-4.09130859c0-.30761719-.2021484-.48779297-.4746093-.48779297-.272461 0-.4790039.18017578-.4790039.48779297v.37353516h-.0175782c-.28125-.52294922-.7910156-.85253907-1.4458007-.85253907-1.1953126 0-1.9423829.90087891-1.9423829 2.34667969 0 1.42822266.7558594 2.33789062 1.9204102 2.33789062.6591797 0 1.2041016-.32958984 1.4633789-.8305664h.0219727v.73388672c0 .64599609-.4702149 1.08544922-1.2436524 1.07666015-.4526367-.00878906-.777832-.18017578-1.1557617-.57568359-.1274414-.12744141-.2197266-.17578125-.3647461-.17578125-.2416992 0-.4042969.15820313-.4042969.37792969 0 .10986328.0263672.20654297.0878906.31201172.3164063.50097656.9799805.82617187 1.819336.83496093zm.0307617-2.52685547c-.7294922 0-1.2041016-.59326171-1.2041016-1.56005859 0-.96240234.4746094-1.56884765 1.2041016-1.56884765.7426758 0 1.2348633.62402343 1.2348633 1.57324218s-.4921875 1.55566406-1.2348633 1.55566406z"/><path d="m21.8188477 1.74023438c.3076171 0 .5537109-.24609376.5537109-.54492188 0-.30322266-.2460938-.54052734-.5537109-.54052734-.3032227 0-.5493165.23730468-.5493165.54052734 0 .29882812.2460938.54492188.5493165.54492188zm0 5.40527343c.2856445 0 .4746093-.1977539.4746093-.50097656v-3.78369141c0-.30761718-.1889648-.50537109-.4746093-.50537109-.2856446 0-.4746094.19775391-.4746094.50537109v3.78369141c0 .30322266.1889648.50097656.4746094.50097656z"/><path d="m23.7392578 7.14550781c.2768555 0 .4746094-.18896484.4746094-.50097656v-2.27636719c0-.71630859.430664-1.19091797 1.0986328-1.19091797.6591797 0 .984375.38232422.984375 1.07666016v2.390625c0 .31201172.1977539.50097656.4746094.50097656.28125 0 .4790039-.18896484.4790039-.50097656v-2.57519531c0-1.05908203-.5844727-1.70947266-1.6040039-1.70947266-.7119141 0-1.1953125.31640625-1.4458008.84375h-.0219727v-.36474609c0-.2944336-.1889648-.48339844-.4614257-.48339844-.2768555 0-.4526368.18896484-.4526368.47900391v3.81005859c0 .31201172.1933594.50097656.4746094.50097656z"/></g><path d="m88.8458278 104h44.3083442c1.337278 0 1.822208.139238 2.311097.400699.488888.261461.872571.645144 1.134032 1.134032.261461.488889.400699.973819.400699 2.311097v6.308344c0 1.337278-.139238 1.822208-.400699 2.311097-.261461.488888-.645144.872571-1.134032 1.134032-.488889.261461-.973819.400699-2.311097.400699h-44.3083442c-1.3372781 0-1.8222075-.139238-2.3110964-.400699-.4888888-.261461-.8725717-.645144-1.1340323-1.134032-.2614607-.488889-.4006991-.973819-.4006991-2.311097v-6.308344c0-1.337278.1392384-1.822208.4006991-2.311097.2614606-.488888.6451435-.872571 1.1340323-1.134032.4888889-.261461.9738183-.400699 2.3110964-.400699z" fill="#b373d3"/><path d="m7.8458278 104h44.3083444c1.3372781 0 1.8222075.139238 2.3110964.400699.4888888.261461.8725717.645144 1.1340323 1.134032.2614607.488889.4006991.973819.4006991 2.311097v6.308344c0 1.337278-.1392384 1.822208-.4006991 2.311097-.2614606.488888-.6451435.872571-1.1340323 1.134032-.4888889.261461-.9738183.400699-2.3110964.400699h-44.3083444c-1.33727811 0-1.82220747-.139238-2.31109636-.400699-.48888888-.261461-.87257175-.645144-1.13403238-1.134032-.26146064-.488889-.40069906-.973819-.40069906-2.311097v-6.308344c0-1.337278.13923842-1.822208.40069906-2.311097.26146063-.488888.6451435-.872571 1.13403238-1.134032.48888889-.261461.97381825-.400699 2.31109636-.400699z" fill="#b373d3"/><g fill="#fff" fill-rule="nonzero" transform="translate(102.584473 107.588379)"><path d="m.47900391 6.48193359c.29882812 0 .4790039-.18896484.4790039-.50097656v-4.24072265h.03955078l3.12451172 4.43847656c.16259766.22851562.29003907.30322265.53173828.30322265.32958985 0 .51855469-.18896484.51855469-.50976562v-5.47119141c0-.31201172-.18017578-.50097656-.4790039-.50097656-.2944336 0-.47900391.18896484-.47900391.50097656v4.24511719h-.03515625l-3.12011719-4.43847656c-.16259765-.22851563-.29882812-.30761719-.53173828-.30761719-.32519531 0-.52734375.20654297-.52734375.53173828v5.44921875c0 .31201172.18017578.50097656.47900391.50097656z"/><path d="m8.23095703 6.49951172c.86132813 0 1.53369141-.34716797 1.83691407-.95361328.0395508-.09228516.065918-.18017578.065918-.25488282 0-.23730468-.16699222-.38671874-.39550785-.38671874-.13623047 0-.23291016.04833984-.33398437.16699218-.3515625.47900391-.67675782.65917969-1.1953125.65917969-.75585938 0-1.23046876-.52734375-1.23046876-1.37109375v-.02197266h2.79492188c.2944336 0 .4702148-.17578125.4702148-.48339843 0-1.26123047-.84814449-2.14892579-2.07861324-2.14892579-1.30957031 0-2.14453125.94921876-2.14453125 2.41699219 0 1.49414063.81738281 2.37744141 2.21044922 2.37744141zm-1.24804687-2.8256836c.04833984-.72070312.52294922-1.20410156 1.17773437-1.20410156.65917969 0 1.11181641.47900391 1.13378906 1.20410156z"/><path d="m11.1708984 6.49511719c.1625977 0 .2680664-.05712891.3735352-.21972657l1.0634766-1.56445312h.0219726l1.0634766 1.57324219c.0922851.140625.2021484.2109375.3691406.2109375.2592773 0 .4526367-.17138672.4526367-.41748047 0-.09667969-.0307617-.18896484-.1010742-.29003906l-1.2172852-1.71386719 1.2216797-1.66113281c.0791016-.10107422.1098633-.19335938.1098633-.30322266 0-.23291016-.1889648-.40429688-.4570312-.40429688-.1625977 0-.2680664.0703125-.3823243.25048829l-1.0195312 1.50732421h-.0175781l-1.0415039-1.52050781c-.1142578-.17578125-.2109375-.23730469-.3911133-.23730469-.2592774 0-.4570313.17578126-.4570313.40869141 0 .10986328.0307618.20214844.0966797.29443359l1.2216797 1.69628907-1.2392578 1.69189453c-.074707.10546875-.1098633.1977539-.1098633.29882812 0 .23291016.1845703.39990235.4394531.39990235z"/><path d="m15.5874023 5.30419922c0 .76464844.3955079 1.14697266 1.1733399 1.14697266h.0483398c.4658203 0 .6855469-.14501954.6855469-.43066407 0-.22412109-.1362305-.33398437-.4086914-.36035156l-.074707-.00439453c-.3427735-.02636719-.4702149-.19335938-.4702149-.5625v-2.55322266h.5405274c.2460937 0 .3955078-.140625.3955078-.37353515 0-.23291016-.1494141-.37792969-.3955078-.37792969h-.5405274v-.68554688c0-.30322265-.1889648-.50537109-.4746094-.50537109-.290039 0-.4790039.20214844-.4790039.50537109v.68554688h-.3339843c-.2460938 0-.3955078.140625-.3955078.37792969 0 .23291015.149414.37353515.3955078.37353515h.3339843z"/></g><g fill="#fff" fill-rule="nonzero" transform="translate(21.584473 107.588379)"><path d="m.47900391 6.48193359c.29882812 0 .4790039-.18896484.4790039-.50097656v-4.24072265h.03955078l3.12451172 4.43847656c.16259766.22851562.29003907.30322265.53173828.30322265.32958985 0 .51855469-.18896484.51855469-.50976562v-5.47119141c0-.31201172-.18017578-.50097656-.4790039-.50097656-.2944336 0-.47900391.18896484-.47900391.50097656v4.24511719h-.03515625l-3.12011719-4.43847656c-.16259765-.22851563-.29882812-.30761719-.53173828-.30761719-.32519531 0-.52734375.20654297-.52734375.53173828v5.44921875c0 .31201172.18017578.50097656.47900391.50097656z"/><path d="m8.23095703 6.49951172c.86132813 0 1.53369141-.34716797 1.83691407-.95361328.0395508-.09228516.065918-.18017578.065918-.25488282 0-.23730468-.16699222-.38671874-.39550785-.38671874-.13623047 0-.23291016.04833984-.33398437.16699218-.3515625.47900391-.67675782.65917969-1.1953125.65917969-.75585938 0-1.23046876-.52734375-1.23046876-1.37109375v-.02197266h2.79492188c.2944336 0 .4702148-.17578125.4702148-.48339843 0-1.26123047-.84814449-2.14892579-2.07861324-2.14892579-1.30957031 0-2.14453125.94921876-2.14453125 2.41699219 0 1.49414063.81738281 2.37744141 2.21044922 2.37744141zm-1.24804687-2.8256836c.04833984-.72070312.52294922-1.20410156 1.17773437-1.20410156.65917969 0 1.11181641.47900391 1.13378906 1.20410156z"/><path d="m11.1708984 6.49511719c.1625977 0 .2680664-.05712891.3735352-.21972657l1.0634766-1.56445312h.0219726l1.0634766 1.57324219c.0922851.140625.2021484.2109375.3691406.2109375.2592773 0 .4526367-.17138672.4526367-.41748047 0-.09667969-.0307617-.18896484-.1010742-.29003906l-1.2172852-1.71386719 1.2216797-1.66113281c.0791016-.10107422.1098633-.19335938.1098633-.30322266 0-.23291016-.1889648-.40429688-.4570312-.40429688-.1625977 0-.2680664.0703125-.3823243.25048829l-1.0195312 1.50732421h-.0175781l-1.0415039-1.52050781c-.1142578-.17578125-.2109375-.23730469-.3911133-.23730469-.2592774 0-.4570313.17578126-.4570313.40869141 0 .10986328.0307618.20214844.0966797.29443359l1.2216797 1.69628907-1.2392578 1.69189453c-.074707.10546875-.1098633.1977539-.1098633.29882812 0 .23291016.1845703.39990235.4394531.39990235z"/><path d="m15.5874023 5.30419922c0 .76464844.3955079 1.14697266 1.1733399 1.14697266h.0483398c.4658203 0 .6855469-.14501954.6855469-.43066407 0-.22412109-.1362305-.33398437-.4086914-.36035156l-.074707-.00439453c-.3427735-.02636719-.4702149-.19335938-.4702149-.5625v-2.55322266h.5405274c.2460937 0 .3955078-.140625.3955078-.37353515 0-.23291016-.1494141-.37792969-.3955078-.37792969h-.5405274v-.68554688c0-.30322265-.1889648-.50537109-.4746094-.50537109-.290039 0-.4790039.20214844-.4790039.50537109v.68554688h-.3339843c-.2460938 0-.3955078.140625-.3955078.37792969 0 .23291015.149414.37353515.3955078.37353515h.3339843z"/></g><path d="m169.845828 104h44.308344c1.337278 0 1.822208.139238 2.311097.400699.488888.261461.872571.645144 1.134032 1.134032.261461.488889.400699.973819.400699 2.311097v6.308344c0 1.337278-.139238 1.822208-.400699 2.311097-.261461.488888-.645144.872571-1.134032 1.134032-.488889.261461-.973819.400699-2.311097.400699h-44.308344c-1.337278 0-1.822208-.139238-2.311097-.400699-.488888-.261461-.872571-.645144-1.134032-1.134032-.261461-.488889-.400699-.973819-.400699-2.311097v-6.308344c0-1.337278.139238-1.822208.400699-2.311097.261461-.488888.645144-.872571 1.134032-1.134032.488889-.261461.973819-.400699 2.311097-.400699z" fill="#b373d3"/><g fill="#fff" fill-rule="nonzero" transform="translate(183.584473 107.588379)"><path d="m.47900391 6.48193359c.29882812 0 .4790039-.18896484.4790039-.50097656v-4.24072265h.03955078l3.12451172 4.43847656c.16259766.22851562.29003907.30322265.53173828.30322265.32958985 0 .51855469-.18896484.51855469-.50976562v-5.47119141c0-.31201172-.18017578-.50097656-.4790039-.50097656-.2944336 0-.47900391.18896484-.47900391.50097656v4.24511719h-.03515625l-3.12011719-4.43847656c-.16259765-.22851563-.29882812-.30761719-.53173828-.30761719-.32519531 0-.52734375.20654297-.52734375.53173828v5.44921875c0 .31201172.18017578.50097656.47900391.50097656z"/><path d="m8.23095703 6.49951172c.86132813 0 1.53369141-.34716797 1.83691407-.95361328.0395508-.09228516.065918-.18017578.065918-.25488282 0-.23730468-.16699222-.38671874-.39550785-.38671874-.13623047 0-.23291016.04833984-.33398437.16699218-.3515625.47900391-.67675782.65917969-1.1953125.65917969-.75585938 0-1.23046876-.52734375-1.23046876-1.37109375v-.02197266h2.79492188c.2944336 0 .4702148-.17578125.4702148-.48339843 0-1.26123047-.84814449-2.14892579-2.07861324-2.14892579-1.30957031 0-2.14453125.94921876-2.14453125 2.41699219 0 1.49414063.81738281 2.37744141 2.21044922 2.37744141zm-1.24804687-2.8256836c.04833984-.72070312.52294922-1.20410156 1.17773437-1.20410156.65917969 0 1.11181641.47900391 1.13378906 1.20410156z"/><path d="m11.1708984 6.49511719c.1625977 0 .2680664-.05712891.3735352-.21972657l1.0634766-1.56445312h.0219726l1.0634766 1.57324219c.0922851.140625.2021484.2109375.3691406.2109375.2592773 0 .4526367-.17138672.4526367-.41748047 0-.09667969-.0307617-.18896484-.1010742-.29003906l-1.2172852-1.71386719 1.2216797-1.66113281c.0791016-.10107422.1098633-.19335938.1098633-.30322266 0-.23291016-.1889648-.40429688-.4570312-.40429688-.1625977 0-.2680664.0703125-.3823243.25048829l-1.0195312 1.50732421h-.0175781l-1.0415039-1.52050781c-.1142578-.17578125-.2109375-.23730469-.3911133-.23730469-.2592774 0-.4570313.17578126-.4570313.40869141 0 .10986328.0307618.20214844.0966797.29443359l1.2216797 1.69628907-1.2392578 1.69189453c-.074707.10546875-.1098633.1977539-.1098633.29882812 0 .23291016.1845703.39990235.4394531.39990235z"/><path d="m15.5874023 5.30419922c0 .76464844.3955079 1.14697266 1.1733399 1.14697266h.0483398c.4658203 0 .6855469-.14501954.6855469-.43066407 0-.22412109-.1362305-.33398437-.4086914-.36035156l-.074707-.00439453c-.3427735-.02636719-.4702149-.19335938-.4702149-.5625v-2.55322266h.5405274c.2460937 0 .3955078-.140625.3955078-.37353515 0-.23291016-.1494141-.37792969-.3955078-.37792969h-.5405274v-.68554688c0-.30322265-.1889648-.50537109-.4746094-.50537109-.290039 0-.4790039.20214844-.4790039.50537109v.68554688h-.3339843c-.2460938 0-.3955078.140625-.3955078.37792969 0 .23291015.149414.37353515.3955078.37353515h.3339843z"/></g><path d="m249.845828 104h44.308344c1.337278 0 1.822208.139238 2.311097.400699.488888.261461.872571.645144 1.134032 1.134032.261461.488889.400699.973819.400699 2.311097v6.308344c0 1.337278-.139238 1.822208-.400699 2.311097-.261461.488888-.645144.872571-1.134032 1.134032-.488889.261461-.973819.400699-2.311097.400699h-44.308344c-1.337278 0-1.822208-.139238-2.311097-.400699-.488888-.261461-.872571-.645144-1.134032-1.134032-.261461-.488889-.400699-.973819-.400699-2.311097v-6.308344c0-1.337278.139238-1.822208.400699-2.311097.261461-.488888.645144-.872571 1.134032-1.134032.488889-.261461.973819-.400699 2.311097-.400699z" fill="#b373d3"/><g fill-rule="nonzero"><g fill="#fff" transform="translate(255.584473 107.588379)"><path d="m.4921875 6.41162109h2.05224609c1.3491211 0 2.16210938-.67675781 2.16210938-1.79296875 0-.84375-.58007813-1.45458984-1.44140625-1.55126953v-.03515625c.6328125-.10546875 1.12939453-.70751953 1.12939453-1.37988281 0-.95800781-.73828125-1.58203125-1.86328125-1.58203125h-2.0390625c-.30761719 0-.4921875.19335938-.4921875.50976563v5.32177734c0 .31640625.18457031.50976562.4921875.50976562zm.4921875-3.6430664v-1.89404297h1.30957031c.71191407 0 1.11621094.32519531 1.11621094.9140625 0 .62841797-.47021484.97998047-1.32275391.97998047zm0 2.83886719v-2.08740235h1.30078125c.93164063 0 1.41503906.3515625 1.41503906 1.03710938 0 .68554687-.47021484 1.05029297-1.35791015 1.05029297z"/><path d="m7.04003906 6.49511719c.70751953 0 1.17773438-.31201172 1.43261719-.86572266h.02197266v.38671875c0 .29003906.18457031.47900391.45703125.47900391.27246093 0 .45263672-.18896485.45263672-.48339844v-3.80126953c0-.31640625-.19335938-.5053711-.47460938-.5053711-.27685547 0-.47460938.18896485-.47460938.5053711v2.27197266c0 .72070312-.41308593 1.1953125-1.09863281 1.1953125-.65478515 0-.98876953-.37792969-.98876953-1.08105469v-2.38623047c0-.31640625-.1977539-.5053711-.47460937-.5053711-.28125 0-.47460938.18896485-.47460938.5053711v2.57080078c0 1.05908203.61523438 1.71386719 1.62158203 1.71386719z"/><path d="m10.9116211 8.13427734c.8569336 0 1.2919922-.37792968 1.7006836-1.48974609l1.6040039-4.24072266c.0307617-.09228515.0483398-.18896484.0483398-.26367187 0-.25488281-.1889648-.4350586-.4614257-.4350586-.2416993 0-.3735352.10546876-.4526368.3647461l-1.1821289 3.48046875h-.0131836l-1.1777343-3.48046875c-.0834961-.26367188-.2197266-.3647461-.4570313-.3647461-.2768555 0-.4833984.18017579-.4833984.43945313 0 .07470703.0175781.17138672.0527344.26806641l1.546875 4.04736328-.0878907.2680664c-.1713867.47460938-.4394531.61962891-.703125.61962891-.1098633 0-.1450195-.00439453-.2460937-.00439453-.2285156 0-.3691406.13183594-.3691406.33398437 0 .2944336.2416992.45703125.6811523.45703125z"/><path d="m17.3144531 6.48193359c.2988281 0 .4790039-.18896484.4790039-.50097656v-4.24072265h.0395508l3.1245117 4.43847656c.1625977.22851562.2900391.30322265.5317383.30322265.3295899 0 .5185547-.18896484.5185547-.50976562v-5.47119141c0-.31201172-.1801758-.50097656-.4790039-.50097656-.2944336 0-.4790039.18896484-.4790039.50097656v4.24511719h-.0351563l-3.1201172-4.43847656c-.1625976-.22851563-.2988281-.30761719-.5317382-.30761719-.3251953 0-.5273438.20654297-.5273438.53173828v5.44921875c0 .31201172.1801758.50097656.4790039.50097656z"/><path d="m25.0488281 6.49951172c1.3227539 0 2.1928711-.90966797 2.1928711-2.39941406 0-1.48535157-.8745117-2.39501954-2.1928711-2.39501954-1.3183593 0-2.1928711.90966797-2.1928711 2.39501954 0 1.48974609.8701172 2.39941406 2.1928711 2.39941406zm0-.78222656c-.7426758 0-1.2260742-.58886719-1.2260742-1.6171875 0-1.02392578.4833984-1.61279297 1.2260742-1.61279297s1.2260742.58886719 1.2260742 1.61279297c0 1.02832031-.4790039 1.6171875-1.2260742 1.6171875z"/><path d="m29.3466797 6.49511719c.3208008 0 .5185547-.1538086.6064453-.47900391l.8569336-3.06738281h.0219726l.8657227 3.06738281c.0878906.33837891.2724609.47900391.6020508.47900391.3120117 0 .5053711-.1538086.5976562-.47900391l1.0546875-3.63427734c.0307618-.10986328.0439454-.18896485.0439454-.26806641 0-.24609375-.1801758-.40869141-.4570313-.40869141-.2373047 0-.3735352.12744141-.4350586.39550782l-.8305664 3.32666015h-.0219727l-.8833007-3.2915039c-.065918-.28125-.2504883-.43066407-.5361329-.43066407-.290039 0-.4790039.14941407-.5449218.43066407l-.8789063 3.2915039h-.0175781l-.8305664-3.32666015c-.0615234-.26806641-.2021484-.39550782-.4394531-.39550782-.2768555 0-.4614258.16259766-.4614258.40869141 0 .07910156.0131836.16259766.0483398.26806641l1.0546875 3.63427734c.0966797.33398438.272461.47900391.5844727.47900391z"/></g><g fill="#b373d3" transform="translate(166.540527 6.937988)"><path d="m0 3.88916016c0 .14941406.05712891.27685546.17578125.39111328l3.42773437 3.35302734c.09228516.09667969.21533204.14501953.35595704.14501953.28564453 0 .50976562-.21972656.50976562-.50976562 0-.140625-.0571289-.26806641-.15380859-.3647461l-3.08935547-3.01464843 3.08935547-3.01464844c.09667969-.10107422.15380859-.22851563.15380859-.36914063 0-.28564453-.22412109-.50537109-.50976562-.50537109-.140625 0-.26367188.04833984-.35595704.14501953l-3.42773437 3.35302735c-.11865234.11425781-.17138672.24169921-.17578125.39111328z"/><path d="m7.25097656 7.13232422c.30322266 0 .4921875-.19335938.4921875-.50976563v-1.72705078h1.36230469c1.24365235 0 2.11816405-.85253906 2.11816405-2.09179687 0-1.23486328-.8569336-2.08300781-2.08740233-2.08300781h-1.88525391c-.30761718 0-.4921875.19335937-.4921875.50976562v5.39208984c0 .31640625.18457032.50976563.4921875.50976563zm.4921875-3.06298828v-2.51806641h1.13378906c.85253907 0 1.34033208.45703125 1.34033208 1.25683594s-.48779301 1.26123047-1.34472661 1.26123047z"/><path d="m12.9594727 7.14111328c.6020507 0 1.1909179-.32519531 1.4589843-.83935547h.0219727v.39111328c.0087891.28125.1889648.45263672.4526367.45263672.2680664 0 .4570313-.18017578.4570313-.4790039v-2.79052735c0-.92724609-.7163086-1.52050781-1.8369141-1.52050781-.8305664 0-1.5292969.33398437-1.7709961.85693359-.0571289.10546875-.0834961.2109375-.0834961.30761719 0 .23730469.1713867.39550781.4086914.39550781.1669922 0 .2900391-.06152343.3867188-.20214843.2636718-.421875.5668945-.58447266 1.0239257-.58447266.5800782 0 .9272461.30761719.9272461.82177734v.35595703l-1.2700195.07470704c-1.0942383.06152343-1.7182617.55810546-1.7182617 1.36669922 0 .8305664.637207 1.3930664 1.5424805 1.3930664zm.2592773-.75146484c-.5053711 0-.84375-.26367188-.84375-.66796875 0-.39550781.3208008-.6459961.8876953-.68554688l1.1425781-.0703125v.3647461c0 .60205078-.5229492 1.05908203-1.1865234 1.05908203z"/><path d="m16.8310547 8.78466797c.8569336 0 1.2919922-.37792969 1.7006836-1.48974609l1.6040039-4.24072266c.0307617-.09228516.0483398-.18896484.0483398-.26367188 0-.25488281-.1889648-.43505859-.4614258-.43505859-.2416992 0-.3735351.10546875-.4526367.36474609l-1.1821289 3.48046875h-.0131836l-1.1777343-3.48046875c-.0834961-.26367187-.2197266-.36474609-.4570313-.36474609-.2768555 0-.4833984.18017578-.4833984.43945313 0 .07470703.0175781.17138671.0527343.2680664l1.546875 4.04736328-.0878906.26806641c-.1713867.47460937-.4394531.61962891-.703125.61962891-.1098633 0-.1450195-.00439454-.2460937-.00439454-.2285157 0-.3691407.13183594-.3691407.33398438 0 .29443359.2416993.45703125.6811524.45703125z"/><path d="m21.2915039 7.14550781c.2856445 0 .4746094-.1977539.4746094-.50097656v-2.43896484c0-.59326172.3999023-1.03271485.9624023-1.03271485.5361328 0 .8745117.33837891.8745117.87011719v2.6015625c0 .30322266.1801758.50097656.4658204.50097656.2856445 0 .4658203-.1977539.4658203-.50097656v-2.46972656c0-.58447266.3911132-1.00195313.9536132-1.00195313s.8833008.34277344.8833008.94042969v2.53125c0 .30322266.1889649.50097656.4746094.50097656s.4790039-.1977539.4790039-.50097656v-2.75976563c0-.91845703-.5976562-1.52490234-1.5117187-1.52490234-.6591797 0-1.2041016.34277344-1.4414063.90527344h-.0219726c-.1845704-.5756836-.6503907-.90527344-1.2919922-.90527344-.6240235 0-1.1074219.34277344-1.3139649.8569336h-.0219726v-.37792969c0-.30322266-.1889649-.48339844-.4526368-.48339844-.2680664 0-.4526367.18457031-.4526367.48339844v3.80566406c0 .30322266.1889649.50097656.4746094.50097656z"/><path d="m30.2431641 7.14990234c.8613281 0 1.5336914-.34716796 1.836914-.95361328.0395508-.09228515.065918-.18017578.065918-.25488281 0-.23730469-.1669922-.38671875-.3955078-.38671875-.1362305 0-.2329102.04833984-.3339844.16699219-.3515625.4790039-.6767578.65917969-1.1953125.65917969-.7558594 0-1.2304687-.52734376-1.2304687-1.37109376v-.02197265h2.7949218c.2944336 0 .4702149-.17578125.4702149-.48339844 0-1.26123047-.8481446-2.14892578-2.0786133-2.14892578-1.3095703 0-2.1445313.94921875-2.1445313 2.41699219 0 1.49414062.8173829 2.3774414 2.2104493 2.3774414zm-1.2480469-2.82568359c.0483398-.72070313.5229492-1.20410156 1.1777344-1.20410156.6591796 0 1.1118164.4790039 1.133789 1.20410156z"/><path d="m33.4643555 7.14550781c.2768554 0 .4746093-.18896484.4746093-.50097656v-2.27636719c0-.71630859.4306641-1.19091797 1.0986329-1.19091797.6591796 0 .984375.38232422.984375 1.07666016v2.390625c0 .31201172.1977539.50097656.4746093.50097656.28125 0 .4790039-.18896484.4790039-.50097656v-2.57519531c0-1.05908203-.5844726-1.70947266-1.6040039-1.70947266-.711914 0-1.1953125.31640625-1.4458008.84375h-.0219726v-.36474609c0-.2944336-.1889648-.48339844-.4614258-.48339844-.2768555 0-.4526367.18896484-.4526367.47900391v3.81005859c0 .31201172.1933594.50097656.4746094.50097656z"/><path d="m38.1665039 5.95458984c0 .76464844.3955078 1.14697266 1.1733399 1.14697266h.0483398c.4658203 0 .6855469-.14501953.6855469-.43066406 0-.2241211-.1362305-.33398438-.4086914-.36035156l-.0747071-.00439454c-.3427734-.02636718-.4702148-.19335937-.4702148-.5625v-2.55322265h.5405273c.2460938 0 .3955078-.140625.3955078-.37353516 0-.23291015-.149414-.37792969-.3955078-.37792969h-.5405273v-.68554687c0-.30322266-.1889649-.50537109-.4746094-.50537109-.290039 0-.4790039.20214843-.4790039.50537109v.68554687h-.3339844c-.2460937 0-.3955078.140625-.3955078.37792969 0 .23291016.1494141.37353516.3955078.37353516h.3339844z"/></g><g fill="#b373d3" transform="translate(246.540527 6.937988)"><path d="m0 3.88916016c0 .14941406.05712891.27685546.17578125.39111328l3.42773437 3.35302734c.09228516.09667969.21533204.14501953.35595704.14501953.28564453 0 .50976562-.21972656.50976562-.50976562 0-.140625-.0571289-.26806641-.15380859-.3647461l-3.08935547-3.01464843 3.08935547-3.01464844c.09667969-.10107422.15380859-.22851563.15380859-.36914063 0-.28564453-.22412109-.50537109-.50976562-.50537109-.140625 0-.26367188.04833984-.35595704.14501953l-3.42773437 3.35302735c-.11865234.11425781-.17138672.24169921-.17578125.39111328z"/><path d="m9.01318359 7.13232422c.30761719 0 .4921875-.19335938.4921875-.50976563v-2.15771484l2.01269531-3.04541016c.074707-.11425781.1010742-.21533203.1010742-.32519531 0-.25488281-.2109375-.44384765-.4833984-.44384765-.1933594 0-.3164063.07910156-.4350586.27685546l-1.66552735 2.59277344h-.03076172l-1.66552734-2.59277344c-.12304688-.20214843-.23730469-.27685546-.43945313-.27685546-.27685547 0-.48779297.18896484-.48779297.44824218 0 .10986328.02636719.2109375.10107422.32080078l2.00830078 3.04541016v2.15771484c0 .31640625.18896485.50976563.4921875.50976563z"/><path d="m13.4296875 7.14990234c1.3227539 0 2.1928711-.90966796 2.1928711-2.39941406 0-1.48535156-.8745117-2.39501953-2.1928711-2.39501953s-2.1928711.90966797-2.1928711 2.39501953c0 1.4897461.8701172 2.39941406 2.1928711 2.39941406zm0-.78222656c-.7426758 0-1.2260742-.58886719-1.2260742-1.6171875 0-1.02392578.4833984-1.61279297 1.2260742-1.61279297s1.2260742.58886719 1.2260742 1.61279297c0 1.02832031-.4790039 1.6171875-1.2260742 1.6171875z"/><path d="m17.9560547 7.14550781c.7075195 0 1.1777344-.31201172 1.4326172-.86572265h.0219726v.38671875c0 .29003906.1845703.4790039.4570313.4790039.2724609 0 .4526367-.18896484.4526367-.48339843v-3.80126954c0-.31640625-.1933594-.50537109-.4746094-.50537109-.2768554 0-.4746093.18896484-.4746093.50537109v2.27197266c0 .72070312-.413086 1.1953125-1.0986329 1.1953125-.6547851 0-.9887695-.37792969-.9887695-1.08105469v-2.38623047c0-.31640625-.1977539-.50537109-.4746094-.50537109-.28125 0-.4746093.18896484-.4746093.50537109v2.57080078c0 1.05908204.6152343 1.71386719 1.621582 1.71386719z"/><path d="m21.730957 7.14550781c.28125 0 .4746094-.19335937.4746094-.50097656v-2.35986328c0-.57568359.2636719-1.01074219.9140625-1.01513672.1977539 0 .3383789-.03955078.4350586-.12304687.0922852-.07470704.140625-.18457032.140625-.33398438s-.0395508-.26367188-.1274414-.33398438c-.0791016-.07470703-.206543-.11425781-.3735352-.11425781-.4614257 0-.8876953.34716797-1.0151367.86572266h-.0219726v-.39550781c0-.29003907-.1845704-.47900391-.4482422-.47900391-.2680664 0-.4526367.18896484-.4526367.47900391v3.81005859c0 .30761719.1889648.50097656.4746093.50097656z"/><path d="m28.8896484 7.16748047c1.8237305 0 2.9707032-1.25683594 2.9707032-3.27392578 0-2.01708985-1.1469727-3.27832031-2.9707032-3.27832031-1.828125 0-2.9707031 1.26123046-2.9707031 3.27832031 0 2.01708984 1.1425781 3.27392578 2.9707031 3.27392578zm0-.86572266c-1.2041015 0-1.9643554-.93164062-1.9643554-2.40820312 0-1.48095703.7602539-2.41259766 1.9643554-2.41259766 1.2041016 0 1.959961.93164063 1.959961 2.41259766 0 1.4765625-.7558594 2.40820312-1.959961 2.40820312z"/><path d="m33.1567383 7.14550781c.28125 0 .4746094-.19335937.4746094-.50097656v-2.35986328c0-.57568359.2636718-1.01074219.9140625-1.01513672.1977539 0 .3383789-.03955078.4350586-.12304687.0922851-.07470704.140625-.18457032.140625-.33398438s-.0395508-.26367188-.1274415-.33398438c-.0791015-.07470703-.2065429-.11425781-.3735351-.11425781-.4614258 0-.8876953.34716797-1.0151367.86572266h-.0219727v-.39550781c0-.29003907-.1845703-.47900391-.4482422-.47900391-.2680664 0-.4526367.18896484-.4526367.47900391v3.81005859c0 .30761719.1889649.50097656.4746094.50097656z"/><path d="m37.1733398 7.14111328c.7207032 0 1.2084961-.36035156 1.4458008-.9008789h.0131836v.43066406c0 .29882812.215332.47460937.4833985.47460937.2768554 0 .4702148-.17578125.4702148-.47460937v-5.53271485c0-.31201171-.1977539-.50097656-.4746094-.50097656-.28125 0-.4790039.18896485-.4790039.50097656v2.06982422h-.0175781c-.2592773-.50976562-.7866211-.84375-1.4501953-.84375-1.1601563 0-1.9335938.9272461-1.9335938 2.38623047 0 1.45898438.7734375 2.390625 1.9423828 2.390625zm.2504883-.80419922c-.7514648 0-1.2216797-.61083984-1.2216797-1.58642578 0-.9711914.4702149-1.58642578 1.2216797-1.58642578.7294922 0 1.2172852.62841797 1.2172852 1.58642578 0 .96679688-.487793 1.58642578-1.2172852 1.58642578z"/><path d="m42.5610352 7.14990234c.8613281 0 1.5336914-.34716796 1.836914-.95361328.0395508-.09228515.065918-.18017578.065918-.25488281 0-.23730469-.1669922-.38671875-.3955078-.38671875-.1362305 0-.2329102.04833984-.3339844.16699219-.3515625.4790039-.6767578.65917969-1.1953125.65917969-.7558594 0-1.2304687-.52734376-1.2304687-1.37109376v-.02197265h2.7949218c.2944336 0 .4702149-.17578125.4702149-.48339844 0-1.26123047-.8481446-2.14892578-2.0786133-2.14892578-1.3095703 0-2.1445313.94921875-2.1445313 2.41699219 0 1.49414062.8173829 2.3774414 2.2104493 2.3774414zm-1.2480469-2.82568359c.0483398-.72070313.5229492-1.20410156 1.1777344-1.20410156.6591796 0 1.1118164.4790039 1.133789 1.20410156z"/><path d="m45.7822266 7.14550781c.28125 0 .4746093-.19335937.4746093-.50097656v-2.35986328c0-.57568359.2636719-1.01074219.9140625-1.01513672.1977539 0 .3383789-.03955078.4350586-.12304687.0922852-.07470704.140625-.18457032.140625-.33398438s-.0395508-.26367188-.1274414-.33398438c-.0791015-.07470703-.2065429-.11425781-.3735351-.11425781-.4614258 0-.8876953.34716797-1.0151367.86572266h-.0219727v-.39550781c0-.29003907-.1845703-.47900391-.4482422-.47900391-.2680664 0-.4526367.18896484-.4526367.47900391v3.81005859c0 .30761719.1889648.50097656.4746094.50097656z"/></g><path d="m11.8535156 36.7807617c.9711914 0 1.6435547-.7221679 1.6435547-1.7680664v-33.14501952c0-1.17041015-.6972656-1.86767578-1.8178711-1.86767578-.7719726 0-1.2202148.17431641-2.21630858.89648438l-8.51660156 5.80224609c-.72216797.52294922-.94628906.92138672-.94628906 1.54394531 0 .84667969.54785156 1.4194336 1.36962891 1.4194336.42333984 0 .77197265-.12451172 1.14550781-.3984375l7.62011718-5.10498047h.074707v30.85400389c0 1.0458985.6723633 1.7680664 1.6435547 1.7680664z" fill="#eddef4" transform="translate(18.842773 41.642578)"/><path d="m1.69335938 36.5068359h20.49462892c.946289 0 1.59375-.5976562 1.59375-1.5190429 0-.9213868-.647461-1.519043-1.59375-1.519043h-17.35693361v-.0996094l9.91113281-10.3344726c6.0512695-6.2753907 7.8691406-9.2387696 7.8691406-13.09863284 0-5.75244141-4.6318359-9.93603516-11.0068359-9.93603516-6.77343751 0-10.83251954 4.40771484-11.40527345 8.56640625-.04980469.34863281-.07470703.59765625-.07470703.89648438 0 .89648437.57275391 1.54394527 1.56884766 1.54394527.94628906 0 1.34472656-.4980468 1.54394531-1.24511715.94628906-4.00927734 3.85986328-6.7734375 8.41699221-6.7734375 4.3330078 0 7.5703125 3.06298828 7.5703125 7.12207035 0 3.1625976-1.3447266 5.3291015-6.4497071 10.7080078l-11.80371089 12.3764648c-.796875.8466797-.97119141 1.1704102-.97119141 1.8676758 0 .8964844.67236328 1.4443359 1.69335938 1.4443359z" fill="#eddef4" transform="translate(98.938477 41.493164)"/><path d="m12.0776367 37.0795898c7.022461 0 12.3017578-4.3330078 12.3017578-10.434082 0-5.1049805-3.6108398-8.4169922-8.9648437-8.840332v-.0996094c4.6069336-.9213867 7.6699219-4.0341797 7.6699219-8.49169921 0-5.15478516-4.2832032-9.21386719-11.1313477-9.21386719-5.03027344 0-8.96484375 2.36572266-10.58349609 6.15087891-.42333985.87158203-.59765625 1.66845703-.59765625 2.49023437 0 1.0209961.54785156 1.59375002 1.51904296 1.59375002.92138672 0 1.22021485-.44824221 1.56884766-1.49414064 1.0209961-3.5859375 3.8100586-5.75244141 8.09326172-5.75244141 4.855957 0 7.6948242 2.73925781 7.6948242 6.62402344 0 3.98437501-3.3120117 6.82324221-8.118164 6.82324221h-2.96337895c-.92138672 0-1.54394531.5976562-1.54394531 1.4692383 0 .871582.62255859 1.4443359 1.54394531 1.4443359h3.11279295c5.7275391 0 9.2636719 2.6894531 9.2387696 7.3959961-.0249024 4.2333984-3.6357422 7.3461914-8.8403321 7.3461914-4.80615232 0-7.91894529-2.3408203-8.91503904-5.7773438-.34863282-1.0708007-.796875-1.5190429-1.59375-1.5190429-.97119141 0-1.56884766.6474609-1.56884766 1.6186523 0 .8217774.17431641 1.59375.64746094 2.4902344 1.81787109 3.8847656 5.92675781 6.1757812 11.43017576 6.1757812z" fill="#eddef4" transform="translate(180.589844 41.493164)"/><path d="m19.9716797 36.7807617c.9462891 0 1.6435547-.7221679 1.6435547-1.7680664v-6.7734375h3.9594726c.9213868 0 1.59375-.5976562 1.59375-1.519043 0-.9213867-.6723632-1.4941406-1.59375-1.4941406h-3.9594726v-22.56152342c0-1.74316406-.9711914-2.66455078-2.7641602-2.66455078-1.4692383 0-2.3657226.64746094-3.8349609 2.76416016-5.4536133 7.64501954-10.65820314 15.16552734-14.19433596 20.94287104-.62255859 1.0957032-.82177734 1.6933594-.82177734 2.5649415 0 1.1953125.77197266 1.9672851 1.9921875 1.9672851h16.3110352v6.7734375c0 1.0458985.6972656 1.7680664 1.668457 1.7680664zm-1.668457-11.5546875h-14.81689458v-.0996094c3.61083985-5.9018554 8.26757808-12.6254882 14.76708988-21.66503902h.0498047z" fill="#eddef4" transform="translate(256.792969 41.642578)"/></g></g><g fill="#b373d3" fill-rule="nonzero"><path d="m87.3491595 79.99784 9.1505402 4.1854049-8.838648 4.8091892-.1354549-3.8931163c-4.8380677 1.1337637-8.2587714 3.9442575-10.7147244 8.3988649-2.0290073 3.6802133-3.2519284 7.9243513-4.6485705 15.0500293-.0867342.442518-.1761558.904598-.2822006 1.457143-.0697976.364045-.0697976.364045-.1393552.727747-.0694819.363481-.0694819.363481-.1389018.726426-1.5349545 8.020864-2.4860182 11.62823-4.3253185 15.035723-2.4267396 4.495784-5.9821869 6.8347-11.2018114 6.872536l-.0072487-.999973c4.8382459-.035072 8.0688732-2.160308 10.3290742-6.347563 1.7724759-3.283693 2.7084852-6.833959 4.2231276-14.748682.0693779-.362726.0693779-.362726.1388715-.726268.069596-.363902.069596-.363902.1394854-.728427.1062726-.553732.1959311-1.017036.2829495-1.461004 1.415571-7.222253 2.6606348-11.5432372 4.7541744-15.3404991 2.6198605-4.751903 6.3277323-7.7635407 11.5564406-8.9341608z" opacity=".5"/><path d="m167.349159 79.99784 9.150541 4.1854049-8.838648 4.8091892-.135455-3.8931163c-4.838068 1.1337637-8.258772 3.9442575-10.714725 8.3988649-2.029007 3.6802133-3.251928 7.9243513-4.64857 15.0500293-.086734.442518-.176156.904598-.282201 1.457143-.069797.364045-.069797.364045-.139355.727747-.069482.363481-.069482.363481-.138902.726426-1.534954 8.020864-2.486018 11.62823-4.325318 15.035723-2.42674 4.495784-5.982187 6.8347-11.201812 6.872536l-.007248-.999973c4.838246-.035072 8.068873-2.160308 10.329074-6.347563 1.772476-3.283693 2.708485-6.833959 4.223127-14.748682.069378-.362726.069378-.362726.138872-.726268.069596-.363902.069596-.363902.139485-.728427.106273-.553732.195932-1.017036.28295-1.461004 1.415571-7.222253 2.660635-11.5432372 4.754174-15.3404991 2.619861-4.751903 6.327733-7.7635407 11.556441-8.9341608z" opacity=".5"/><path d="m249.349159 79.99784 9.150541 4.1854049-8.838648 4.8091892-.135455-3.8931163c-4.838068 1.1337637-8.258772 3.9442575-10.714725 8.3988649-2.029007 3.6802133-3.251928 7.9243513-4.64857 15.0500293-.086734.442518-.176156.904598-.282201 1.457143-.069797.364045-.069797.364045-.139355.727747-.069482.363481-.069482.363481-.138902.726426-1.534954 8.020864-2.486018 11.62823-4.325318 15.035723-2.42674 4.495784-5.982187 6.8347-11.201812 6.872536l-.007248-.999973c4.838246-.035072 8.068873-2.160308 10.329074-6.347563 1.772476-3.283693 2.708485-6.833959 4.223127-14.748682.069378-.362726.069378-.362726.138872-.726268.069596-.363902.069596-.363902.139485-.728427.106273-.553732.195932-1.017036.28295-1.461004 1.415571-7.222253 2.660635-11.5432372 4.754174-15.3404991 2.619861-4.751903 6.327733-7.7635407 11.556441-8.9341608z" opacity=".5"/><path d="m247.860489 26.5538351-.778963.6270691c-22.158075-27.52540996-38.222259-33.10917639-48.198461-19.76349646l3.445598 1.88434906-8.265717 5.738286.368802-10.05554503 3.565252 1.94850223.041511-.05600657c10.488405-14.12265136 27.281917-8.32308345 49.821978 19.67684167z" opacity=".5"/><path d="m168.860489 26.5538351-.778963.6270691c-22.158075-27.52540996-38.222259-33.10917639-48.198461-19.76349646l3.445598 1.88434906-8.265717 5.738286.368802-10.05554503 3.565252 1.94850223.041511-.05600657c10.488405-14.12265136 27.281917-8.32308345 49.821978 19.67684167z" opacity=".5"/></g></g><g transform="translate(33 220)"><path d="m10.2555408-1h39.5600084c3.8492722 0 5.2310569.43613598 6.6345225 1.18671762 1.4805498.79180671 2.642494 1.95375088 3.4343007 3.43430071.7505817 1.40346563 1.1867176 2.78525029 1.1867176 6.63452247v109.4889182c0 3.849272-.4361359 5.231057-1.1867176 6.634523-.7918067 1.48055-1.9537509 2.642494-3.4343007 3.4343-1.4034656.750582-2.7852503 1.186718-6.6345225 1.186718h-39.5600084c-3.84927218 0-5.23105684-.436136-6.63452247-1.186718-1.48054983-.791806-2.642494-1.95375-3.43430071-3.4343-.75058164-1.403466-1.18671762-2.785251-1.18671762-6.634523v-109.4889182c0-3.84927218.43613598-5.23105684 1.18671762-6.63452247.79180671-1.48054983 1.95375088-2.642494 3.43430071-3.43430071 1.40346563-.75058164 2.78525029-1.18671762 6.63452247-1.18671762z" fill="#fff" stroke="#ab7bbc" stroke-width="2"/><path d="m91.2555408-1h39.5600082c3.849272 0 5.231057.43613598 6.634523 1.18671762 1.48055.79180671 2.642494 1.95375088 3.4343 3.43430071.750582 1.40346563 1.186718 2.78525029 1.186718 6.63452247v109.4889182c0 3.849272-.436136 5.231057-1.186718 6.634523-.791806 1.48055-1.95375 2.642494-3.4343 3.4343-1.403466.750582-2.785251 1.186718-6.634523 1.186718h-39.5600082c-3.8492722 0-5.2310568-.436136-6.6345225-1.186718-1.4805498-.791806-2.642494-1.95375-3.4343007-3.4343-.7505816-1.403466-1.1867176-2.785251-1.1867176-6.634523v-109.4889182c0-3.84927218.436136-5.23105684 1.1867176-6.63452247.7918067-1.48054983 1.9537509-2.642494 3.4343007-3.43430071 1.4034657-.75058164 2.7852503-1.18671762 6.6345225-1.18671762z" fill="#fff" stroke="#ab7bbc" stroke-width="2"/><path d="m172.255541-1h39.560008c3.849272 0 5.231057.43613598 6.634523 1.18671762 1.48055.79180671 2.642494 1.95375088 3.4343 3.43430071.750582 1.40346563 1.186718 2.78525029 1.186718 6.63452247v109.4889182c0 3.849272-.436136 5.231057-1.186718 6.634523-.791806 1.48055-1.95375 2.642494-3.4343 3.4343-1.403466.750582-2.785251 1.186718-6.634523 1.186718h-39.560008c-3.849272 0-5.231057-.436136-6.634523-1.186718-1.48055-.791806-2.642494-1.95375-3.4343-3.4343-.750582-1.403466-1.186718-2.785251-1.186718-6.634523v-109.4889182c0-3.84927218.436136-5.23105684 1.186718-6.63452247.791806-1.48054983 1.95375-2.642494 3.4343-3.43430071 1.403466-.75058164 2.785251-1.18671762 6.634523-1.18671762z" fill="#fff" stroke="#ab7bbc" stroke-width="2"/><path d="m252.255541-1h39.560008c3.849272 0 5.231057.43613598 6.634523 1.18671762 1.48055.79180671 2.642494 1.95375088 3.4343 3.43430071.750582 1.40346563 1.186718 2.78525029 1.186718 6.63452247v109.4889182c0 3.849272-.436136 5.231057-1.186718 6.634523-.791806 1.48055-1.95375 2.642494-3.4343 3.4343-1.403466.750582-2.785251 1.186718-6.634523 1.186718h-39.560008c-3.849272 0-5.231057-.436136-6.634523-1.186718-1.48055-.791806-2.642494-1.95375-3.4343-3.4343-.750582-1.403466-1.186718-2.785251-1.186718-6.634523v-109.4889182c0-3.84927218.436136-5.23105684 1.186718-6.63452247.791806-1.48054983 1.95375-2.642494 3.4343-3.43430071 1.403466-.75058164 2.785251-1.18671762 6.634523-1.18671762z" fill="#fff" stroke="#ab7bbc" stroke-width="2"/><path d="m88.8458278 104h44.3083442c1.337278 0 1.822208.139238 2.311097.400699.488888.261461.872571.645144 1.134032 1.134032.261461.488889.400699.973819.400699 2.311097v6.308344c0 1.337278-.139238 1.822208-.400699 2.311097-.261461.488888-.645144.872571-1.134032 1.134032-.488889.261461-.973819.400699-2.311097.400699h-44.3083442c-1.3372781 0-1.8222075-.139238-2.3110964-.400699-.4888888-.261461-.8725717-.645144-1.1340323-1.134032-.2614607-.488889-.4006991-.973819-.4006991-2.311097v-6.308344c0-1.337278.1392384-1.822208.4006991-2.311097.2614606-.488888.6451435-.872571 1.1340323-1.134032.4888889-.261461.9738183-.400699 2.3110964-.400699z" fill="#b373d3"/><path d="m7.8458278 104h44.3083444c1.3372781 0 1.8222075.139238 2.3110964.400699.4888888.261461.8725717.645144 1.1340323 1.134032.2614607.488889.4006991.973819.4006991 2.311097v6.308344c0 1.337278-.1392384 1.822208-.4006991 2.311097-.2614606.488888-.6451435.872571-1.1340323 1.134032-.4888889.261461-.9738183.400699-2.3110964.400699h-44.3083444c-1.33727811 0-1.82220747-.139238-2.31109636-.400699-.48888888-.261461-.87257175-.645144-1.13403238-1.134032-.26146064-.488889-.40069906-.973819-.40069906-2.311097v-6.308344c0-1.337278.13923842-1.822208.40069906-2.311097.26146063-.488888.6451435-.872571 1.13403238-1.134032.48888889-.261461.97381825-.400699 2.31109636-.400699z" fill="#b373d3"/><g fill="#fff" fill-rule="nonzero" transform="translate(102.584473 107.588379)"><path d="m.47900391 6.48193359c.29882812 0 .4790039-.18896484.4790039-.50097656v-4.24072265h.03955078l3.12451172 4.43847656c.16259766.22851562.29003907.30322265.53173828.30322265.32958985 0 .51855469-.18896484.51855469-.50976562v-5.47119141c0-.31201172-.18017578-.50097656-.4790039-.50097656-.2944336 0-.47900391.18896484-.47900391.50097656v4.24511719h-.03515625l-3.12011719-4.43847656c-.16259765-.22851563-.29882812-.30761719-.53173828-.30761719-.32519531 0-.52734375.20654297-.52734375.53173828v5.44921875c0 .31201172.18017578.50097656.47900391.50097656z"/><path d="m8.23095703 6.49951172c.86132813 0 1.53369141-.34716797 1.83691407-.95361328.0395508-.09228516.065918-.18017578.065918-.25488282 0-.23730468-.16699222-.38671874-.39550785-.38671874-.13623047 0-.23291016.04833984-.33398437.16699218-.3515625.47900391-.67675782.65917969-1.1953125.65917969-.75585938 0-1.23046876-.52734375-1.23046876-1.37109375v-.02197266h2.79492188c.2944336 0 .4702148-.17578125.4702148-.48339843 0-1.26123047-.84814449-2.14892579-2.07861324-2.14892579-1.30957031 0-2.14453125.94921876-2.14453125 2.41699219 0 1.49414063.81738281 2.37744141 2.21044922 2.37744141zm-1.24804687-2.8256836c.04833984-.72070312.52294922-1.20410156 1.17773437-1.20410156.65917969 0 1.11181641.47900391 1.13378906 1.20410156z"/><path d="m11.1708984 6.49511719c.1625977 0 .2680664-.05712891.3735352-.21972657l1.0634766-1.56445312h.0219726l1.0634766 1.57324219c.0922851.140625.2021484.2109375.3691406.2109375.2592773 0 .4526367-.17138672.4526367-.41748047 0-.09667969-.0307617-.18896484-.1010742-.29003906l-1.2172852-1.71386719 1.2216797-1.66113281c.0791016-.10107422.1098633-.19335938.1098633-.30322266 0-.23291016-.1889648-.40429688-.4570312-.40429688-.1625977 0-.2680664.0703125-.3823243.25048829l-1.0195312 1.50732421h-.0175781l-1.0415039-1.52050781c-.1142578-.17578125-.2109375-.23730469-.3911133-.23730469-.2592774 0-.4570313.17578126-.4570313.40869141 0 .10986328.0307618.20214844.0966797.29443359l1.2216797 1.69628907-1.2392578 1.69189453c-.074707.10546875-.1098633.1977539-.1098633.29882812 0 .23291016.1845703.39990235.4394531.39990235z"/><path d="m15.5874023 5.30419922c0 .76464844.3955079 1.14697266 1.1733399 1.14697266h.0483398c.4658203 0 .6855469-.14501954.6855469-.43066407 0-.22412109-.1362305-.33398437-.4086914-.36035156l-.074707-.00439453c-.3427735-.02636719-.4702149-.19335938-.4702149-.5625v-2.55322266h.5405274c.2460937 0 .3955078-.140625.3955078-.37353515 0-.23291016-.1494141-.37792969-.3955078-.37792969h-.5405274v-.68554688c0-.30322265-.1889648-.50537109-.4746094-.50537109-.290039 0-.4790039.20214844-.4790039.50537109v.68554688h-.3339843c-.2460938 0-.3955078.140625-.3955078.37792969 0 .23291015.149414.37353515.3955078.37353515h.3339843z"/></g><g fill="#fff" fill-rule="nonzero" transform="translate(21.584473 107.588379)"><path d="m.47900391 6.48193359c.29882812 0 .4790039-.18896484.4790039-.50097656v-4.24072265h.03955078l3.12451172 4.43847656c.16259766.22851562.29003907.30322265.53173828.30322265.32958985 0 .51855469-.18896484.51855469-.50976562v-5.47119141c0-.31201172-.18017578-.50097656-.4790039-.50097656-.2944336 0-.47900391.18896484-.47900391.50097656v4.24511719h-.03515625l-3.12011719-4.43847656c-.16259765-.22851563-.29882812-.30761719-.53173828-.30761719-.32519531 0-.52734375.20654297-.52734375.53173828v5.44921875c0 .31201172.18017578.50097656.47900391.50097656z"/><path d="m8.23095703 6.49951172c.86132813 0 1.53369141-.34716797 1.83691407-.95361328.0395508-.09228516.065918-.18017578.065918-.25488282 0-.23730468-.16699222-.38671874-.39550785-.38671874-.13623047 0-.23291016.04833984-.33398437.16699218-.3515625.47900391-.67675782.65917969-1.1953125.65917969-.75585938 0-1.23046876-.52734375-1.23046876-1.37109375v-.02197266h2.79492188c.2944336 0 .4702148-.17578125.4702148-.48339843 0-1.26123047-.84814449-2.14892579-2.07861324-2.14892579-1.30957031 0-2.14453125.94921876-2.14453125 2.41699219 0 1.49414063.81738281 2.37744141 2.21044922 2.37744141zm-1.24804687-2.8256836c.04833984-.72070312.52294922-1.20410156 1.17773437-1.20410156.65917969 0 1.11181641.47900391 1.13378906 1.20410156z"/><path d="m11.1708984 6.49511719c.1625977 0 .2680664-.05712891.3735352-.21972657l1.0634766-1.56445312h.0219726l1.0634766 1.57324219c.0922851.140625.2021484.2109375.3691406.2109375.2592773 0 .4526367-.17138672.4526367-.41748047 0-.09667969-.0307617-.18896484-.1010742-.29003906l-1.2172852-1.71386719 1.2216797-1.66113281c.0791016-.10107422.1098633-.19335938.1098633-.30322266 0-.23291016-.1889648-.40429688-.4570312-.40429688-.1625977 0-.2680664.0703125-.3823243.25048829l-1.0195312 1.50732421h-.0175781l-1.0415039-1.52050781c-.1142578-.17578125-.2109375-.23730469-.3911133-.23730469-.2592774 0-.4570313.17578126-.4570313.40869141 0 .10986328.0307618.20214844.0966797.29443359l1.2216797 1.69628907-1.2392578 1.69189453c-.074707.10546875-.1098633.1977539-.1098633.29882812 0 .23291016.1845703.39990235.4394531.39990235z"/><path d="m15.5874023 5.30419922c0 .76464844.3955079 1.14697266 1.1733399 1.14697266h.0483398c.4658203 0 .6855469-.14501954.6855469-.43066407 0-.22412109-.1362305-.33398437-.4086914-.36035156l-.074707-.00439453c-.3427735-.02636719-.4702149-.19335938-.4702149-.5625v-2.55322266h.5405274c.2460937 0 .3955078-.140625.3955078-.37353515 0-.23291016-.1494141-.37792969-.3955078-.37792969h-.5405274v-.68554688c0-.30322265-.1889648-.50537109-.4746094-.50537109-.290039 0-.4790039.20214844-.4790039.50537109v.68554688h-.3339843c-.2460938 0-.3955078.140625-.3955078.37792969 0 .23291015.149414.37353515.3955078.37353515h.3339843z"/></g><path d="m169.845828 104h44.308344c1.337278 0 1.822208.139238 2.311097.400699.488888.261461.872571.645144 1.134032 1.134032.261461.488889.400699.973819.400699 2.311097v6.308344c0 1.337278-.139238 1.822208-.400699 2.311097-.261461.488888-.645144.872571-1.134032 1.134032-.488889.261461-.973819.400699-2.311097.400699h-44.308344c-1.337278 0-1.822208-.139238-2.311097-.400699-.488888-.261461-.872571-.645144-1.134032-1.134032-.261461-.488889-.400699-.973819-.400699-2.311097v-6.308344c0-1.337278.139238-1.822208.400699-2.311097.261461-.488888.645144-.872571 1.134032-1.134032.488889-.261461.973819-.400699 2.311097-.400699z" fill="#b373d3"/><g fill-rule="nonzero"><g fill="#fff" transform="translate(183.584473 107.588379)"><path d="m.47900391 6.48193359c.29882812 0 .4790039-.18896484.4790039-.50097656v-4.24072265h.03955078l3.12451172 4.43847656c.16259766.22851562.29003907.30322265.53173828.30322265.32958985 0 .51855469-.18896484.51855469-.50976562v-5.47119141c0-.31201172-.18017578-.50097656-.4790039-.50097656-.2944336 0-.47900391.18896484-.47900391.50097656v4.24511719h-.03515625l-3.12011719-4.43847656c-.16259765-.22851563-.29882812-.30761719-.53173828-.30761719-.32519531 0-.52734375.20654297-.52734375.53173828v5.44921875c0 .31201172.18017578.50097656.47900391.50097656z"/><path d="m8.23095703 6.49951172c.86132813 0 1.53369141-.34716797 1.83691407-.95361328.0395508-.09228516.065918-.18017578.065918-.25488282 0-.23730468-.16699222-.38671874-.39550785-.38671874-.13623047 0-.23291016.04833984-.33398437.16699218-.3515625.47900391-.67675782.65917969-1.1953125.65917969-.75585938 0-1.23046876-.52734375-1.23046876-1.37109375v-.02197266h2.79492188c.2944336 0 .4702148-.17578125.4702148-.48339843 0-1.26123047-.84814449-2.14892579-2.07861324-2.14892579-1.30957031 0-2.14453125.94921876-2.14453125 2.41699219 0 1.49414063.81738281 2.37744141 2.21044922 2.37744141zm-1.24804687-2.8256836c.04833984-.72070312.52294922-1.20410156 1.17773437-1.20410156.65917969 0 1.11181641.47900391 1.13378906 1.20410156z"/><path d="m11.1708984 6.49511719c.1625977 0 .2680664-.05712891.3735352-.21972657l1.0634766-1.56445312h.0219726l1.0634766 1.57324219c.0922851.140625.2021484.2109375.3691406.2109375.2592773 0 .4526367-.17138672.4526367-.41748047 0-.09667969-.0307617-.18896484-.1010742-.29003906l-1.2172852-1.71386719 1.2216797-1.66113281c.0791016-.10107422.1098633-.19335938.1098633-.30322266 0-.23291016-.1889648-.40429688-.4570312-.40429688-.1625977 0-.2680664.0703125-.3823243.25048829l-1.0195312 1.50732421h-.0175781l-1.0415039-1.52050781c-.1142578-.17578125-.2109375-.23730469-.3911133-.23730469-.2592774 0-.4570313.17578126-.4570313.40869141 0 .10986328.0307618.20214844.0966797.29443359l1.2216797 1.69628907-1.2392578 1.69189453c-.074707.10546875-.1098633.1977539-.1098633.29882812 0 .23291016.1845703.39990235.4394531.39990235z"/><path d="m15.5874023 5.30419922c0 .76464844.3955079 1.14697266 1.1733399 1.14697266h.0483398c.4658203 0 .6855469-.14501954.6855469-.43066407 0-.22412109-.1362305-.33398437-.4086914-.36035156l-.074707-.00439453c-.3427735-.02636719-.4702149-.19335938-.4702149-.5625v-2.55322266h.5405274c.2460937 0 .3955078-.140625.3955078-.37353515 0-.23291016-.1494141-.37792969-.3955078-.37792969h-.5405274v-.68554688c0-.30322265-.1889648-.50537109-.4746094-.50537109-.290039 0-.4790039.20214844-.4790039.50537109v.68554688h-.3339843c-.2460938 0-.3955078.140625-.3955078.37792969 0 .23291015.149414.37353515.3955078.37353515h.3339843z"/></g><path d="m11.8535156 36.7807617c.9711914 0 1.6435547-.7221679 1.6435547-1.7680664v-33.14501952c0-1.17041015-.6972656-1.86767578-1.8178711-1.86767578-.7719726 0-1.2202148.17431641-2.21630858.89648438l-8.51660156 5.80224609c-.72216797.52294922-.94628906.92138672-.94628906 1.54394531 0 .84667969.54785156 1.4194336 1.36962891 1.4194336.42333984 0 .77197265-.12451172 1.14550781-.3984375l7.62011718-5.10498047h.074707v30.85400389c0 1.0458985.6723633 1.7680664 1.6435547 1.7680664z" fill="#eddef4" transform="translate(18.842773 41.642578)"/><path d="m1.69335938 36.5068359h20.49462892c.946289 0 1.59375-.5976562 1.59375-1.5190429 0-.9213868-.647461-1.519043-1.59375-1.519043h-17.35693361v-.0996094l9.91113281-10.3344726c6.0512695-6.2753907 7.8691406-9.2387696 7.8691406-13.09863284 0-5.75244141-4.6318359-9.93603516-11.0068359-9.93603516-6.77343751 0-10.83251954 4.40771484-11.40527345 8.56640625-.04980469.34863281-.07470703.59765625-.07470703.89648438 0 .89648437.57275391 1.54394527 1.56884766 1.54394527.94628906 0 1.34472656-.4980468 1.54394531-1.24511715.94628906-4.00927734 3.85986328-6.7734375 8.41699221-6.7734375 4.3330078 0 7.5703125 3.06298828 7.5703125 7.12207035 0 3.1625976-1.3447266 5.3291015-6.4497071 10.7080078l-11.80371089 12.3764648c-.796875.8466797-.97119141 1.1704102-.97119141 1.8676758 0 .8964844.67236328 1.4443359 1.69335938 1.4443359z" fill="#eddef4" transform="translate(98.938477 41.493164)"/><path d="m12.0776367 37.0795898c7.022461 0 12.3017578-4.3330078 12.3017578-10.434082 0-5.1049805-3.6108398-8.4169922-8.9648437-8.840332v-.0996094c4.6069336-.9213867 7.6699219-4.0341797 7.6699219-8.49169921 0-5.15478516-4.2832032-9.21386719-11.1313477-9.21386719-5.03027344 0-8.96484375 2.36572266-10.58349609 6.15087891-.42333985.87158203-.59765625 1.66845703-.59765625 2.49023437 0 1.0209961.54785156 1.59375002 1.51904296 1.59375002.92138672 0 1.22021485-.44824221 1.56884766-1.49414064 1.0209961-3.5859375 3.8100586-5.75244141 8.09326172-5.75244141 4.855957 0 7.6948242 2.73925781 7.6948242 6.62402344 0 3.98437501-3.3120117 6.82324221-8.118164 6.82324221h-2.96337895c-.92138672 0-1.54394531.5976562-1.54394531 1.4692383 0 .871582.62255859 1.4443359 1.54394531 1.4443359h3.11279295c5.7275391 0 9.2636719 2.6894531 9.2387696 7.3959961-.0249024 4.2333984-3.6357422 7.3461914-8.8403321 7.3461914-4.80615232 0-7.91894529-2.3408203-8.91503904-5.7773438-.34863282-1.0708007-.796875-1.5190429-1.59375-1.5190429-.97119141 0-1.56884766.6474609-1.56884766 1.6186523 0 .8217774.17431641 1.59375.64746094 2.4902344 1.81787109 3.8847656 5.92675781 6.1757812 11.43017576 6.1757812z" fill="#eddef4" transform="translate(180.589844 41.493164)"/><path d="m19.9716797 36.7807617c.9462891 0 1.6435547-.7221679 1.6435547-1.7680664v-6.7734375h3.9594726c.9213868 0 1.59375-.5976562 1.59375-1.519043 0-.9213867-.6723632-1.4941406-1.59375-1.4941406h-3.9594726v-22.56152342c0-1.74316406-.9711914-2.66455078-2.7641602-2.66455078-1.4692383 0-2.3657226.64746094-3.8349609 2.76416016-5.4536133 7.64501954-10.65820314 15.16552734-14.19433596 20.94287104-.62255859 1.0957032-.82177734 1.6933594-.82177734 2.5649415 0 1.1953125.77197266 1.9672851 1.9921875 1.9672851h16.3110352v6.7734375c0 1.0458985.6972656 1.7680664 1.668457 1.7680664zm-1.668457-11.5546875h-14.81689458v-.0996094c3.61083985-5.9018554 8.26757808-12.6254882 14.76708988-21.66503902h.0498047z" fill="#eddef4" transform="translate(256.792969 41.642578)"/><g fill="#b373d3" transform="translate(276.527344 5.658691)"><path d="m.66357422 6.34130859h1.7578125c1.90283203 0 3.0234375-1.1821289 3.0234375-3.19482421 0-2.01269532-1.12060547-3.14648438-3.0234375-3.14648438h-1.7578125c-.41748047 0-.66357422.25488281-.66357422.68994141v4.95703125c0 .43945312.24609375.69433593.66357422.69433593zm.66357422-1.09863281v-4.1484375h.93603515c1.16894532 0 1.828125.72949219 1.828125 2.05664063 0 1.37109375-.64160156 2.09179687-1.828125 2.09179687z"/><path d="m8.34960938 6.44238281c1.42382812 0 2.33349612-.90966797 2.33349612-2.4609375 0-1.52929687-.92285159-2.45214843-2.33349612-2.45214843-1.41064454 0-2.3334961.92724609-2.3334961 2.45214843 0 1.546875.90966797 2.4609375 2.3334961 2.4609375zm0-.97998047c-.6328125 0-1.03271485-.53173828-1.03271485-1.4765625 0-.93603515.40869141-1.4765625 1.03271485-1.4765625.62402343 0 1.02832031.54052735 1.02832031 1.4765625 0 .94482422-.39990235 1.4765625-1.02832031 1.4765625z"/><path d="m11.9838867 6.43359375c.3779297 0 .6416016-.22851563.6416016-.66796875v-2.12695312c0-.61083985.3647461-1.03271485.9404297-1.03271485s.8657226.3515625.8657226.96679688v2.19287109c0 .43945312.2636719.66796875.6416016.66796875.3735351 0 .6416016-.22851563.6416016-.66796875v-2.4609375c0-1.10302734-.5888672-1.76220703-1.6347657-1.76220703-.7250976 0-1.199707.32080078-1.4501953.90527344h-.0263672v-.26367188c0-.40429687-.2548828-.65039062-.6416015-.65039062-.3867188 0-.6196289.24609375-.6196289.64599609v3.5859375c0 .43945312.2680664.66796875.6416015.66796875z"/><path d="m18.6943359 6.44238281c.909668 0 1.6391602-.34277343 1.9511719-.92285156.0571289-.10546875.0878906-.2109375.0878906-.31201172 0-.29443359-.2241211-.47021484-.5009765-.47021484-.1669922 0-.28125.04833984-.4174805.18896484-.347168.40869141-.6547852.56689453-1.125.56689453-.6503906 0-1.0722656-.45703125-1.0722656-1.15576172v-.0571289h2.6894531c.355957 0 .5581055-.20214844.5581055-.55810547 0-1.27880859-.8964844-2.19287109-2.2324219-2.19287109-1.3930664 0-2.2763672.96240234-2.2763672 2.47851562 0 1.52490234.8657227 2.43457031 2.3378906 2.43457031zm-1.0634765-2.94873047c.0439453-.60205078.4526367-1.01513672 1.0151367-1.01513672s.9580078.39990235.984375 1.01513672z"/></g><g fill="#b373d3" transform="translate(199.373535 5.377441)"><path d="m2.47412109 6.72802734c1.58203125 0 2.55322266-.78222656 2.55322266-2.02148437 0-.96240235-.58007813-1.50292969-1.92480469-1.77099609l-.66796875-.13623047c-.75146484-.14941407-1.0546875-.39111329-1.0546875-.78222657 0-.46582031.4350586-.7734375 1.08984375-.7734375.54492188 0 .95361328.19775391 1.16455078.67675782.14941407.27246093.33398438.39111328.6328125.39111328.33837891 0 .56689454-.21533203.56689454-.53173828 0-.11425782-.01757813-.20654297-.04833985-.2944336-.28125-.82617187-1.15576172-1.31396484-2.31591797-1.31396484-1.41064453 0-2.42138672.76904297-2.42138672 1.92919922 0 .94482422.61962891 1.55126953 1.88525391 1.80175781l.67236328.13183594c.79541016.16259765 1.09423828.39990234 1.09423828.81738281 0 .46582031-.48339843.80859375-1.1953125.80859375-.60644531 0-1.10302734-.21972656-1.30957031-.703125-.15820312-.28125-.33837891-.38671875-.61083984-.38671875-.34277344 0-.58447266.23291016-.58447266.58447266 0 .11865234.02636719.24169922.0703125.35595703.25488281.69433593 1.09423828 1.21728515 2.40380859 1.21728515z"/><path d="m6.3984375 6.71484375c.37792969 0 .64160156-.22851563.64160156-.66796875v-.95361328l.40869141-.37792969 1.20849609 1.59960938c.20214844.30322265.35595703.39990234.62841797.39990234.36035156 0 .61083985-.23730469.61083985-.58007813 0-.16699218-.03955079-.28125-.18017579-.47021484l-1.31396484-1.6743164 1.19970703-1.13378907c.18457031-.17138672.24169922-.29003906.24169922-.48339843 0-.31640626-.24169922-.55810547-.57128906-.55810547-.19335938 0-.33837891.07470703-.50976563.25488281l-1.70507812 1.70947266h-.01757813v-2.92236329c0-.43945312-.26367187-.67236328-.64160156-.67236328-.37353516 0-.64160156.23291016-.64160156.67236328v5.18994141c0 .43945312.2680664.66796875.64160156.66796875z"/><path d="m11.2324219 1.32714844c.3867187 0 .6855469-.2944336.6855469-.66357422 0-.37353516-.2988282-.66357422-.6855469-.66357422-.3867188 0-.6855469.29003906-.6855469.66357422 0 .36914062.2988281.66357422.6855469.66357422zm0 5.38769531c.3955078 0 .6416015-.25048828.6416015-.66796875v-3.55957031c0-.41748047-.2460937-.67236328-.6416015-.67236328-.3999024 0-.6416016.25488281-.6416016.67236328v3.55957031c0 .41748047.2416992.66796875.6416016.66796875z"/><path d="m13.3681641 8.30126953c.3779297 0 .6416015-.22851562.6416015-.66796875v-1.80175781h.0263672c.2504883.53173828.777832.86572265 1.4633789.86572265 1.1777344 0 1.9072266-.9140625 1.9072266-2.43017578 0-1.52050781-.7338867-2.43017578-1.9291992-2.43017578-.6811524 0-1.2041016.34277344-1.4589844.89648438h-.0263672v-.25488282c0-.43505859-.2636719-.66357421-.6328125-.66357421s-.6328125.22851562-.6328125.65917968v5.15917969c0 .43945313.2680664.66796875.6416016.66796875zm1.6787109-2.63671875c-.628418 0-1.0415039-.54492187-1.0415039-1.39746094 0-.84375.4130859-1.40185546 1.0415039-1.40185546.6416016 0 1.0458984.5493164 1.0458984 1.40185546 0 .8569336-.4042968 1.39746094-1.0458984 1.39746094z"/></g><g fill="#b373d3" transform="translate(118.373535 5.377441)"><path d="m2.47412109 6.72802734c1.58203125 0 2.55322266-.78222656 2.55322266-2.02148437 0-.96240235-.58007813-1.50292969-1.92480469-1.77099609l-.66796875-.13623047c-.75146484-.14941407-1.0546875-.39111329-1.0546875-.78222657 0-.46582031.4350586-.7734375 1.08984375-.7734375.54492188 0 .95361328.19775391 1.16455078.67675782.14941407.27246093.33398438.39111328.6328125.39111328.33837891 0 .56689454-.21533203.56689454-.53173828 0-.11425782-.01757813-.20654297-.04833985-.2944336-.28125-.82617187-1.15576172-1.31396484-2.31591797-1.31396484-1.41064453 0-2.42138672.76904297-2.42138672 1.92919922 0 .94482422.61962891 1.55126953 1.88525391 1.80175781l.67236328.13183594c.79541016.16259765 1.09423828.39990234 1.09423828.81738281 0 .46582031-.48339843.80859375-1.1953125.80859375-.60644531 0-1.10302734-.21972656-1.30957031-.703125-.15820312-.28125-.33837891-.38671875-.61083984-.38671875-.34277344 0-.58447266.23291016-.58447266.58447266 0 .11865234.02636719.24169922.0703125.35595703.25488281.69433593 1.09423828 1.21728515 2.40380859 1.21728515z"/><path d="m6.3984375 6.71484375c.37792969 0 .64160156-.22851563.64160156-.66796875v-.95361328l.40869141-.37792969 1.20849609 1.59960938c.20214844.30322265.35595703.39990234.62841797.39990234.36035156 0 .61083985-.23730469.61083985-.58007813 0-.16699218-.03955079-.28125-.18017579-.47021484l-1.31396484-1.6743164 1.19970703-1.13378907c.18457031-.17138672.24169922-.29003906.24169922-.48339843 0-.31640626-.24169922-.55810547-.57128906-.55810547-.19335938 0-.33837891.07470703-.50976563.25488281l-1.70507812 1.70947266h-.01757813v-2.92236329c0-.43945312-.26367187-.67236328-.64160156-.67236328-.37353516 0-.64160156.23291016-.64160156.67236328v5.18994141c0 .43945312.2680664.66796875.64160156.66796875z"/><path d="m11.2324219 1.32714844c.3867187 0 .6855469-.2944336.6855469-.66357422 0-.37353516-.2988282-.66357422-.6855469-.66357422-.3867188 0-.6855469.29003906-.6855469.66357422 0 .36914062.2988281.66357422.6855469.66357422zm0 5.38769531c.3955078 0 .6416015-.25048828.6416015-.66796875v-3.55957031c0-.41748047-.2460937-.67236328-.6416015-.67236328-.3999024 0-.6416016.25488281-.6416016.67236328v3.55957031c0 .41748047.2416992.66796875.6416016.66796875z"/><path d="m13.3681641 8.30126953c.3779297 0 .6416015-.22851562.6416015-.66796875v-1.80175781h.0263672c.2504883.53173828.777832.86572265 1.4633789.86572265 1.1777344 0 1.9072266-.9140625 1.9072266-2.43017578 0-1.52050781-.7338867-2.43017578-1.9291992-2.43017578-.6811524 0-1.2041016.34277344-1.4589844.89648438h-.0263672v-.25488282c0-.43505859-.2636719-.66357421-.6328125-.66357421s-.6328125.22851562-.6328125.65917968v5.15917969c0 .43945313.2680664.66796875.6416016.66796875zm1.6787109-2.63671875c-.628418 0-1.0415039-.54492187-1.0415039-1.39746094 0-.84375.4130859-1.40185546 1.0415039-1.40185546.6416016 0 1.0458984.5493164 1.0458984 1.40185546 0 .8569336-.4042968 1.39746094-1.0458984 1.39746094z"/></g><g fill="#b373d3" transform="translate(37.373535 5.377441)"><path d="m2.47412109 6.72802734c1.58203125 0 2.55322266-.78222656 2.55322266-2.02148437 0-.96240235-.58007813-1.50292969-1.92480469-1.77099609l-.66796875-.13623047c-.75146484-.14941407-1.0546875-.39111329-1.0546875-.78222657 0-.46582031.4350586-.7734375 1.08984375-.7734375.54492188 0 .95361328.19775391 1.16455078.67675782.14941407.27246093.33398438.39111328.6328125.39111328.33837891 0 .56689454-.21533203.56689454-.53173828 0-.11425782-.01757813-.20654297-.04833985-.2944336-.28125-.82617187-1.15576172-1.31396484-2.31591797-1.31396484-1.41064453 0-2.42138672.76904297-2.42138672 1.92919922 0 .94482422.61962891 1.55126953 1.88525391 1.80175781l.67236328.13183594c.79541016.16259765 1.09423828.39990234 1.09423828.81738281 0 .46582031-.48339843.80859375-1.1953125.80859375-.60644531 0-1.10302734-.21972656-1.30957031-.703125-.15820312-.28125-.33837891-.38671875-.61083984-.38671875-.34277344 0-.58447266.23291016-.58447266.58447266 0 .11865234.02636719.24169922.0703125.35595703.25488281.69433593 1.09423828 1.21728515 2.40380859 1.21728515z"/><path d="m6.3984375 6.71484375c.37792969 0 .64160156-.22851563.64160156-.66796875v-.95361328l.40869141-.37792969 1.20849609 1.59960938c.20214844.30322265.35595703.39990234.62841797.39990234.36035156 0 .61083985-.23730469.61083985-.58007813 0-.16699218-.03955079-.28125-.18017579-.47021484l-1.31396484-1.6743164 1.19970703-1.13378907c.18457031-.17138672.24169922-.29003906.24169922-.48339843 0-.31640626-.24169922-.55810547-.57128906-.55810547-.19335938 0-.33837891.07470703-.50976563.25488281l-1.70507812 1.70947266h-.01757813v-2.92236329c0-.43945312-.26367187-.67236328-.64160156-.67236328-.37353516 0-.64160156.23291016-.64160156.67236328v5.18994141c0 .43945312.2680664.66796875.64160156.66796875z"/><path d="m11.2324219 1.32714844c.3867187 0 .6855469-.2944336.6855469-.66357422 0-.37353516-.2988282-.66357422-.6855469-.66357422-.3867188 0-.6855469.29003906-.6855469.66357422 0 .36914062.2988281.66357422.6855469.66357422zm0 5.38769531c.3955078 0 .6416015-.25048828.6416015-.66796875v-3.55957031c0-.41748047-.2460937-.67236328-.6416015-.67236328-.3999024 0-.6416016.25488281-.6416016.67236328v3.55957031c0 .41748047.2416992.66796875.6416016.66796875z"/><path d="m13.3681641 8.30126953c.3779297 0 .6416015-.22851562.6416015-.66796875v-1.80175781h.0263672c.2504883.53173828.777832.86572265 1.4633789.86572265 1.1777344 0 1.9072266-.9140625 1.9072266-2.43017578 0-1.52050781-.7338867-2.43017578-1.9291992-2.43017578-.6811524 0-1.2041016.34277344-1.4589844.89648438h-.0263672v-.25488282c0-.43505859-.2636719-.66357421-.6328125-.66357421s-.6328125.22851562-.6328125.65917968v5.15917969c0 .43945313.2680664.66796875.6416016.66796875zm1.6787109-2.63671875c-.628418 0-1.0415039-.54492187-1.0415039-1.39746094 0-.84375.4130859-1.40185546 1.0415039-1.40185546.6416016 0 1.0458984.5493164 1.0458984 1.40185546 0 .8569336-.4042968 1.39746094-1.0458984 1.39746094z"/></g><path d="m87.3491595 58.1304704 9.1505402 4.1854048-8.838648 4.8091893-.1354549-3.8931163c-4.8380677 1.1337637-8.2587714 3.9442574-10.7147244 8.3988649-2.0290073 3.6802132-3.2519284 7.9243513-4.6485705 15.0500292-.0867342.4425182-.1761558.9045981-.2822006 1.4571429-.0697976.3640454-.0697976.3640454-.1393552.7277469-.0694819.3634814-.0694819.3634814-.1389018.7264266-1.5349545 8.0208635-2.4860182 11.6282303-4.3253185 15.0357223-2.4267396 4.495785-5.9821869 6.8347-11.2018114 6.872537l-.0072487-.999974c4.8382459-.035072 8.0688732-2.160308 10.3290742-6.347562 1.7724759-3.283694 2.7084852-6.8339594 4.2231276-14.7486827.0693779-.3627257.0693779-.3627257.1388715-.7262681.069596-.3639022.069596-.3639022.1394854-.728427.1062726-.5537314.1959311-1.0170354.2829495-1.4610035 1.415571-7.2222534 2.6606348-11.5432375 4.7541744-15.3404995 2.6198605-4.751903 6.3277323-7.7635406 11.5564406-8.9341608z" fill="#b373d3" opacity=".5"/><path d="m167.349159 58.1304704 9.150541 4.1854048-8.838648 4.8091893-.135455-3.8931163c-4.838068 1.1337637-8.258772 3.9442574-10.714725 8.3988649-2.029007 3.6802132-3.251928 7.9243513-4.64857 15.0500292-.086734.4425182-.176156.9045981-.282201 1.4571429-.069797.3640454-.069797.3640454-.139355.7277469-.069482.3634814-.069482.3634814-.138902.7264266-1.534954 8.0208635-2.486018 11.6282303-4.325318 15.0357223-2.42674 4.495785-5.982187 6.8347-11.201812 6.872537l-.007248-.999974c4.838246-.035072 8.068873-2.160308 10.329074-6.347562 1.772476-3.283694 2.708485-6.8339594 4.223127-14.7486827.069378-.3627257.069378-.3627257.138872-.7262681.069596-.3639022.069596-.3639022.139485-.728427.106273-.5537314.195932-1.0170354.28295-1.4610035 1.415571-7.2222534 2.660635-11.5432375 4.754174-15.3404995 2.619861-4.751903 6.327733-7.7635406 11.556441-8.9341608z" fill="#b373d3" opacity=".5"/><path d="m249.349159 58.1304704 9.150541 4.1854048-8.838648 4.8091893-.135455-3.8931163c-4.838068 1.1337637-8.258772 3.9442574-10.714725 8.3988649-2.029007 3.6802132-3.251928 7.9243513-4.64857 15.0500292-.086734.4425182-.176156.9045981-.282201 1.4571429-.069797.3640454-.069797.3640454-.139355.7277469-.069482.3634814-.069482.3634814-.138902.7264266-1.534954 8.0208635-2.486018 11.6282303-4.325318 15.0357223-2.42674 4.495785-5.982187 6.8347-11.201812 6.872537l-.007248-.999974c4.838246-.035072 8.068873-2.160308 10.329074-6.347562 1.772476-3.283694 2.708485-6.8339594 4.223127-14.7486827.069378-.3627257.069378-.3627257.138872-.7262681.069596-.3639022.069596-.3639022.139485-.728427.106273-.5537314.195932-1.0170354.28295-1.4610035 1.415571-7.2222534 2.660635-11.5432375 4.754174-15.3404995 2.619861-4.751903 6.327733-7.7635406 11.556441-8.9341608z" fill="#b373d3" opacity=".5"/></g></g></g></svg>